<svg xmlns="http://www.w3.org/2000/svg" xmlns:xlink="http://www.w3.org/1999/xlink" viewBox="0 0 2265.96 1468.87"><defs><style>.cls-1{fill:#fef;}.cls-2{isolation:isolate;}.cls-3{opacity:0.55;mix-blend-mode:color-dodge;}.cls-4{opacity:0.71;}.cls-32,.cls-5{opacity:0.4;}.cls-5{mix-blend-mode:screen;}.cls-10,.cls-11,.cls-12,.cls-13,.cls-14,.cls-15,.cls-16,.cls-17,.cls-18,.cls-19,.cls-20,.cls-21,.cls-22,.cls-23,.cls-24,.cls-25,.cls-26,.cls-27,.cls-28,.cls-29,.cls-30,.cls-31,.cls-32,.cls-33,.cls-34,.cls-35,.cls-36,.cls-37,.cls-38,.cls-39,.cls-40,.cls-41,.cls-42,.cls-43,.cls-44,.cls-45,.cls-46,.cls-47,.cls-48,.cls-49,.cls-50,.cls-51,.cls-52,.cls-53,.cls-54,.cls-55,.cls-56,.cls-57,.cls-58,.cls-59,.cls-6,.cls-60,.cls-61,.cls-62,.cls-63,.cls-64,.cls-7,.cls-8,.cls-9{fill:none;}.cls-11,.cls-12,.cls-13,.cls-14,.cls-16,.cls-18,.cls-19,.cls-21,.cls-23,.cls-24,.cls-25,.cls-26,.cls-27,.cls-28,.cls-29,.cls-31,.cls-32,.cls-33,.cls-34,.cls-35,.cls-36,.cls-37,.cls-38,.cls-39,.cls-40,.cls-41,.cls-42,.cls-43,.cls-44,.cls-45,.cls-47,.cls-48,.cls-49,.cls-50,.cls-53,.cls-55,.cls-56,.cls-57,.cls-58,.cls-59,.cls-6,.cls-60,.cls-61,.cls-62,.cls-63,.cls-64,.cls-7,.cls-8,.cls-9{stroke-miterlimit:10;}.cls-11,.cls-14,.cls-19,.cls-24,.cls-28,.cls-29,.cls-49,.cls-53,.cls-55,.cls-56,.cls-57,.cls-58,.cls-59,.cls-6,.cls-60,.cls-61,.cls-62,.cls-63,.cls-64{stroke-width:1.42px;}.cls-6{stroke:url(#linear-gradient);}.cls-10,.cls-12,.cls-13,.cls-15,.cls-16,.cls-17,.cls-18,.cls-20,.cls-21,.cls-22,.cls-23,.cls-25,.cls-26,.cls-27,.cls-30,.cls-31,.cls-32,.cls-33,.cls-34,.cls-35,.cls-36,.cls-37,.cls-38,.cls-39,.cls-40,.cls-41,.cls-42,.cls-43,.cls-44,.cls-45,.cls-46,.cls-47,.cls-48,.cls-50,.cls-51,.cls-52,.cls-54,.cls-7,.cls-8,.cls-9{stroke-width:2.85px;}.cls-7{stroke:url(#linear-gradient-2);}.cls-8{stroke:url(#linear-gradient-3);}.cls-9{stroke:url(#linear-gradient-4);}.cls-10,.cls-15,.cls-17,.cls-20,.cls-22,.cls-30,.cls-46,.cls-51,.cls-52,.cls-54{stroke-linecap:round;stroke-linejoin:round;}.cls-10{stroke:url(#linear-gradient-5);}.cls-11{stroke:url(#linear-gradient-6);}.cls-12{stroke:url(#linear-gradient-7);}.cls-13{stroke:url(#linear-gradient-8);}.cls-14{stroke:url(#linear-gradient-9);}.cls-15{stroke:url(#linear-gradient-10);}.cls-16{stroke:url(#linear-gradient-11);}.cls-17{stroke:url(#linear-gradient-12);}.cls-18{stroke:url(#linear-gradient-13);}.cls-19{stroke:url(#linear-gradient-14);}.cls-20{stroke:url(#linear-gradient-15);}.cls-21{stroke:url(#linear-gradient-16);}.cls-22{stroke:url(#linear-gradient-17);}.cls-23{stroke:url(#linear-gradient-18);}.cls-24{stroke:url(#linear-gradient-19);}.cls-25{stroke:url(#linear-gradient-20);}.cls-26{stroke:url(#linear-gradient-21);}.cls-27{stroke:url(#linear-gradient-22);}.cls-28{stroke:url(#linear-gradient-23);}.cls-29{stroke:url(#linear-gradient-24);}.cls-30{stroke:url(#linear-gradient-25);}.cls-31{opacity:0.6;stroke:url(#linear-gradient-26);}.cls-32{stroke:url(#linear-gradient-27);}.cls-33,.cls-34,.cls-35,.cls-36,.cls-37,.cls-40,.cls-41,.cls-42,.cls-43,.cls-44{opacity:0.41;}.cls-33{stroke:url(#linear-gradient-28);}.cls-34{stroke:url(#linear-gradient-29);}.cls-35{stroke:url(#linear-gradient-30);}.cls-36{stroke:url(#linear-gradient-31);}.cls-37{stroke:url(#linear-gradient-32);}.cls-38{stroke:url(#linear-gradient-33);}.cls-39{stroke:url(#linear-gradient-34);}.cls-40{stroke:url(#linear-gradient-35);}.cls-41{stroke:url(#linear-gradient-36);}.cls-42{stroke:url(#linear-gradient-37);}.cls-43{stroke:url(#linear-gradient-38);}.cls-44{stroke:url(#linear-gradient-39);}.cls-45{opacity:0.39;stroke:url(#linear-gradient-40);}.cls-46{stroke:url(#linear-gradient-41);}.cls-47{stroke:url(#linear-gradient-42);}.cls-48{stroke:url(#linear-gradient-43);}.cls-49{stroke:url(#linear-gradient-44);}.cls-50{stroke:url(#linear-gradient-45);}.cls-51{stroke:url(#linear-gradient-46);}.cls-52{stroke:url(#linear-gradient-47);}.cls-53{stroke:url(#linear-gradient-48);}.cls-54{stroke:url(#linear-gradient-49);}.cls-55{stroke:url(#linear-gradient-50);}.cls-56{stroke:url(#linear-gradient-51);}.cls-57{stroke:url(#linear-gradient-52);}.cls-58{stroke:url(#linear-gradient-53);}.cls-59{stroke:url(#linear-gradient-54);}.cls-60{stroke:url(#linear-gradient-55);}.cls-61{stroke:url(#linear-gradient-56);}.cls-62{stroke:url(#linear-gradient-57);}.cls-63{stroke:url(#linear-gradient-58);}.cls-64{stroke:url(#linear-gradient-59);}</style><linearGradient id="linear-gradient" x1="1165.51" y1="665.78" x2="1384.53" y2="884.8" gradientUnits="userSpaceOnUse"><stop offset="0" stop-color="#b9438f"/><stop offset="0.99" stop-color="#6769ff"/></linearGradient><linearGradient id="linear-gradient-2" x1="1434.72" y1="635.97" x2="1689.2" y2="890.44" xlink:href="#linear-gradient"/><linearGradient id="linear-gradient-3" x1="1622.75" y1="222.07" x2="1911.2" y2="510.51" xlink:href="#linear-gradient"/><linearGradient id="linear-gradient-4" x1="1355.09" y1="358.09" x2="1661.93" y2="664.93" xlink:href="#linear-gradient"/><linearGradient id="linear-gradient-5" x1="1256.11" y1="458.35" x2="1560.51" y2="762.74" xlink:href="#linear-gradient"/><linearGradient id="linear-gradient-6" x1="995.8" y1="898.35" x2="1131.24" y2="1033.78" xlink:href="#linear-gradient"/><linearGradient id="linear-gradient-7" x1="891.36" y1="821.97" x2="1118.29" y2="1048.9" xlink:href="#linear-gradient"/><linearGradient id="linear-gradient-8" x1="850.02" y1="1042.2" x2="1217.93" y2="1410.11" xlink:href="#linear-gradient"/><linearGradient id="linear-gradient-9" x1="1580.9" y1="738.66" x2="1782.33" y2="940.09" xlink:href="#linear-gradient"/><linearGradient id="linear-gradient-10" x1="1859.93" y1="459.3" x2="2071.59" y2="670.97" xlink:href="#linear-gradient"/><linearGradient id="linear-gradient-11" x1="1755.93" y1="817.94" x2="2096.44" y2="1158.45" xlink:href="#linear-gradient"/><linearGradient id="linear-gradient-12" x1="1244.28" y1="827.74" x2="1497.56" y2="1081.01" xlink:href="#linear-gradient"/><linearGradient id="linear-gradient-13" x1="1494.11" y1="1080.27" x2="1733.52" y2="1319.68" xlink:href="#linear-gradient"/><linearGradient id="linear-gradient-14" x1="1192.49" y1="522.46" x2="1428.48" y2="758.46" xlink:href="#linear-gradient"/><linearGradient id="linear-gradient-15" x1="1356.08" y1="358.38" x2="1541.93" y2="544.23" xlink:href="#linear-gradient"/><linearGradient id="linear-gradient-16" x1="1318.17" y1="391.93" x2="1556.47" y2="630.24" xlink:href="#linear-gradient"/><linearGradient id="linear-gradient-17" x1="1720.57" y1="361.56" x2="1841.13" y2="482.12" xlink:href="#linear-gradient"/><linearGradient id="linear-gradient-18" x1="1136.17" y1="692.78" x2="1355.16" y2="911.77" xlink:href="#linear-gradient"/><linearGradient id="linear-gradient-19" x1="965.06" y1="928.86" x2="1151.79" y2="1115.59" xlink:href="#linear-gradient"/><linearGradient id="linear-gradient-20" x1="1301.09" y1="859.03" x2="1511.51" y2="1069.46" xlink:href="#linear-gradient"/><linearGradient id="linear-gradient-21" x1="1452.28" y1="1121.22" x2="1690.98" y2="1359.92" xlink:href="#linear-gradient"/><linearGradient id="linear-gradient-22" x1="2083.76" y1="1000.57" x2="2236.01" y2="1152.82" xlink:href="#linear-gradient"/><linearGradient id="linear-gradient-23" x1="1574.71" y1="607.86" x2="1856.89" y2="890.04" xlink:href="#linear-gradient"/><linearGradient id="linear-gradient-24" x1="1989.31" y1="730.47" x2="2176.49" y2="917.66" xlink:href="#linear-gradient"/><linearGradient id="linear-gradient-25" x1="1956.12" y1="461.12" x2="2293.01" y2="798.01" xlink:href="#linear-gradient"/><linearGradient id="linear-gradient-26" x1="762.27" y1="84.7" x2="1197.73" y2="520.17" xlink:href="#linear-gradient"/><linearGradient id="linear-gradient-27" x1="1393.15" y1="99.14" x2="1538.38" y2="244.37" xlink:href="#linear-gradient"/><linearGradient id="linear-gradient-28" x1="1101.89" y1="35.17" x2="1220.02" y2="153.3" xlink:href="#linear-gradient"/><linearGradient id="linear-gradient-29" x1="118.39" y1="5296.46" x2="186.01" y2="5364.08" gradientTransform="translate(4244.57 -3121.63) rotate(49.63)" xlink:href="#linear-gradient"/><linearGradient id="linear-gradient-30" x1="767.31" y1="261.41" x2="924.71" y2="418.81" xlink:href="#linear-gradient"/><linearGradient id="linear-gradient-31" x1="522.18" y1="28.95" x2="638.17" y2="144.94" xlink:href="#linear-gradient"/><linearGradient id="linear-gradient-32" x1="5650.89" y1="-2879.31" x2="5768.31" y2="-2761.9" gradientTransform="translate(389.84 6580.07) rotate(-63.48)" xlink:href="#linear-gradient"/><linearGradient id="linear-gradient-33" x1="750.16" y1="489.16" x2="904.33" y2="643.33" xlink:href="#linear-gradient"/><linearGradient id="linear-gradient-34" x1="780.75" y1="715.19" x2="875.4" y2="809.84" xlink:href="#linear-gradient"/><linearGradient id="linear-gradient-35" x1="495.92" y1="503.2" x2="541.86" y2="549.14" xlink:href="#linear-gradient"/><linearGradient id="linear-gradient-36" x1="1393.14" y1="7185.1" x2="1435.22" y2="7227.18" gradientTransform="matrix(0.38, 0.92, -0.92, 0.38, 6378.23, -3083.95)" xlink:href="#linear-gradient"/><linearGradient id="linear-gradient-37" x1="734.57" y1="7105.98" x2="776.65" y2="7148.05" gradientTransform="matrix(0.38, 0.92, -0.92, 0.38, 6378.23, -3083.95)" xlink:href="#linear-gradient"/><linearGradient id="linear-gradient-38" x1="430.84" y1="946.74" x2="560.69" y2="1076.59" xlink:href="#linear-gradient"/><linearGradient id="linear-gradient-39" x1="8962.53" y1="-1571.93" x2="9128.94" y2="-1405.53" gradientTransform="translate(3803.29 9240.22) rotate(-103.85)" xlink:href="#linear-gradient"/><linearGradient id="linear-gradient-40" x1="416.59" y1="649.75" x2="831.37" y2="1064.54" xlink:href="#linear-gradient"/><linearGradient id="linear-gradient-41" x1="1796.73" y1="777.82" x2="2054.96" y2="1036.06" xlink:href="#linear-gradient"/><linearGradient id="linear-gradient-42" x1="1942.41" y1="1072.45" x2="2129.98" y2="1260.02" xlink:href="#linear-gradient"/><linearGradient id="linear-gradient-43" x1="1791.61" y1="1253.87" x2="1895.51" y2="1357.77" xlink:href="#linear-gradient"/><linearGradient id="linear-gradient-44" x1="1828.2" y1="1043.3" x2="2018.69" y2="1233.79" xlink:href="#linear-gradient"/><linearGradient id="linear-gradient-45" x1="2102.19" y1="915.46" x2="2288.78" y2="1102.05" xlink:href="#linear-gradient"/><linearGradient id="linear-gradient-46" x1="1400.91" y1="268.58" x2="1491.17" y2="358.84" xlink:href="#linear-gradient"/><linearGradient id="linear-gradient-47" x1="1225.77" y1="935.76" x2="1599.69" y2="1309.68" xlink:href="#linear-gradient"/><linearGradient id="linear-gradient-48" x1="1060.05" y1="654.55" x2="1190.75" y2="785.24" xlink:href="#linear-gradient"/><linearGradient id="linear-gradient-49" x1="1059.81" y1="654.56" x2="1240.65" y2="835.4" xlink:href="#linear-gradient"/><linearGradient id="linear-gradient-50" x1="1567.25" y1="695.88" x2="1818.69" y2="947.32" xlink:href="#linear-gradient"/><linearGradient id="linear-gradient-51" x1="1607.48" y1="966.36" x2="1758.16" y2="1117.04" xlink:href="#linear-gradient"/><linearGradient id="linear-gradient-52" x1="1774.68" y1="988.96" x2="1904.04" y2="1118.33" xlink:href="#linear-gradient"/><linearGradient id="linear-gradient-53" x1="1812.06" y1="907.83" x2="1963.03" y2="1058.81" xlink:href="#linear-gradient"/><linearGradient id="linear-gradient-54" x1="1638.66" y1="207.14" x2="1809.64" y2="378.12" xlink:href="#linear-gradient"/><linearGradient id="linear-gradient-55" x1="1840.18" y1="344.77" x2="2118.98" y2="623.57" xlink:href="#linear-gradient"/><linearGradient id="linear-gradient-56" x1="1631.34" y1="451.18" x2="1751.6" y2="571.43" xlink:href="#linear-gradient"/><linearGradient id="linear-gradient-57" x1="1098.74" y1="1063.42" x2="1328.69" y2="1293.37" xlink:href="#linear-gradient"/><linearGradient id="linear-gradient-58" x1="1035.62" y1="1229.42" x2="1214.57" y2="1408.37" xlink:href="#linear-gradient"/><linearGradient id="linear-gradient-59" x1="1473.35" y1="1102.09" x2="1623.02" y2="1251.77" xlink:href="#linear-gradient"/><symbol id="New_Symbol_5" data-name="New Symbol 5" viewBox="0 0 1.85 1.85"><circle class="cls-1" cx="0.93" cy="0.93" r="0.93"/></symbol></defs><title>Asset 40</title><g class="cls-2"><g id="Layer_2" data-name="Layer 2"><g id="BG"><g class="cls-3"><use width="1.85" height="1.85" transform="translate(1161.11 981.23) scale(2.56 2.16)" xlink:href="#New_Symbol_5"/><use width="1.85" height="1.85" transform="translate(1068.29 984.48) scale(2.56 2.16)" xlink:href="#New_Symbol_5"/><use width="1.85" height="1.85" transform="translate(946.25 1019.31) scale(3.67 3.09)" xlink:href="#New_Symbol_5"/><use width="1.85" height="1.85" transform="translate(945.85 1044.7) scale(4.04 3.41)" xlink:href="#New_Symbol_5"/><use width="1.85" height="1.85" transform="translate(1023.5 1068.72) scale(2.56 2.16)" xlink:href="#New_Symbol_5"/><use width="1.85" height="1.85" transform="translate(1194.14 1114.52) scale(2.56 2.16)" xlink:href="#New_Symbol_5"/><use width="1.85" height="1.85" transform="translate(1303.99 1177.63) scale(2.56 2.16)" xlink:href="#New_Symbol_5"/><use width="1.85" height="1.85" transform="translate(1347.59 1269.18) scale(2.56 2.16)" xlink:href="#New_Symbol_5"/><use width="1.85" height="1.85" transform="translate(1177.81 1309.09) scale(2.56 2.16)" xlink:href="#New_Symbol_5"/><use width="1.85" height="1.85" transform="translate(949.52 1311.8) scale(2.56 2.16)" xlink:href="#New_Symbol_5"/><use width="1.85" height="1.85" transform="translate(930.35 1318.43) scale(2.56 2.16)" xlink:href="#New_Symbol_5"/><use width="1.85" height="1.85" transform="translate(962.59 1292.64) scale(2.56 2.16)" xlink:href="#New_Symbol_5"/><use width="1.85" height="1.85" transform="translate(1124.3 1166.25) scale(3.82 3.23)" xlink:href="#New_Symbol_5"/><use width="1.85" height="1.85" transform="translate(1243.4 1202.3) scale(2.56 2.16)" xlink:href="#New_Symbol_5"/><use width="1.85" height="1.85" transform="translate(1464.97 1198.68) scale(5.86 4.94)" xlink:href="#New_Symbol_5"/><use width="1.85" height="1.85" transform="translate(1686.99 1180.43) scale(2.56 2.16)" xlink:href="#New_Symbol_5"/><use width="1.85" height="1.85" transform="translate(1856.24 1025) scale(2.56 2.16)" xlink:href="#New_Symbol_5"/><use width="1.85" height="1.85" transform="translate(1780.75 987.3) scale(2.56 2.16)" xlink:href="#New_Symbol_5"/><use width="1.85" height="1.85" transform="translate(1781.52 917.71) scale(2.56 2.16)" xlink:href="#New_Symbol_5"/><use width="1.85" height="1.85" transform="translate(1663.97 932.35) scale(5.22 4.4)" xlink:href="#New_Symbol_5"/><use width="1.85" height="1.85" transform="translate(1661.75 949.19) scale(7.59 6.4)" xlink:href="#New_Symbol_5"/><use width="1.85" height="1.85" transform="translate(1583.09 948.48) scale(2.56 2.16)" xlink:href="#New_Symbol_5"/><use width="1.85" height="1.85" transform="translate(1521.13 857.2) scale(2.56 2.16)" xlink:href="#New_Symbol_5"/><use width="1.85" height="1.85" transform="translate(1422.07 777.14) scale(2.56 2.16)" xlink:href="#New_Symbol_5"/><use width="1.85" height="1.85" transform="translate(1313.44 745.57) scale(2.56 2.16)" xlink:href="#New_Symbol_5"/><use width="1.85" height="1.85" transform="translate(1263.11 718.65) scale(2.56 2.16)" xlink:href="#New_Symbol_5"/><use width="1.85" height="1.85" transform="translate(936.89 805.52) scale(2.56 2.16)" xlink:href="#New_Symbol_5"/><use width="1.85" height="1.85" transform="translate(810.08 773.72) scale(2.56 2.16)" xlink:href="#New_Symbol_5"/><use width="1.85" height="1.85" transform="translate(992.46 625.66) scale(2.56 2.16)" xlink:href="#New_Symbol_5"/><use width="1.85" height="1.85" transform="translate(1263.65 593.37) scale(2.56 2.16)" xlink:href="#New_Symbol_5"/><use width="1.85" height="1.85" transform="translate(1395.78 580.77) scale(2.56 2.16)" xlink:href="#New_Symbol_5"/><use width="1.85" height="1.85" transform="translate(1456.54 571.53) scale(2.56 2.16)" xlink:href="#New_Symbol_5"/><use width="1.85" height="1.85" transform="translate(1706.72 485.46) scale(2.56 2.16)" xlink:href="#New_Symbol_5"/><use width="1.85" height="1.85" transform="translate(1673.7 562.67) scale(2.56 2.16)" xlink:href="#New_Symbol_5"/><use width="1.85" height="1.85" transform="translate(1431.06 660.24) scale(2.56 2.16)" xlink:href="#New_Symbol_5"/><use width="1.85" height="1.85" transform="translate(1037.46 741.12) scale(2.56 2.16)" xlink:href="#New_Symbol_5"/><use width="1.85" height="1.85" transform="translate(1069.19 817.56) scale(2.56 2.16)" xlink:href="#New_Symbol_5"/><use width="1.85" height="1.85" transform="translate(998.14 862.35) scale(6.32 5.33)" xlink:href="#New_Symbol_5"/><use width="1.85" height="1.85" transform="translate(811.54 918.86) scale(2.56 2.16)" xlink:href="#New_Symbol_5"/><use width="1.85" height="1.85" transform="translate(601.33 935.38) scale(2.56 2.16)" xlink:href="#New_Symbol_5"/><use width="1.85" height="1.85" transform="translate(507.42 1023.03) scale(4.38 3.69)" xlink:href="#New_Symbol_5"/><use width="1.85" height="1.85" transform="translate(502.89 1057.6) scale(4.97 4.19)" xlink:href="#New_Symbol_5"/><use width="1.85" height="1.85" transform="translate(440.34 1114.94) scale(2.56 2.16)" xlink:href="#New_Symbol_5"/><use width="1.85" height="1.85" transform="translate(395.74 1210.93) scale(2.56 2.16)" xlink:href="#New_Symbol_5"/><use width="1.85" height="1.85" transform="translate(421.41 1177.38) scale(2.56 2.16)" xlink:href="#New_Symbol_5"/><use width="1.85" height="1.85" transform="translate(407.46 1194.41) scale(2.56 2.16)" xlink:href="#New_Symbol_5"/><use width="1.85" height="1.85" transform="translate(466.3 1202.01) scale(2.56 2.16)" xlink:href="#New_Symbol_5"/><use width="1.85" height="1.85" transform="translate(442.57 1154.54) scale(2.56 2.16)" xlink:href="#New_Symbol_5"/><use width="1.85" height="1.85" transform="translate(426.83 1146.38) scale(2.56 2.16)" xlink:href="#New_Symbol_5"/><use width="1.85" height="1.85" transform="translate(675.22 1317.73) scale(2.56 2.16)" xlink:href="#New_Symbol_5"/><use width="1.85" height="1.85" transform="translate(764.43 1350.37) scale(3.89 3.28)" xlink:href="#New_Symbol_5"/><use width="1.85" height="1.85" transform="translate(810.03 1366.93) scale(3.25 2.74)" xlink:href="#New_Symbol_5"/><use width="1.85" height="1.85" transform="translate(798.71 1279.74) scale(7.06 5.96)" xlink:href="#New_Symbol_5"/><use width="1.85" height="1.85" transform="translate(787.87 1234.01) scale(2.56 2.16)" xlink:href="#New_Symbol_5"/><use width="1.85" height="1.85" transform="translate(846.41 1260.07) scale(4.79 4.04)" xlink:href="#New_Symbol_5"/><use width="1.85" height="1.85" transform="translate(998.85 1343.24) scale(2.56 2.16)" xlink:href="#New_Symbol_5"/><use width="1.85" height="1.85" transform="translate(754.18 1362.4) scale(2.57 2.16)" xlink:href="#New_Symbol_5"/><use width="1.85" height="1.85" transform="translate(615.47 1387.32) scale(3.6 3.04)" xlink:href="#New_Symbol_5"/><use width="1.85" height="1.85" transform="translate(579.76 1370.15) scale(2.56 2.16)" xlink:href="#New_Symbol_5"/><use width="1.85" height="1.85" transform="translate(522.72 1379.71) scale(5.08 4.28)" xlink:href="#New_Symbol_5"/><use width="1.85" height="1.85" transform="translate(898.04 1367.44) scale(2.56 2.16)" xlink:href="#New_Symbol_5"/><use width="1.85" height="1.85" transform="translate(986.71 1356.54) scale(2.56 2.16)" xlink:href="#New_Symbol_5"/><use width="1.85" height="1.85" transform="translate(1111.49 1392.72) scale(2.56 2.16)" xlink:href="#New_Symbol_5"/><use width="1.85" height="1.85" transform="translate(1230.26 1334.22) scale(2.56 2.16)" xlink:href="#New_Symbol_5"/><use width="1.85" height="1.85" transform="translate(1227.14 1368.25) scale(2.56 2.16)" xlink:href="#New_Symbol_5"/><use width="1.85" height="1.85" transform="translate(1187.16 1327.98) scale(2.56 2.16)" xlink:href="#New_Symbol_5"/><use width="1.85" height="1.85" transform="translate(1192.84 1353.66) scale(2.56 2.16)" xlink:href="#New_Symbol_5"/><use width="1.85" height="1.85" transform="translate(1291.84 1357.14) scale(2.56 2.16)" xlink:href="#New_Symbol_5"/><use width="1.85" height="1.85" transform="translate(1633.24 1393.81) scale(2.56 2.16)" xlink:href="#New_Symbol_5"/><use width="1.85" height="1.85" transform="translate(1684.58 1391.53) scale(2.56 2.16)" xlink:href="#New_Symbol_5"/><use width="1.85" height="1.85" transform="translate(1778.59 1395.98) scale(2.56 2.16)" xlink:href="#New_Symbol_5"/><use width="1.85" height="1.85" transform="translate(1636.75 1326.62) scale(2.56 2.16)" xlink:href="#New_Symbol_5"/><use width="1.85" height="1.85" transform="translate(1434.35 1012.11) scale(2.56 2.16)" xlink:href="#New_Symbol_5"/><use width="1.85" height="1.85" transform="translate(1378.38 1060.69) scale(2.56 2.16)" xlink:href="#New_Symbol_5"/><use width="1.85" height="1.85" transform="translate(1357.16 936.78) scale(2.56 2.16)" xlink:href="#New_Symbol_5"/><use width="1.85" height="1.85" transform="translate(1366.58 907.81) scale(2.56 2.16)" xlink:href="#New_Symbol_5"/><use width="1.85" height="1.85" transform="translate(1318.22 901.15) scale(2.56 2.16)" xlink:href="#New_Symbol_5"/><use width="1.85" height="1.85" transform="translate(1578.4 684.38) scale(8.55 7.21)" xlink:href="#New_Symbol_5"/><use width="1.85" height="1.85" transform="translate(1575.72 637.03) scale(2.93 2.47)" xlink:href="#New_Symbol_5"/><use width="1.85" height="1.85" transform="translate(1604.01 640.7) scale(2.7 2.28)" xlink:href="#New_Symbol_5"/><use width="1.85" height="1.85" transform="translate(1667.32 622.23) scale(3.07 2.59)" xlink:href="#New_Symbol_5"/><use width="1.85" height="1.85" transform="translate(1663.49 608.37) scale(2.56 2.16)" xlink:href="#New_Symbol_5"/><use width="1.85" height="1.85" transform="translate(1643.42 600.25) scale(2.56 2.16)" xlink:href="#New_Symbol_5"/><use width="1.85" height="1.85" transform="translate(1641.28 610.03) scale(2.56 2.16)" xlink:href="#New_Symbol_5"/><use width="1.85" height="1.85" transform="translate(1680.24 729.86) scale(2.56 2.16)" xlink:href="#New_Symbol_5"/><use width="1.85" height="1.85" transform="translate(1727.13 791.69) scale(2.56 2.16)" xlink:href="#New_Symbol_5"/><use width="1.85" height="1.85" transform="translate(1864.45 786.1) scale(2.56 2.16)" xlink:href="#New_Symbol_5"/><use width="1.85" height="1.85" transform="translate(996.69 654.29) scale(2.56 2.16)" xlink:href="#New_Symbol_5"/><use width="1.85" height="1.85" transform="translate(804.62 574.34) scale(7.4 6.25)" xlink:href="#New_Symbol_5"/><use width="1.85" height="1.85" transform="translate(752.7 542.47) scale(3.9 3.29)" xlink:href="#New_Symbol_5"/><use width="1.85" height="1.85" transform="translate(677.06 562.97) scale(2.56 2.16)" xlink:href="#New_Symbol_5"/><use width="1.85" height="1.85" transform="translate(642.52 510.03) scale(2.56 2.16)" xlink:href="#New_Symbol_5"/><use width="1.85" height="1.85" transform="translate(697.57 478.46) scale(2.56 2.16)" xlink:href="#New_Symbol_5"/><use width="1.85" height="1.85" transform="translate(594.74 474.93) scale(2.56 2.16)" xlink:href="#New_Symbol_5"/><use width="1.85" height="1.85" transform="translate(584.5 429.65) scale(2.56 2.16)" xlink:href="#New_Symbol_5"/><use width="1.85" height="1.85" transform="translate(580.65 483.76) scale(2.56 2.16)" xlink:href="#New_Symbol_5"/><use width="1.85" height="1.85" transform="translate(661.6 671.38) scale(2.56 2.16)" xlink:href="#New_Symbol_5"/><use width="1.85" height="1.85" transform="translate(612.89 639.29) scale(2.56 2.16)" xlink:href="#New_Symbol_5"/><use width="1.85" height="1.85" transform="translate(506.51 586.39) scale(2.56 2.16)" xlink:href="#New_Symbol_5"/><use width="1.85" height="1.85" transform="translate(536.02 624.17) scale(2.56 2.16)" xlink:href="#New_Symbol_5"/><use width="1.85" height="1.85" transform="translate(585.85 713.18) scale(2.56 2.16)" xlink:href="#New_Symbol_5"/><use width="1.85" height="1.85" transform="translate(413.72 750.02) scale(2.56 2.16)" xlink:href="#New_Symbol_5"/><use width="1.85" height="1.85" transform="translate(1011.54 456.78) scale(2.56 2.16)" xlink:href="#New_Symbol_5"/><use width="1.85" height="1.85" transform="translate(1017.14 396.41) scale(2.56 2.16)" xlink:href="#New_Symbol_5"/><use width="1.85" height="1.85" transform="translate(1002.93 376.17) scale(2.56 2.16)" xlink:href="#New_Symbol_5"/><use width="1.85" height="1.85" transform="translate(951.89 366.81) scale(2.56 2.16)" xlink:href="#New_Symbol_5"/></g><g class="cls-4"><g class="cls-5"><polygon class="cls-6" points="1462.84 803.29 1156.86 817.39 1180.91 652.04 1462.84 803.29"/><polygon class="cls-7" points="1701.67 619.57 1590.07 986.5 1293.73 780.3 1701.67 619.57"/><path class="cls-8" d="M1890.25,241.28c-5.77,0-359.83,76.31-359.83,76.31l171.26,302L2069.2,350.05Z"/><polygon class="cls-9" points="1249.52 466.95 1530.41 317.58 1701.67 619.57 1249.52 466.95"/><polygon class="cls-10" points="1293.73 780.3 1701.67 619.57 1249.52 466.95 1293.73 780.3"/><polygon class="cls-11" points="876.86 1018.97 1156.86 817.39 1196.54 967.01 876.86 1018.97"/><polygon class="cls-12" points="999.55 716.98 876.86 1018.97 1196.54 967.01 999.55 716.98"/><path class="cls-13" d="M1380.32,1239.48c-9.62,0-504.7,170.76-503.46,165.89s0-386.41,0-386.41Z"/><polygon class="cls-14" points="1901.79 819.27 1701.67 619.57 1590.07 986.5 1901.79 819.27"/><polygon class="cls-15" points="2069.2 350.06 1701.67 619.57 2005.7 734.84 2069.2 350.06"/><polygon class="cls-16" points="1590.07 986.5 1988.38 1262.5 2005.7 734.84 1590.07 986.5"/><polygon class="cls-17" points="1196.54 967.01 1590.07 986.5 1293.73 780.3 1196.54 967.01"/><polygon class="cls-18" points="1868.75 1179.6 1380.33 1239.48 1590.07 986.5 1868.75 1179.6"/><polygon class="cls-19" points="1249.52 466.95 1180.91 652.04 1497.7 686.13 1249.52 466.95"/><polygon class="cls-20" points="1530.41 317.58 1576.6 507.54 1249.52 466.95 1530.41 317.58"/><polygon class="cls-21" points="1497.7 686.13 1576.6 507.54 1249.52 466.95 1497.7 686.13"/><polygon class="cls-22" points="1890.25 241.28 1576.6 507.54 1701.67 619.57 1890.25 241.28"/><polygon class="cls-23" points="1196.54 967.01 1461.14 803.03 1180.91 652.04 1196.54 967.01"/><polygon class="cls-24" points="1053.84 1212.22 1196.54 967.01 876.86 1018.97 1053.84 1212.22"/><polygon class="cls-25" points="1461.14 803.03 1590.07 986.5 1196.54 967.01 1461.14 803.03"/><polygon class="cls-26" points="1590.07 986.5 1441.9 1465.45 1868.75 1179.6 1590.07 986.5"/><path class="cls-27" d="M2261.62,827.39s-94.29,397.78-100.06,397.78-173.18,37.34-173.18,37.34Z"/><polygon class="cls-28" points="1461.14 803.03 2005.7 734.84 1497.7 686.13 1461.14 803.03"/><polygon class="cls-29" points="2261.63 827.39 2005.7 734.84 1901.79 819.27 2261.63 827.39"/><polygon class="cls-30" points="2069.2 350.06 2261.63 827.39 2005.7 734.84 2069.2 350.06"/><polyline class="cls-31" points="674.13 174.71 923.17 69.18 1056.15 325.7 1053.12 466.95 1249.52 466.95"/><polygon class="cls-32" points="1441.9 52.94 1339.31 332.19 1681.47 98.4 1441.9 52.94"/><polygon class="cls-33" points="1070.52 69.18 1247.19 2.61 1128.6 241.28 1070.52 69.18"/><polygon class="cls-34" points="263.91 398.99 364.72 439.68 195.88 484.94 263.91 398.99"/><polygon class="cls-35" points="693.37 338.69 866.24 225.04 999.55 338.69 693.37 338.69"/><polygon class="cls-36" points="468.94 85.52 595.05 2.61 692.3 85.52 468.94 85.52"/><polygon class="cls-37" points="356.75 292.52 335.91 175.4 473.47 137.28 356.75 292.52"/><polygon class="cls-38" points="666.43 576.54 847.54 460.46 989.24 553 666.43 576.54"/><polygon class="cls-39" points="814.03 867.98 779.69 719.42 902.45 716.98 814.03 867.98"/><polygon class="cls-40" points="512.49 489.68 495.18 553 566.37 521.34 512.49 489.68"/><polygon class="cls-41" points="307.4 977.09 231.47 987.93 293.47 1031.22 307.4 977.09"/><polygon class="cls-42" points="127.37 338.69 51.43 349.54 113.43 392.83 127.37 338.69"/><polygon class="cls-43" points="418.21 1072.51 502.87 877.72 624.1 1009.89 418.21 1072.51"/><polygon class="cls-44" points="325.87 883.4 3.32 834.42 189.61 677.29 325.87 883.4"/><polyline class="cls-45" points="876.86 1018.97 728.01 858.23 706.84 1040.88 566.37 695.88 443.22 623.63"/><polygon class="cls-46" points="1590.07 986.5 2261.63 827.39 1868.75 1179.6 1590.07 986.5"/><polygon class="cls-47" points="2161.57 1225.16 2017.14 1002.82 1988.38 1262.5 2161.57 1225.16"/><polygon class="cls-48" points="1988.38 1262.5 1775.45 1421.13 1868.75 1179.6 1988.38 1262.5"/><polygon class="cls-49" points="2017.14 1002.82 1714.19 1158.96 1988.38 1262.5 2017.14 1002.82"/><polygon class="cls-50" points="2261.63 827.39 2017.14 1002.82 2161.57 1225.16 2261.63 827.39"/><polygon class="cls-51" points="1339.31 332.19 1530.41 317.58 1510.39 252.85 1339.31 332.19"/><polygon class="cls-52" points="1196.54 967.01 1590.07 986.5 1441.9 1465.45 1196.54 967.01"/><polygon class="cls-53" points="999 717.38 1156.86 817.39 1180.91 652.04 999 717.38"/><polygon class="cls-54" points="999 717.38 1293.73 780.3 1180.91 652.04 999 717.38"/><polygon class="cls-55" points="1462.84 803.29 1901.79 819.27 1745.93 1018.97 1462.84 803.29"/><polygon class="cls-56" points="1714.19 1158.96 1745.93 1018.97 1590.07 986.5 1714.19 1158.96"/><polygon class="cls-57" points="2017.14 1002.82 1745.93 1018.97 1714.19 1158.96 2017.14 1002.82"/><polygon class="cls-58" points="1901.79 819.27 2017.14 1002.82 1745.93 1018.97 1901.79 819.27"/><polygon class="cls-59" points="1530.41 317.58 1738.45 448.16 1890.25 241.28 1530.41 317.58"/><polygon class="cls-60" points="2069.2 350.06 1738.45 448.16 2005.7 734.84 2069.2 350.06"/><polygon class="cls-61" points="1576.6 507.54 1738.45 448.16 1701.67 619.57 1576.6 507.54"/><polygon class="cls-62" points="1196.54 967.01 1053.84 1212.22 1380.33 1239.48 1196.54 967.01"/><polygon class="cls-63" points="876.86 1405.38 1053.84 1212.22 1380.33 1239.48 876.86 1405.38"/><polygon class="cls-64" points="1714.19 1158.96 1380.33 1239.48 1590.07 986.5 1714.19 1158.96"/></g><g class="cls-5"><polygon class="cls-6" points="1462.84 803.29 1156.86 817.39 1180.91 652.04 1462.84 803.29"/><polygon class="cls-7" points="1701.67 619.57 1590.07 986.5 1293.73 780.3 1701.67 619.57"/><path class="cls-8" d="M1890.25,241.28c-5.77,0-359.83,76.31-359.83,76.31l171.26,302L2069.2,350.05Z"/><polygon class="cls-9" points="1249.52 466.95 1530.41 317.58 1701.67 619.57 1249.52 466.95"/><polygon class="cls-10" points="1293.73 780.3 1701.67 619.57 1249.52 466.95 1293.73 780.3"/><polygon class="cls-11" points="876.86 1018.97 1156.86 817.39 1196.54 967.01 876.86 1018.97"/><polygon class="cls-12" points="999.55 716.98 876.86 1018.97 1196.54 967.01 999.55 716.98"/><path class="cls-13" d="M1380.32,1239.48c-9.62,0-504.7,170.76-503.46,165.89s0-386.41,0-386.41Z"/><polygon class="cls-14" points="1901.79 819.27 1701.67 619.57 1590.07 986.5 1901.79 819.27"/><polygon class="cls-15" points="2069.2 350.06 1701.67 619.57 2005.7 734.84 2069.2 350.06"/><polygon class="cls-16" points="1590.07 986.5 1988.38 1262.5 2005.7 734.84 1590.07 986.5"/><polygon class="cls-17" points="1196.54 967.01 1590.07 986.5 1293.73 780.3 1196.54 967.01"/><polygon class="cls-18" points="1868.75 1179.6 1380.33 1239.48 1590.07 986.5 1868.75 1179.6"/><polygon class="cls-19" points="1249.52 466.95 1180.91 652.04 1497.7 686.13 1249.52 466.95"/><polygon class="cls-20" points="1530.41 317.58 1576.6 507.54 1249.52 466.95 1530.41 317.58"/><polygon class="cls-21" points="1497.7 686.13 1576.6 507.54 1249.52 466.95 1497.7 686.13"/><polygon class="cls-22" points="1890.25 241.28 1576.6 507.54 1701.67 619.57 1890.25 241.28"/><polygon class="cls-23" points="1196.54 967.01 1461.14 803.03 1180.91 652.04 1196.54 967.01"/><polygon class="cls-24" points="1053.84 1212.22 1196.54 967.01 876.86 1018.97 1053.84 1212.22"/><polygon class="cls-25" points="1461.14 803.03 1590.07 986.5 1196.54 967.01 1461.14 803.03"/><polygon class="cls-26" points="1590.07 986.5 1441.9 1465.45 1868.75 1179.6 1590.07 986.5"/><path class="cls-27" d="M2261.62,827.39s-94.29,397.78-100.06,397.78-173.18,37.34-173.18,37.34Z"/><polygon class="cls-28" points="1461.14 803.03 2005.7 734.84 1497.7 686.13 1461.14 803.03"/><polygon class="cls-29" points="2261.63 827.39 2005.7 734.84 1901.79 819.27 2261.63 827.39"/><polygon class="cls-30" points="2069.2 350.06 2261.63 827.39 2005.7 734.84 2069.2 350.06"/><polyline class="cls-31" points="674.13 174.71 923.17 69.18 1056.15 325.7 1053.12 466.95 1249.52 466.95"/><polygon class="cls-32" points="1441.9 52.94 1339.31 332.19 1681.47 98.4 1441.9 52.94"/><polygon class="cls-33" points="1070.52 69.18 1247.19 2.61 1128.6 241.28 1070.52 69.18"/><polygon class="cls-34" points="263.91 398.99 364.72 439.68 195.88 484.94 263.91 398.99"/><polygon class="cls-35" points="693.37 338.69 866.24 225.04 999.55 338.69 693.37 338.69"/><polygon class="cls-36" points="468.94 85.52 595.05 2.61 692.3 85.52 468.94 85.52"/><polygon class="cls-37" points="356.75 292.52 335.91 175.4 473.47 137.28 356.75 292.52"/><polygon class="cls-38" points="666.43 576.54 847.54 460.46 989.24 553 666.43 576.54"/><polygon class="cls-39" points="814.03 867.98 779.69 719.42 902.45 716.98 814.03 867.98"/><polygon class="cls-40" points="512.49 489.68 495.18 553 566.37 521.34 512.49 489.68"/><polygon class="cls-41" points="307.4 977.09 231.47 987.93 293.47 1031.22 307.4 977.09"/><polygon class="cls-42" points="127.37 338.69 51.43 349.54 113.43 392.83 127.37 338.69"/><polygon class="cls-43" points="418.21 1072.51 502.87 877.72 624.1 1009.89 418.21 1072.51"/><polygon class="cls-44" points="325.87 883.4 3.32 834.42 189.61 677.29 325.87 883.4"/><polyline class="cls-45" points="876.86 1018.97 728.01 858.23 706.84 1040.88 566.37 695.88 443.22 623.63"/><polygon class="cls-46" points="1590.07 986.5 2261.63 827.39 1868.75 1179.6 1590.07 986.5"/><polygon class="cls-47" points="2161.57 1225.16 2017.14 1002.82 1988.38 1262.5 2161.57 1225.16"/><polygon class="cls-48" points="1988.38 1262.5 1775.45 1421.13 1868.75 1179.6 1988.38 1262.5"/><polygon class="cls-49" points="2017.14 1002.82 1714.19 1158.96 1988.38 1262.5 2017.14 1002.82"/><polygon class="cls-50" points="2261.63 827.39 2017.14 1002.82 2161.57 1225.16 2261.63 827.39"/><polygon class="cls-51" points="1339.31 332.19 1530.41 317.58 1510.39 252.85 1339.31 332.19"/><polygon class="cls-52" points="1196.54 967.01 1590.07 986.5 1441.9 1465.45 1196.54 967.01"/><polygon class="cls-53" points="999 717.38 1156.86 817.39 1180.91 652.04 999 717.38"/><polygon class="cls-54" points="999 717.38 1293.73 780.3 1180.91 652.04 999 717.38"/><polygon class="cls-55" points="1462.84 803.29 1901.79 819.27 1745.93 1018.97 1462.84 803.29"/><polygon class="cls-56" points="1714.19 1158.96 1745.93 1018.97 1590.07 986.5 1714.19 1158.96"/><polygon class="cls-57" points="2017.14 1002.82 1745.93 1018.97 1714.19 1158.96 2017.14 1002.82"/><polygon class="cls-58" points="1901.79 819.27 2017.14 1002.82 1745.93 1018.97 1901.79 819.27"/><polygon class="cls-59" points="1530.41 317.58 1738.45 448.16 1890.25 241.28 1530.41 317.58"/><polygon class="cls-60" points="2069.2 350.06 1738.45 448.16 2005.7 734.84 2069.2 350.06"/><polygon class="cls-61" points="1576.6 507.54 1738.45 448.16 1701.67 619.57 1576.6 507.54"/><polygon class="cls-62" points="1196.54 967.01 1053.84 1212.22 1380.33 1239.48 1196.54 967.01"/><polygon class="cls-63" points="876.86 1405.38 1053.84 1212.22 1380.33 1239.48 876.86 1405.38"/><polygon class="cls-64" points="1714.19 1158.96 1380.33 1239.48 1590.07 986.5 1714.19 1158.96"/></g></g></g></g></g></svg>