<svg xmlns="http://www.w3.org/2000/svg" xmlns:xlink="http://www.w3.org/1999/xlink" viewBox="0 0 1473.46 1033.17"><defs><style>.cls-1{fill:#fef;}.cls-2{isolation:isolate;}.cls-3{opacity:0.55;mix-blend-mode:color-dodge;}</style><symbol id="New_Symbol_5" data-name="New Symbol 5" viewBox="0 0 1.85 1.85"><circle class="cls-1" cx="0.93" cy="0.93" r="0.93"/></symbol></defs><title>Asset 41</title><g class="cls-2"><g id="Layer_2" data-name="Layer 2"><g id="BG"><g class="cls-3"><use width="1.85" height="1.85" transform="translate(765.37 614.42) scale(2.56 2.16)" xlink:href="#New_Symbol_5"/><use width="1.85" height="1.85" transform="translate(672.54 617.67) scale(2.56 2.16)" xlink:href="#New_Symbol_5"/><use width="1.85" height="1.85" transform="translate(550.51 652.5) scale(3.67 3.09)" xlink:href="#New_Symbol_5"/><use width="1.85" height="1.85" transform="translate(550.1 677.89) scale(4.04 3.41)" xlink:href="#New_Symbol_5"/><use width="1.85" height="1.85" transform="translate(627.76 701.91) scale(2.56 2.16)" xlink:href="#New_Symbol_5"/><use width="1.85" height="1.85" transform="translate(798.4 747.7) scale(2.56 2.16)" xlink:href="#New_Symbol_5"/><use width="1.85" height="1.85" transform="translate(908.25 810.82) scale(2.56 2.16)" xlink:href="#New_Symbol_5"/><use width="1.85" height="1.85" transform="translate(951.84 902.37) scale(2.56 2.16)" xlink:href="#New_Symbol_5"/><use width="1.85" height="1.85" transform="translate(782.06 942.28) scale(2.56 2.16)" xlink:href="#New_Symbol_5"/><use width="1.85" height="1.85" transform="translate(553.78 944.99) scale(2.56 2.16)" xlink:href="#New_Symbol_5"/><use width="1.85" height="1.85" transform="translate(534.6 951.62) scale(2.56 2.16)" xlink:href="#New_Symbol_5"/><use width="1.85" height="1.85" transform="translate(566.85 925.83) scale(2.56 2.16)" xlink:href="#New_Symbol_5"/><use width="1.85" height="1.85" transform="translate(728.56 799.44) scale(3.82 3.23)" xlink:href="#New_Symbol_5"/><use width="1.85" height="1.85" transform="translate(847.66 835.49) scale(2.56 2.16)" xlink:href="#New_Symbol_5"/><use width="1.85" height="1.85" transform="translate(1069.22 831.87) scale(5.86 4.94)" xlink:href="#New_Symbol_5"/><use width="1.85" height="1.85" transform="translate(1291.25 813.61) scale(2.56 2.16)" xlink:href="#New_Symbol_5"/><use width="1.85" height="1.85" transform="translate(1460.49 658.19) scale(2.56 2.16)" xlink:href="#New_Symbol_5"/><use width="1.85" height="1.85" transform="translate(1385.01 620.49) scale(2.56 2.16)" xlink:href="#New_Symbol_5"/><use width="1.85" height="1.85" transform="translate(1385.78 550.9) scale(2.56 2.16)" xlink:href="#New_Symbol_5"/><use width="1.85" height="1.85" transform="translate(1268.23 565.54) scale(5.22 4.4)" xlink:href="#New_Symbol_5"/><use width="1.85" height="1.85" transform="translate(1266 582.38) scale(7.59 6.4)" xlink:href="#New_Symbol_5"/><use width="1.85" height="1.85" transform="translate(1187.35 581.67) scale(2.56 2.16)" xlink:href="#New_Symbol_5"/><use width="1.85" height="1.85" transform="translate(1125.39 490.38) scale(2.56 2.16)" xlink:href="#New_Symbol_5"/><use width="1.85" height="1.85" transform="translate(1026.33 410.33) scale(2.56 2.16)" xlink:href="#New_Symbol_5"/><use width="1.85" height="1.85" transform="translate(917.69 378.76) scale(2.56 2.16)" xlink:href="#New_Symbol_5"/><use width="1.85" height="1.85" transform="translate(867.37 351.84) scale(2.56 2.16)" xlink:href="#New_Symbol_5"/><use width="1.85" height="1.85" transform="translate(541.15 438.7) scale(2.56 2.16)" xlink:href="#New_Symbol_5"/><use width="1.85" height="1.85" transform="translate(414.34 406.9) scale(2.56 2.16)" xlink:href="#New_Symbol_5"/><use width="1.85" height="1.85" transform="translate(596.71 258.85) scale(2.56 2.16)" xlink:href="#New_Symbol_5"/><use width="1.85" height="1.85" transform="translate(867.91 226.56) scale(2.56 2.16)" xlink:href="#New_Symbol_5"/><use width="1.85" height="1.85" transform="translate(1000.04 213.96) scale(2.56 2.16)" xlink:href="#New_Symbol_5"/><use width="1.85" height="1.85" transform="translate(1060.79 204.72) scale(2.56 2.16)" xlink:href="#New_Symbol_5"/><use width="1.85" height="1.85" transform="translate(1310.97 118.64) scale(2.56 2.16)" xlink:href="#New_Symbol_5"/><use width="1.85" height="1.85" transform="translate(1277.96 195.86) scale(2.56 2.16)" xlink:href="#New_Symbol_5"/><use width="1.85" height="1.85" transform="translate(1035.31 293.43) scale(2.56 2.16)" xlink:href="#New_Symbol_5"/><use width="1.85" height="1.85" transform="translate(641.72 374.3) scale(2.56 2.16)" xlink:href="#New_Symbol_5"/><use width="1.85" height="1.85" transform="translate(673.45 450.75) scale(2.56 2.16)" xlink:href="#New_Symbol_5"/><use width="1.85" height="1.85" transform="translate(602.4 495.54) scale(6.32 5.33)" xlink:href="#New_Symbol_5"/><use width="1.85" height="1.85" transform="translate(415.8 552.05) scale(2.56 2.16)" xlink:href="#New_Symbol_5"/><use width="1.85" height="1.85" transform="translate(205.58 568.57) scale(2.56 2.16)" xlink:href="#New_Symbol_5"/><use width="1.85" height="1.85" transform="translate(111.67 656.22) scale(4.38 3.69)" xlink:href="#New_Symbol_5"/><use width="1.85" height="1.85" transform="translate(107.14 690.78) scale(4.97 4.19)" xlink:href="#New_Symbol_5"/><use width="1.85" height="1.85" transform="translate(44.59 748.13) scale(2.56 2.16)" xlink:href="#New_Symbol_5"/><use width="1.85" height="1.85" transform="translate(0 844.11) scale(2.56 2.16)" xlink:href="#New_Symbol_5"/><use width="1.85" height="1.85" transform="translate(25.67 810.57) scale(2.56 2.16)" xlink:href="#New_Symbol_5"/><use width="1.85" height="1.85" transform="translate(11.71 827.6) scale(2.56 2.16)" xlink:href="#New_Symbol_5"/><use width="1.85" height="1.85" transform="translate(70.56 835.2) scale(2.56 2.16)" xlink:href="#New_Symbol_5"/><use width="1.85" height="1.85" transform="translate(46.82 787.73) scale(2.56 2.16)" xlink:href="#New_Symbol_5"/><use width="1.85" height="1.85" transform="translate(31.09 779.57) scale(2.56 2.16)" xlink:href="#New_Symbol_5"/><use width="1.85" height="1.85" transform="translate(279.47 950.91) scale(2.56 2.16)" xlink:href="#New_Symbol_5"/><use width="1.85" height="1.85" transform="translate(368.68 983.55) scale(3.89 3.28)" xlink:href="#New_Symbol_5"/><use width="1.85" height="1.85" transform="translate(414.28 1000.12) scale(3.25 2.74)" xlink:href="#New_Symbol_5"/><use width="1.85" height="1.85" transform="translate(402.97 912.92) scale(7.06 5.96)" xlink:href="#New_Symbol_5"/><use width="1.85" height="1.85" transform="translate(392.13 867.19) scale(2.56 2.16)" xlink:href="#New_Symbol_5"/><use width="1.85" height="1.85" transform="translate(450.67 893.26) scale(4.79 4.04)" xlink:href="#New_Symbol_5"/><use width="1.85" height="1.85" transform="translate(603.11 976.43) scale(2.56 2.16)" xlink:href="#New_Symbol_5"/><use width="1.85" height="1.85" transform="translate(358.44 995.59) scale(2.57 2.16)" xlink:href="#New_Symbol_5"/><use width="1.85" height="1.85" transform="translate(219.73 1020.5) scale(3.6 3.04)" xlink:href="#New_Symbol_5"/><use width="1.85" height="1.85" transform="translate(184.02 1003.33) scale(2.56 2.16)" xlink:href="#New_Symbol_5"/><use width="1.85" height="1.85" transform="translate(126.97 1012.89) scale(5.08 4.28)" xlink:href="#New_Symbol_5"/><use width="1.85" height="1.85" transform="translate(502.3 1000.63) scale(2.56 2.16)" xlink:href="#New_Symbol_5"/><use width="1.85" height="1.85" transform="translate(590.97 989.73) scale(2.56 2.16)" xlink:href="#New_Symbol_5"/><use width="1.85" height="1.85" transform="translate(715.75 1025.91) scale(2.56 2.16)" xlink:href="#New_Symbol_5"/><use width="1.85" height="1.85" transform="translate(834.52 967.4) scale(2.56 2.16)" xlink:href="#New_Symbol_5"/><use width="1.85" height="1.85" transform="translate(831.39 1001.43) scale(2.56 2.16)" xlink:href="#New_Symbol_5"/><use width="1.85" height="1.85" transform="translate(791.42 961.16) scale(2.56 2.16)" xlink:href="#New_Symbol_5"/><use width="1.85" height="1.85" transform="translate(797.1 986.85) scale(2.56 2.16)" xlink:href="#New_Symbol_5"/><use width="1.85" height="1.85" transform="translate(896.09 990.33) scale(2.56 2.16)" xlink:href="#New_Symbol_5"/><use width="1.85" height="1.85" transform="translate(1237.49 1027) scale(2.56 2.16)" xlink:href="#New_Symbol_5"/><use width="1.85" height="1.85" transform="translate(1288.84 1024.72) scale(2.56 2.16)" xlink:href="#New_Symbol_5"/><use width="1.85" height="1.85" transform="translate(1382.85 1029.17) scale(2.56 2.16)" xlink:href="#New_Symbol_5"/><use width="1.85" height="1.85" transform="translate(1241.01 959.81) scale(2.56 2.16)" xlink:href="#New_Symbol_5"/><use width="1.85" height="1.85" transform="translate(1038.6 645.3) scale(2.56 2.16)" xlink:href="#New_Symbol_5"/><use width="1.85" height="1.85" transform="translate(982.63 693.88) scale(2.56 2.16)" xlink:href="#New_Symbol_5"/><use width="1.85" height="1.85" transform="translate(961.41 569.97) scale(2.56 2.16)" xlink:href="#New_Symbol_5"/><use width="1.85" height="1.85" transform="translate(970.83 541) scale(2.56 2.16)" xlink:href="#New_Symbol_5"/><use width="1.85" height="1.85" transform="translate(922.47 534.34) scale(2.56 2.16)" xlink:href="#New_Symbol_5"/><use width="1.85" height="1.85" transform="translate(1182.65 317.57) scale(8.55 7.21)" xlink:href="#New_Symbol_5"/><use width="1.85" height="1.85" transform="translate(1179.98 270.22) scale(2.93 2.47)" xlink:href="#New_Symbol_5"/><use width="1.85" height="1.85" transform="translate(1208.27 273.89) scale(2.7 2.28)" xlink:href="#New_Symbol_5"/><use width="1.85" height="1.85" transform="translate(1271.58 255.42) scale(3.07 2.59)" xlink:href="#New_Symbol_5"/><use width="1.85" height="1.85" transform="translate(1267.74 241.55) scale(2.56 2.16)" xlink:href="#New_Symbol_5"/><use width="1.85" height="1.85" transform="translate(1247.68 233.44) scale(2.56 2.16)" xlink:href="#New_Symbol_5"/><use width="1.85" height="1.85" transform="translate(1245.53 243.21) scale(2.56 2.16)" xlink:href="#New_Symbol_5"/><use width="1.85" height="1.85" transform="translate(1284.5 363.05) scale(2.56 2.16)" xlink:href="#New_Symbol_5"/><use width="1.85" height="1.85" transform="translate(1331.39 424.88) scale(2.56 2.16)" xlink:href="#New_Symbol_5"/><use width="1.85" height="1.85" transform="translate(1468.71 419.29) scale(2.56 2.16)" xlink:href="#New_Symbol_5"/><use width="1.85" height="1.85" transform="translate(600.95 287.47) scale(2.56 2.16)" xlink:href="#New_Symbol_5"/><use width="1.85" height="1.85" transform="translate(408.87 207.53) scale(7.4 6.25)" xlink:href="#New_Symbol_5"/><use width="1.85" height="1.85" transform="translate(356.96 175.66) scale(3.9 3.29)" xlink:href="#New_Symbol_5"/><use width="1.85" height="1.85" transform="translate(281.32 196.16) scale(2.56 2.16)" xlink:href="#New_Symbol_5"/><use width="1.85" height="1.85" transform="translate(246.77 143.22) scale(2.56 2.16)" xlink:href="#New_Symbol_5"/><use width="1.85" height="1.85" transform="translate(301.82 111.64) scale(2.56 2.16)" xlink:href="#New_Symbol_5"/><use width="1.85" height="1.85" transform="translate(198.99 108.12) scale(2.56 2.16)" xlink:href="#New_Symbol_5"/><use width="1.85" height="1.85" transform="translate(188.76 62.84) scale(2.56 2.16)" xlink:href="#New_Symbol_5"/><use width="1.85" height="1.85" transform="translate(184.91 116.95) scale(2.56 2.16)" xlink:href="#New_Symbol_5"/><use width="1.85" height="1.85" transform="translate(265.85 304.57) scale(2.56 2.16)" xlink:href="#New_Symbol_5"/><use width="1.85" height="1.85" transform="translate(217.15 272.48) scale(2.56 2.16)" xlink:href="#New_Symbol_5"/><use width="1.85" height="1.85" transform="translate(110.77 219.58) scale(2.56 2.16)" xlink:href="#New_Symbol_5"/><use width="1.85" height="1.85" transform="translate(140.27 257.36) scale(2.56 2.16)" xlink:href="#New_Symbol_5"/><use width="1.85" height="1.85" transform="translate(190.1 346.37) scale(2.56 2.16)" xlink:href="#New_Symbol_5"/><use width="1.85" height="1.85" transform="translate(17.98 383.21) scale(2.56 2.16)" xlink:href="#New_Symbol_5"/><use width="1.85" height="1.85" transform="translate(615.79 89.96) scale(2.56 2.16)" xlink:href="#New_Symbol_5"/><use width="1.85" height="1.85" transform="translate(621.4 29.6) scale(2.56 2.16)" xlink:href="#New_Symbol_5"/><use width="1.85" height="1.85" transform="translate(607.19 9.36) scale(2.56 2.16)" xlink:href="#New_Symbol_5"/><use width="1.85" height="1.85" transform="translate(556.14) scale(2.56 2.16)" xlink:href="#New_Symbol_5"/></g></g></g></g></svg>