<svg xmlns="http://www.w3.org/2000/svg" viewBox="0 0 1180.93 292.78"><defs><style>.cls-1{fill:#ff9000;}.cls-2{fill:#fff;}</style></defs><title>diopentrip</title><g id="Layer_2" data-name="Layer 2"><g id="v1"><path class="cls-1" d="M851.62,215.19a41.39,41.39,0,0,1-2.38-11.62q-.42-6.3-.42-12.46v-131h1.68a11.23,11.23,0,0,0,1.54-.14,13,13,0,0,1,1.82-.14A22.49,22.49,0,0,1,867,63.69q5.6,3.9,5.6,14.18v22.25h41.72v20.44H872.62v72.24q0,23,18.2,23a22.75,22.75,0,0,0,8.4-1.54,35.17,35.17,0,0,0,7-3.64,43.62,43.62,0,0,0,5.18-4.06,20.46,20.46,0,0,0,2.66-2.8,77.85,77.85,0,0,1,5.74,8.12,14.63,14.63,0,0,1,2.38,7.56q0,2.52-2.52,5.46a25.76,25.76,0,0,1-7,5.46,45.73,45.73,0,0,1-11.06,4.2,58.25,58.25,0,0,1-14.42,1.68q-14.56,0-23.24-5.6A30.43,30.43,0,0,1,851.62,215.19Z"/><path class="cls-2" d="M935.77,99.55a21.6,21.6,0,0,1,11.62,3.22q5.18,3.22,6.3,10.78a41,41,0,0,1,11.76-11.06,32.25,32.25,0,0,1,18.2-5.18,42,42,0,0,1,6.58.56,29.93,29.93,0,0,1,6.58,1.82,13.24,13.24,0,0,1,5,3.5,8.63,8.63,0,0,1,2,5.88,24.47,24.47,0,0,1-2.24,9.66,55,55,0,0,1-4.48,8.54,28,28,0,0,0-7.84-5.18A28.22,28.22,0,0,0,961.81,126a21.5,21.5,0,0,0-5.32,6,13.69,13.69,0,0,0-2,7v93h-23.8V99.83h2a10,10,0,0,0,1.68-.14A9,9,0,0,1,935.77,99.55Z"/><path class="cls-2" d="M1041.61,57.27a15.12,15.12,0,1,1-30.24,0,15.81,15.81,0,0,1,4.34-11.48,15.21,15.21,0,0,1,21.56,0A15.83,15.83,0,0,1,1041.61,57.27Zm-26,41.72h1.68a11.23,11.23,0,0,0,1.54-.14,13.14,13.14,0,0,1,1.82-.14,21.69,21.69,0,0,1,13.3,4.06q5.46,4.06,5.46,14.7v89.32q0,8.12,2.38,11.48t11.06,3.36v10.08a38.09,38.09,0,0,1-6.86,1.4,67,67,0,0,1-8.54.56q-8.13,0-12.46-2.52a15.91,15.91,0,0,1-6.44-6.72,25.34,25.34,0,0,1-2.52-9.38q-.42-5.18-.42-10.22Z"/><path class="cls-2" d="M1070.33,99.77a21.4,21.4,0,0,1,11.62,3.08q4.9,3.08,6.58,10.36A43.5,43.5,0,0,1,1103.37,102q9.52-4.69,23.8-4.69a57.94,57.94,0,0,1,20.58,3.64,44.63,44.63,0,0,1,17.08,11.62q7.42,8,11.76,20.72t4.34,31.22q0,21-5.18,34.86t-13.44,22A47.38,47.38,0,0,1,1144,232.83a61.82,61.82,0,0,1-19.6,3.36q-15.12,0-23.8-5.18t-11.76-9.38v70.84H1065V100.05h1.68a10,10,0,0,0,1.68-.14A12.21,12.21,0,0,1,1070.33,99.77Zm85.12,66.28a95.11,95.11,0,0,0-1.82-19,45.62,45.62,0,0,0-5.88-15.36,29.48,29.48,0,0,0-10.92-10.19q-6.86-3.77-16.94-3.77-13.44,0-22.26,5.59t-8.82,13.4V200.4a39.93,39.93,0,0,0,4.48,4.89,33,33,0,0,0,6.86,4.89,52.78,52.78,0,0,0,9.24,3.91,35.63,35.63,0,0,0,11.06,1.68q17.36,0,26.18-12.84T1155.45,166.05Z"/><path class="cls-2" d="M312.63,27a122.66,122.66,0,0,0-72.31,221.76A276.33,276.33,0,0,1,243,220.67c.2-1.33.4-2.63.62-3.92a96.11,96.11,0,1,1,32.55,22c-.42,8.24-.55,15.66-.66,21.72,0,2.26-.08,4.28-.12,6.07A122.69,122.69,0,1,0,312.63,27Z"/><path class="cls-2" d="M270.06,281.61c-3.22-1.5-6.75-5.15-9.93-8.21a1.51,1.51,0,0,0-1.91.19c-2.59,2.87-6.57,7.41-9.89,9.83-1.65,1.2,2.12,6.67,3.52,5.82,3.51-2.12,5.65-5.3,7.78-7.61,1.86,2.11,4.67,4.94,7.25,5.92C268.73,288.27,271.86,282.45,270.06,281.61Z"/><path class="cls-2" d="M278.92,179.54c-.48-2.75-10-1.06-13.85-3.52a7.06,7.06,0,0,0-3.53-1.36,2.3,2.3,0,0,0-2.17,1.46,238.75,238.75,0,0,0-11.15,45.32c-4.08,27.48-3.27,54.3-.95,55.78a1.06,1.06,0,0,0,.58.16c2.76,0,9.08-9.84,11.46-9.84h0c1.9,0,8.09,7.38,9.66,7.38l.16,0c1.79-.63.2-25,3-53.61C275,192.87,279.1,180.58,278.92,179.54Z"/><path class="cls-2" d="M257.15,175.54c-12.52-6.38-18.58-13.53-22.06-15-6.63-2.88-7.42,14.69-4.05,20.24.69,1.14-3.2,3.2-1.36,6.16,1,1.59,7.83,7.29,20.43,12.75A208.71,208.71,0,0,1,257.15,175.54Z"/><path class="cls-2" d="M392,160.57c-5.73,3.8-29.44,25.09-81.83,25.66a137.66,137.66,0,0,1-29.68-2.66c-1,4.09-2.71,11.86-4.38,24.13A169.44,169.44,0,0,0,310.12,211c51.48,0,80.84-22.43,86.14-25.87S397.69,156.77,392,160.57Z"/><path class="cls-2" d="M101.36,231.74a9.5,9.5,0,0,1-7.56-3.22,12.12,12.12,0,0,1-2.8-8.26q-3.92,4.77-13.3,9.8t-23.94,5a60.5,60.5,0,0,1-20-3.36,43.64,43.64,0,0,1-17.22-11.2Q9,212.7,4.48,199.68T0,167.34q0-19.32,4.62-33T16.94,112a48.1,48.1,0,0,1,17.64-12.6,54.68,54.68,0,0,1,20.86-4.06q12.6,0,20.72,4.34t12,8.54V34.34c0-.18,1.4-.42,4.2-.7s5.69-.42,8.68-.42a50.77,50.77,0,0,1,9.1.84,19.75,19.75,0,0,1,8.12,3.36A19.06,19.06,0,0,1,124,44.28q2.24,4.34,2.24,11.34V231.74ZM39.2,165.38a103,103,0,0,0,1.4,17.78,39.44,39.44,0,0,0,4.76,13.58,23.47,23.47,0,0,0,9,8.68q5.6,3.08,14.28,3.08a27,27,0,0,0,13.86-3.36q5.73-3.36,5.74-9.52v-63a37.78,37.78,0,0,0-7.7-5.32,25.52,25.52,0,0,0-12.74-3.08q-14.56,0-21.56,10.64T39.2,165.38Z"/><path class="cls-2" d="M179.48,54.5q0,9-6,14.56a21.55,21.55,0,0,1-29,0q-5.88-5.6-5.88-14.56a19.66,19.66,0,0,1,5.88-14.7,21.16,21.16,0,0,1,29,0A19.43,19.43,0,0,1,179.48,54.5Zm-.28,178.92a16.67,16.67,0,0,1-5,.84q-3.92.28-8.4.28a47.42,47.42,0,0,1-10.08-1,17.85,17.85,0,0,1-7.7-3.64,17.61,17.61,0,0,1-5-7.14,30.73,30.73,0,0,1-1.82-11.48V99.3c0-.18,1.4-.42,4.2-.7s5.69-.42,8.68-.42a48.51,48.51,0,0,1,9,.84,22.19,22.19,0,0,1,8.12,3.22A17.35,17.35,0,0,1,177,109q2.24,4.34,2.24,11.34Z"/><path class="cls-2" d="M485.28,111.62q4.46-5.32,14-10.78t24-5.46a55.72,55.72,0,0,1,19.68,3.5,43.11,43.11,0,0,1,16.61,11.34q7.26,7.84,11.59,20.72t4.33,31.64q0,21.84-5,36t-13,22.4a44.7,44.7,0,0,1-17.72,11.62,59.77,59.77,0,0,1-19.54,3.36,48.81,48.81,0,0,1-14.1-1.82,56.45,56.45,0,0,1-10.19-4.06,27.11,27.11,0,0,1-6.42-4.48,26.78,26.78,0,0,1-2.79-3.08v70.28H448.6V99.3Q450,99,452,98.74q1.69-.28,4-.42t5.36-.14a36.67,36.67,0,0,1,15.8,3.08A14.49,14.49,0,0,1,485.28,111.62Zm50.4,51.8a83.55,83.55,0,0,0-1.39-15.68,38.11,38.11,0,0,0-4.59-12.6,22.33,22.33,0,0,0-8.63-8.26,27.45,27.45,0,0,0-13.22-2.94q-11.7,0-16.29,4.48t-4.59,9.8v59.36a35.53,35.53,0,0,0,7.93,5.32A27.4,27.4,0,0,0,508.12,206q14.2,0,20.88-11.2T535.68,163.42Z"/><path class="cls-2" d="M657.2,207.94a44.7,44.7,0,0,0,12.36-1.54,49.24,49.24,0,0,0,9.55-3.78,39.64,39.64,0,0,0,7.31-4.9q3.09-2.66,5.62-4.9a78,78,0,0,1,7,10.78q3.65,6.58,3.65,10.78,0,6.16-7,11.2-5.88,4.48-16.66,7.7a89.09,89.09,0,0,1-25.34,3.22,101.15,101.15,0,0,1-25.9-3.36,57.3,57.3,0,0,1-22.68-11.76q-9.94-8.4-16.1-22.54t-6.16-35.7q0-17.64,5.46-30.38a61,61,0,0,1,14.56-21.14A57.41,57.41,0,0,1,623.48,99.3,72.35,72.35,0,0,1,647,95.38q15.68,0,26.6,4.9a48.5,48.5,0,0,1,17.78,13.16,51.84,51.84,0,0,1,9.94,18.9,80.25,80.25,0,0,1,3.08,22.4v3.92q0,2.24-.14,4.76t-.28,4.9a29.74,29.74,0,0,1-.42,3.78H621q1.12,15.4,9.55,25.62T657.2,207.94ZM670,151.1q0-13.44-5.21-21.84T646,120.86q-11.55,0-18.45,8t-6.9,22.26Z"/><path class="cls-2" d="M753.27,231.74H715.19V99.3q1.39-.28,3.33-.56,1.67-.28,3.89-.42t5.28-.14a34.54,34.54,0,0,1,15.42,3.22q6.53,3.22,8.2,11.34,4.78-6.44,14.75-11.9t26.55-5.46q19.94,0,29.5,7.84a35.82,35.82,0,0,1,12.36,20.72,89,89,0,0,1,1.82,14q.42,7.56.42,14.84v79H798.63V154.46q0-6.16-.42-11.48a25.41,25.41,0,0,0-2.25-9.1A12.87,12.87,0,0,0,790,128q-4.09-2.1-11.41-2.1-10.43,0-17.89,4.34T753.27,141Z"/><path class="cls-1" d="M903.71,73.83c.32-14.94,11.16-26.67,22.88-34.7,16.84-11.53,36.82-17.94,56.72-21.74,44-8.39,96.55-5.29,135.93,17.93,14,8.26,28.53,21,28.9,38.51.18,8.49,13.39,8.52,13.21,0-.91-42.46-53.57-62.14-88-68.92-49-9.65-108.85-6.43-151.76,21.7-16.44,10.77-30.65,26.63-31.09,47.22-.18,8.51,13,8.5,13.21,0Z"/></g></g></svg>