<svg xmlns="http://www.w3.org/2000/svg" viewBox="0 0 728.73 779.14"><defs><style>.cls-1{fill:#0cc;}</style></defs><title>Asset 2</title><g id="Layer_2" data-name="Layer 2"><g id="Layer_1-2" data-name="Layer 1"><path class="cls-1" d="M364.36,0C163.13,0,0,163.13,0,364.36c0,120.91,58.94,228,149.6,294.28a820.73,820.73,0,0,1,8-83.42c.58-3.94,1.2-7.81,1.83-11.64A285,285,0,0,1,78.33,364.36c0-157.72,128.31-286,286-286s286,128.31,286,286-128.31,286-286,286A284.4,284.4,0,0,1,256.08,629c-1.24,24.46-1.64,46.52-2,64.51-.12,6.73-.23,12.72-.37,18a364,364,0,0,0,110.62,17.15c201.23,0,364.36-163.13,364.36-364.36S565.6,0,364.36,0Z"/><path class="cls-1" d="M237.91,756.21c-9.55-4.46-20-15.29-29.51-24.39-1.4-1.34-4.43-.82-5.69.57-7.69,8.53-19.51,22-29.37,29.2-4.89,3.56,6.29,19.8,10.45,17.28,10.43-6.3,16.77-15.74,23.1-22.59,5.53,6.28,13.88,14.67,21.54,17.59C234,776,243.28,758.72,237.91,756.21Z"/><path class="cls-1" d="M264.24,453.06c-1.41-8.16-29.7-3.14-41.12-10.44-4.1-2.62-7.62-4-10.48-4s-5,1.38-6.45,4.34c-.71,1.46-21.81,58.43-33.12,134.61C161,659.15,163.35,738.8,170.26,743.2a3.14,3.14,0,0,0,1.72.47c8.19,0,27-29.23,34-29.23h0c5.65.08,24,21.91,28.69,21.91a1.38,1.38,0,0,0,.46-.07c5.32-1.88.6-74.31,9-159.23C252.49,492.66,264.78,456.15,264.24,453.06Z"/><path class="cls-1" d="M199.57,441.17c-37.18-19-55.19-40.19-65.52-44.67-19.7-8.55-22,43.62-12,60.12,2,3.38-9.52,9.51-4,18.31,2.94,4.73,23.24,21.65,60.68,37.86C187.7,474.53,197.06,447.49,199.57,441.17Z"/><path class="cls-1" d="M600,396.72c-17,11.3-87.44,74.53-243,76.2-34.38.37-63.47-2.75-88.16-7.9-2.82,12.14-8,35.23-13,71.68a503.26,503.26,0,0,0,101.18,9.86c152.91,0,240.09-66.63,255.84-76.84S617,385.42,600,396.72Z"/></g></g></svg>