<svg xmlns="http://www.w3.org/2000/svg" viewBox="0 0 377.37 403.52"><defs><style>.cls-1{fill:#fff;}</style></defs><title>Asset 1</title><g id="Layer_2" data-name="Layer 2"><g id="Layer_1-2" data-name="Layer 1"><path class="cls-1" d="M188.68,0C84.47,0,0,84.48,0,188.68A188.39,188.39,0,0,0,77.47,341.07a425,425,0,0,1,4.13-43.2q.45-3,1-6a147.59,147.59,0,0,1-42-103.17C40.55,107,107,40.58,188.67,40.58S336.79,107,336.79,188.7,270.35,336.81,188.68,336.81a147.28,147.28,0,0,1-56.08-11.07c-.64,12.67-.85,24.09-1,33.41q-.09,5.22-.19,9.33a188.52,188.52,0,0,0,57.28,8.88c104.21,0,188.68-84.48,188.68-188.68S292.89,0,188.68,0Z"/><path class="cls-1" d="M123.2,391.6c-5-2.31-10.37-7.92-15.28-12.63a2.32,2.32,0,0,0-2.94.3c-4,4.42-10.1,11.4-15.21,15.12-2.53,1.84,3.26,10.25,5.41,9,5.4-3.26,8.69-8.15,12-11.7,2.86,3.25,7.19,7.6,11.16,9.11C121.12,401.84,126,392.9,123.2,391.6Z"/><path class="cls-1" d="M136.83,234.62c-.73-4.23-15.38-1.62-21.3-5.41a10.85,10.85,0,0,0-5.43-2.09,3.54,3.54,0,0,0-3.34,2.25c-.37.76-11.3,30.26-17.15,69.71-6.27,42.27-5,83.51-1.46,85.79a1.63,1.63,0,0,0,.89.24c4.24,0,14-15.14,17.62-15.14h0c2.93,0,12.44,11.35,14.86,11.35a.71.71,0,0,0,.24,0c2.76-1,.31-38.48,4.65-82.46C130.75,255.12,137.12,236.22,136.83,234.62Z"/><path class="cls-1" d="M103.34,228.46c-19.25-9.82-28.58-20.81-33.93-23.13-10.2-4.43-11.41,22.59-6.23,31.13,1.06,1.75-4.93,4.92-2.09,9.48,1.52,2.45,12,11.21,31.42,19.61A321,321,0,0,1,103.34,228.46Z"/><path class="cls-1" d="M310.68,205.44c-8.82,5.85-45.28,38.59-125.86,39.46a211.72,211.72,0,0,1-45.7-4.09c-1.46,6.29-4.17,18.24-6.74,37.12a260.61,260.61,0,0,0,52.4,5.11c79.18,0,124.33-34.5,132.48-39.79S319.5,199.59,310.68,205.44Z"/></g></g></svg>