<svg xmlns="http://www.w3.org/2000/svg" viewBox="0 0 448.75 384.09"><defs><style>.cls-1{isolation:isolate;}.cls-2{fill:#edfff5;}.cls-3{fill:#b9ffed;}.cls-4,.cls-6{fill:#fffff5;}.cls-5{fill:#6de4d8;}.cls-6{fill-rule:evenodd;}.cls-15,.cls-7{fill:#143c75;}.cls-8{fill:#31599b;}.cls-9{fill:#0aa;}.cls-10{fill:#099;}.cls-11{fill:#fff;}.cls-12{fill:#ffa683;}.cls-13{fill:#04a39f;}.cls-14{fill:#06cccc;}.cls-15{opacity:0.34;mix-blend-mode:multiply;}.cls-16{fill:#ff9000;}.cls-17{fill:#b76400;}.cls-18{fill:#65bcfc;}.cls-19{fill:#49b4d6;}.cls-20{fill:#ffbf00;}.cls-21{fill:#ff9700;}</style></defs><title>enjoy22</title><g class="cls-1"><g id="Layer_2" data-name="Layer 2"><g id="OBJECTS"><path class="cls-2" d="M410.51,379.12H38.24a2.5,2.5,0,0,0-2.49,2.49h0a2.5,2.5,0,0,0,2.49,2.49H410.51A2.5,2.5,0,0,0,413,381.6h0A2.5,2.5,0,0,0,410.51,379.12Z"/><path class="cls-2" d="M390.13,320.64H51.44A51.46,51.46,0,0,1,1.07,279.8c-.3-1.43-.54-2.88-.71-4.35S.07,272.5,0,271a50.24,50.24,0,0,1,.37-7.81c.08-.67.17-1.34.28-2,.24-1.49.49-3,.76-4.49,3.87-22.26,9.92-45.4,19.27-63.39a88.66,88.66,0,0,1,10.11-15.59c8.44-10.22,18.82-16.67,31.58-17C140.49,158.48,40.77,32.28,152,43.31c41.22,4.09,68.8-4,90-14.28C278.06,11.62,295.85-12,331.11,7.13a59.11,59.11,0,0,1,21.17,18.61h0c13.45,19.64,12,44.59,17.49,65.3,3.95,15.05,11.53,27.86,31.06,34.78,2,.69,3.76,1.42,5.42,2.18,45.68,20.88-20.32,65.4,31.94,123C462.37,277.63,444.43,320.64,390.13,320.64Z"/><polygon class="cls-3" points="209.13 119.39 218.55 101.98 212.55 101.98 212.93 100.03 212.93 100.03 213.7 96.14 197.12 96.14 197.12 91.37 202.09 83.94 197.12 81.53 188.72 81.53 188.72 56.94 185.65 56.94 185.65 81.53 177.21 81.53 172.24 83.94 177.21 91.37 177.21 96.14 160.09 96.14 160.85 100.03 160.85 100.03 161.24 101.98 155.13 101.98 164.72 119.69 164.72 119.69 165.34 122.87 165.34 122.87 166 126.19 181.31 126.19 181.31 133.22 181.31 253.92 192.48 253.92 192.48 133.22 192.48 133.22 192.48 126.19 207.79 126.19 208.44 122.87 208.44 122.87 209.13 119.39"/><rect class="cls-3" x="229.76" y="163.07" width="174.19" height="90.63"/><polygon class="cls-4" points="403.67 163.07 229.76 163.07 229.76 253.7 313.04 253.7 403.67 163.07"/><rect class="cls-5" x="236.6" y="187.56" width="36.83" height="20.64"/><rect class="cls-5" x="276.91" y="187.56" width="36.83" height="20.64"/><rect class="cls-5" x="319.18" y="187.56" width="36.83" height="20.64"/><rect class="cls-5" x="359.49" y="187.56" width="36.83" height="20.64"/><path class="cls-5" d="M7,253.7a29.35,29.35,0,0,1,45.78-6.45A37.16,37.16,0,0,1,92,235.65a41.69,41.69,0,0,1,64.66-11.91,44.5,44.5,0,0,1,57.63,12.8,44.51,44.51,0,0,1,50.66,17.16Z"/><path class="cls-4" d="M2,253.7q-.69,3.76-1.29,7.49c-5.06,31.19,19.18,59.45,50.78,59.45H390.13c52.49,0,71-40.19,50.33-66.94Z"/><path class="cls-2" d="M19.4,309.44a51.16,51.16,0,0,0,32,11.2H390.13c17.32,0,30.93-4.38,40.67-11.2Z"/><path class="cls-4" d="M448.4,282c.11-.81.19-1.62.25-2.44C448.6,280.38,448.52,281.19,448.4,282Z"/><path class="cls-2" d="M72.92,56.59A24.75,24.75,0,0,1,84.11,74.64c2.91,23.69,7.83,97.11-47.81,70.3C-23.22,116.27,38.27,34.9,72.92,56.59Z"/><path class="cls-2" d="M133.52,26s62,24.41,97.63-6.83S113,17.49,133.52,26Z"/><path class="cls-2" d="M377,73.86s-4.87,47.34,39.82,42.47S377.41,47.32,377,73.86Z"/><path class="cls-5" d="M350,67.1h0c-1.16-3-10.38-2.13-13.69-.84l-11.74,4.65-26.16-17.4-5.26,3.24,17.18,19.8c-10.42,4.13-20,7.95-20.19,8l-6.93-5.64-4.69,1.57,7.14,13.58,0,0a6.38,6.38,0,0,0,7.16,1.52L346.12,74.8C349.42,73.51,351.16,70.07,350,67.1Z"/><path class="cls-5" d="M438.19,251c-9.65-10.63-15.25-20.81-18.28-30.48a38.85,38.85,0,0,0-5.8,13.77,34.35,34.35,0,0,0-12.35,3.15,28.33,28.33,0,0,0-48.95,2.23,25.23,25.23,0,0,0-26.62,7.87,19.94,19.94,0,0,0-32,6.17H440.47Q439.4,252.31,438.19,251Z"/><path class="cls-4" d="M128.6,275.45H.36a50.23,50.23,0,0,1,0-12.25c.08-.67.17-1.34.28-2,3.83-23.6,10-48.68,20-67.88a88.66,88.66,0,0,1,10.11-15.59H98.44A77.82,77.82,0,0,1,122,181.35c25.63,8.08,64.87,23.43,74.36,43.86a17.85,17.85,0,0,1,.9,2.2,20.3,20.3,0,0,1,.7,2.35c.05.18.08.35.12.52s.12.58.17.88C203.82,265.61,128.6,275.45,128.6,275.45Z"/><path class="cls-2" d="M128.6,275.45H.36a50.23,50.23,0,0,1,0-12.25c.08-.67.17-1.34.28-2,.24-1.49.49-3,.76-4.49H128.6s56-7.35,67.71-31.49c.34.73.64,1.46.9,2.2a20.3,20.3,0,0,1,.7,2.35c.05.18.08.35.12.52s.12.58.17.88C203.82,265.61,128.6,275.45,128.6,275.45Z"/><path class="cls-5" d="M119.93,198.56l43.45-.85c9.11,4.61,17.48,9.85,23.77,15.64-27.59-1.37-39.84,11.3-39.84,11.3l-27.38-9Z"/><g id="_Group_" data-name="&lt;Group&gt;"><g id="_Group_2" data-name="&lt;Group&gt;"><rect id="_Path_" data-name="&lt;Path&gt;" class="cls-5" x="21.78" y="201.51" width="19.08" height="17.1" rx="4" ry="4" transform="translate(-178.84 240.7) rotate(-89.81)"/><rect id="_Rectangle_" data-name="&lt;Rectangle&gt;" class="cls-5" x="53.98" y="200.83" width="17.1" height="19.08" rx="4" ry="4" transform="translate(0.69 -0.2) rotate(0.19)"/></g></g><rect class="cls-5" x="85.78" y="275.42" width="9" height="10.23"/><circle class="cls-5" cx="90.38" cy="292.95" r="11.62"/><circle class="cls-4" cx="90.38" cy="292.95" r="5.39"/><path class="cls-6" d="M137.34,97.83a19.6,19.6,0,0,0-19.1-3.62,19.43,19.43,0,0,0-36.85-5.32,19.67,19.67,0,0,0-13.6-.24A19.41,19.41,0,0,0,51.54,80,19.2,19.2,0,0,0,32.23,97.83Z"/><path class="cls-6" d="M282.4,64.25a15.57,15.57,0,0,0-15.17-2.87A15.43,15.43,0,0,0,238,57.15a15.62,15.62,0,0,0-10.8-.19,15.41,15.41,0,0,0-12.9-6.91,15.25,15.25,0,0,0-15.33,14.19Z"/><path class="cls-6" d="M447.38,146A20.39,20.39,0,0,0,433,139.92a19.61,19.61,0,0,0-7.21,1.38c-1.37-12.08-10.53-21.43-21.64-21.43-8.89,0-16.53,6-19.93,14.56a19.57,19.57,0,0,0-15.35-.31c-3.89-6.76-10.64-11.24-18.33-11.24-11.62,0-21.11,10.21-21.78,23.1Z"/></g><g id="Layer_4" data-name="Layer 4"><path class="cls-7" d="M142.84,169.79s3.88,6.76,14.24,5.32,24.14-4.32,24.14-4.32l17.09,24.66,6.57-3.8s-13-34.07-16.5-35.86c-2.4-1.24-21.78,1.48-21.78,1.48l-24.84,13"/><path class="cls-7" d="M201.43,201.16l-2.74-5.93,6.1-3.53c2.32,0,9.52.14,10.94.91C217.43,193.52,201.43,201.16,201.43,201.16Z"/><path class="cls-7" d="M187.31,247.34c-.61,2-15.64,50.83-17.15,54.13s-75,36.44-75,36.44l-7.57-9.7C96,315.94,148.25,290,148.25,290s3.6-13.56-1.89-31.26a27.13,27.13,0,0,1-.34-14Z"/><path class="cls-8" d="M210.39,364.59,197,363.9c-5.91-13.48-12.6-66.71-12.6-66.71s-7.69-9.46-24.23-19.05c-13.51-7.82-16.15-26.79-16.66-33.5l43.95,2.72c5.34,12.87,15.92,38.45,16.8,41.15C205.42,292.14,210.39,364.59,210.39,364.59Z"/><path class="cls-9" d="M156.87,173.58c-8.78,12.29-3.15,20.44-6.93,41.45-1.75,9.72-9.08,17.89-8.12,29.5l46.32,2.86s.6-41.81-7.7-72.68a5,5,0,0,0-2.75-2.87l-12.22-4.46C162.78,166.39,158.54,171.25,156.87,173.58Z"/><path class="cls-10" d="M162.86,224.92a11,11,0,0,1-8.67-9.67,45,45,0,0,0-1.39-7.31s1.22,9.06-2.44,16c-2.45,4.67-1,14.89.24,21.12l-8.79-.54c-1-11.61,6.38-19.78,8.13-29.5,1.79-9.94,1.46-17,1.56-23,1,5.25,2.68,10.75,2.68,10.75l5.62,5.58,2-1.87Z"/><path class="cls-8" d="M201.07,119.13,194.41,123l-1.35.78a1.73,1.73,0,0,1-2.36-.63l-10.24-17.74a1.72,1.72,0,0,1,.63-2.36l1.34-.78,6.68-3.86a1.74,1.74,0,0,1,2.36.63l10.24,17.74A1.72,1.72,0,0,1,201.07,119.13Z"/><path class="cls-11" d="M201.07,119.13,194.41,123l-12-20.73,6.68-3.86a1.74,1.74,0,0,1,2.36.63l10.24,17.74A1.72,1.72,0,0,1,201.07,119.13Z"/><path class="cls-12" d="M156.43,144.17s14.38-3.22,17-6.57,13.48-21.73,13.48-21.73,4.53-5,3.06-5.09a9,9,0,0,0-6,3.28c-1.3,1.9-11.66,15.46-11.66,15.46l-16.22,3.59Z"/><path class="cls-13" d="M166.56,142.63s-17.54,4-18.3-5.42c-.63-7.83,17.44-8.15,17.44-8.15Z"/><path class="cls-8" d="M191.59,142.87v-.06c-.49,1.09-4.37,1.45-7.1,1.58-1.54.06-4.54,1.25-4.6,2.77l-.7,7.77-2.52-.9a4.89,4.89,0,0,0,.07-.52,3.4,3.4,0,1,0-6.79-.23,3.64,3.64,0,0,0,1.19,2.84,47.42,47.42,0,0,1-5.57,1.8h0c-8.44-12.19,1.36-34.68,23.56-27.32C200.94,134.51,196.17,140.49,191.59,142.87Z"/><path class="cls-7" d="M189.11,130.59c-22.21-7.36-32,15.13-23.56,27.32h0c-3.1-11.47-2.45-19.37,9.9-24.71,11.09-4.8,21,3.8,21,3.8l.09-.12C196.56,134.73,194.66,132.43,189.11,130.59Z"/><path class="cls-12" d="M191.59,142.81c-.49,1.09-4.37,1.45-7.1,1.57-1.54.07-4.54,1.25-4.6,2.78l-.71,7.76-2.52-.9a3.79,3.79,0,0,0,.07-.52,3.4,3.4,0,1,0-6.79-.23,3.66,3.66,0,0,0,1.19,2.84,47,47,0,0,1-5.58,1.8l-.28,9.22,12.16,4.66.18-5.54a11.87,11.87,0,0,0,3.54.71c9.19.45,10.75-7.06,11-15.62Z"/><path class="cls-12" d="M161.28,127.47a14.58,14.58,0,0,1-3.59-.59l-.18,4.91-9.39-1.12,0-4.2v0c2.2.71,6.51-3.29,6.51-3.29s-2.24-3.57-.73-6.27c1.19-2.15,3,.14,3,.14,4.58,1.82,9.45-.36,11.79-3.22l.35,2.43C169.49,123.62,168.69,127.27,161.28,127.47Z"/><path class="cls-12" d="M151.41,119.33a2.92,2.92,0,0,1,2.59-3.21,3,3,0,0,1,2.88,3,2.92,2.92,0,0,1-2.59,3.21A3,3,0,0,1,151.41,119.33Z"/><path class="cls-8" d="M157,117.06s-1.85-2.29-3-.14c-1.51,2.7.73,6.27.73,6.27s-4.3,4-6.5,3.28c0,0-6.35-13.05-1.31-17.55s4.07-5.7,9.44-6.07,5.69-.6,8.87.67,6,7.31,3.68,10.21S161.63,118.9,157,117.06Z"/><path class="cls-7" d="M165.19,103.53c-3.18-1.27-3.5-1-8.87-.67s-4.4,1.57-9.44,6.07c-4.13,3.69-.61,13.12.79,16.4-1.26-4.21,1.13-13.09,2.36-14.45s1.95-2.62,3.9-5.25,6.74-1.8,11-.3,3.9,8.09,3.9,8.09l.18.09C171,110.54,168.4,104.82,165.19,103.53Z"/><path class="cls-7" d="M89,326.5l-10.51,6.56S93.24,356.7,95.7,358.7s5-3.34.3-9.81a12,12,0,0,1-1.15-12.66Z"/><path class="cls-7" d="M197.79,363.65V376s27.87,0,30.87-1-.19-6-8.16-5.44a12,12,0,0,1-11.35-5.73Z"/><path class="cls-8" d="M145.44,171.94s2.1,7.51,12.49,8.67,24.46,1.76,24.46,1.76l10.48,28.11,7.3-2.06s-4.24-36.23-7.15-38.82c-2-1.79-21.48-3.93-21.48-3.93l-27.27,6.47"/><path class="cls-8" d="M194.5,216.77l-1.2-6.42,6.78-1.92c2.25.59,9.19,2.48,10.38,3.58C211.89,213.32,194.5,216.77,194.5,216.77Z"/><path class="cls-12" d="M190.69,186.37s5.39-7.07,6.08-5.22,1,6.39-1.71,9.27Z"/><path class="cls-12" d="M190.75,186.35,171,207.61a94.75,94.75,0,0,0,1.29-10.55,45.17,45.17,0,0,1-18.06,5.74,63.05,63.05,0,0,0,6,19.74c.56,1.12,1.47,2.53,2.71,2.38,9.65-1.14,32.2-34.56,32.2-34.56Z"/><path class="cls-14" d="M148.4,130.08s-7.1,4.69-5.42,18.23c1.35,10.88.86,27.38.86,27.38s16.61-1,27.72-10c0,0-8.08-16.63-9.14-22.9S159.71,128.19,148.4,130.08Z"/><path class="cls-12" d="M148.31,151s2.78,14.17,6.14,16.51,22,12.24,22,12.24,5.33,4.75,5.29,3.32-1.79-5.08-3.69-6.25-15.46-13.12-15.46-13.12L159,150.11Z"/><path class="cls-13" d="M146.82,153.56s-6.07-18.91,4.2-20.65c8.55-1.45,10.65,18.4,10.65,18.4Z"/><path class="cls-15" d="M187.65,296c-2.7-4.5-8.69-11.69-24.88-21.88s-12.16-29-12.16-29l-7.11-.38c.53,6.78,3.2,25.63,16.65,33.43,16.55,9.59,24.23,19.06,24.23,19.06s6.18,49.12,11.91,64.94l1.5,1.52S190.34,300.48,187.65,296Z"/><path class="cls-10" d="M177.13,195.59a20.62,20.62,0,0,1-3.6,2.9L171,207.54,172.32,197a29.35,29.35,0,0,0,2.71-2.6c.22-.36-.11-8.17-.3-12.43l.63,0C176.42,186.36,178.22,194.42,177.13,195.59Z"/><path class="cls-8" d="M359.23,215.57l-6.67,3.85-1.35.78a1.73,1.73,0,0,1-2.36-.63l-10.24-17.74a1.72,1.72,0,0,1,.63-2.36l1.34-.78,6.68-3.86a1.74,1.74,0,0,1,2.36.63l10.24,17.74A1.72,1.72,0,0,1,359.23,215.57Z"/><path class="cls-11" d="M359.23,215.57l-6.67,3.85-12-20.73,6.68-3.86a1.74,1.74,0,0,1,2.36.63l10.24,17.74A1.72,1.72,0,0,1,359.23,215.57Z"/><path class="cls-7" d="M276.51,280.52S258,308.65,251.8,315.44s-58.64,39.78-58.64,39.78L189.79,346c3.66-7.54,44-40.84,44-40.84s7.44-14.12,6.35-38.9a20.48,20.48,0,0,1,3.44-12.89c8.2,3.44,21.37,8.52,31.28,10.11Z"/><path class="cls-7" d="M190.14,345.71l-5.31,2a4.38,4.38,0,0,0-2.51,5.67L189.46,372a1.63,1.63,0,0,0,3.15-.46v-.08c.08-2.69,1-16.38,1-16.38Z"/><path class="cls-16" d="M272.54,191.82c-.81.75,4.73-7,13,.71,6.87,6.4,22,28.43,22,28.43l32.24-12.75,4,6.7s-32.88,21.92-38.09,22.39S258.32,207.46,272.54,191.82Z"/><path class="cls-8" d="M317.2,366.11l-9.93-.15c-5.69-6.15-22.08-56.68-22.08-56.68s-10.43-12.08-33.88-20.14c-20.06-6.88-14.47-30.94-12.43-37.75,7.91,3.51,29.65,12.64,41.45,12.63,5.38,7.7,17.83,25.78,21,32.23C305.33,304.54,317.2,366.11,317.2,366.11Z"/><path class="cls-15" d="M287,306.63c-3-6.3-18.54-15.34-35-21.33s-9.25-32.19-9.24-32.22c-1.5-.64-2.82-1.21-3.88-1.68-2,6.81-7.63,30.86,12.43,37.75,23.45,8.06,33.88,20.14,33.88,20.14s16.37,50.48,22.07,56.67C307.07,365.37,290,312.89,287,306.63Z"/><path class="cls-16" d="M265,183.94a12.31,12.31,0,0,0-1.51,1.12c-2.74,2.31-8.26,8.35-8.44,19.73C254.86,220,242.3,246,235.91,250c0,0,30.33,14.22,44.78,14,0,0-1.06-39.68,6.87-43.6,9.6-4.74-.4-21.76-6.56-30.74Z"/><path class="cls-16" d="M268.64,190.39c13,11.6-8.82,19.27-31.17,35.1-16.73,11.85-39,29.64-39,29.64L192,249.8S253.53,176.87,268.64,190.39Z"/><path class="cls-8" d="M291.27,166.16a.21.21,0,0,1,0,.07l0-.07c-3.51,1.55-6.14.34-8.31,2.1s-6.55,3.18-6.55,3.18c-3.58-1.55-4.06,3.91-1.62,8s-1.59,7.47-1.59,7.47l.13,0c-1.34,1.79-8.91,11.39-14.18,7.22-5.82-4.6-7.31,5.54-14.07,3.51s-9.2,12.43-20.69,5.27-11.36-29.33.81-28.79,11.22.95,17.85-6.22,14.46.54,18.52-1.21,2.57-13.52,13.52-13S292.76,157.85,291.27,166.16Z"/><path class="cls-12" d="M291.23,166.17s8.58,20.74-7.5,20.13L281,189.61l-7.8-2.67s4-3.35,1.58-7.47-2-9.59,1.62-8c0,0,4.39-1.42,6.55-3.18S287.71,167.72,291.23,166.17Z"/><path class="cls-12" d="M340.08,208.74s7.72-3.93,8.93-.25-5.75,6.06-5.75,6.06Z"/><path class="cls-7" d="M133.85,365.74h0a2.1,2.1,0,0,0,2.84-.85l55.25-102.38a2.1,2.1,0,0,0-.85-2.84h0a2.1,2.1,0,0,0-2.84.85L133,362.9A2.1,2.1,0,0,0,133.85,365.74Z"/><rect class="cls-16" x="126.08" y="266.83" width="30.74" height="96.07" rx="5.5" ry="5.5" transform="translate(116.39 659.14) rotate(-151.64)"/><path class="cls-17" d="M173.89,277.91l-.1.2L133.39,353a5.5,5.5,0,0,1-7.45,2.23l-17.38-9.38a5.52,5.52,0,0,1-.93-.63,5.49,5.49,0,0,0,2.32,7.25l17.38,9.38a5.5,5.5,0,0,0,7.45-2.23l40.41-74.87A5.5,5.5,0,0,0,173.89,277.91Z"/><circle class="cls-7" cx="134.02" cy="363.45" r="12.58" transform="translate(-249.48 308.77) rotate(-61.64)"/><circle class="cls-11" cx="134.02" cy="363.45" r="4.9" transform="translate(-249.48 308.77) rotate(-61.64)"/><path class="cls-12" d="M198.52,255.13s-7.22,8.24-10.37,4.49,3.9-9.82,3.9-9.82Z"/><path class="cls-17" d="M270.12,191.87c7.09,8-2.44,14.25-16.51,23.08-3.54,14.56-12.59,31.88-17.71,35.1,0,0,2.7,1.26,6.85,3,4.34-6.35,9.53-18.61,11.3-25,2.22-8,5.87-15,15.14-21.16s1-15.14,1-15.14Z"/><path class="cls-17" d="M291,221.57c-1.25.79-1.47,3.52-1.39,6-1.57-1.27-3.16-2.63-4.71-4.05a6.49,6.49,0,0,1,2.64-3.12c9.5-4.69-.23-21.44-6.37-30.47h0c1.53,2.09,12.44,16.31,12.68,20.9C294.14,215.83,293.49,220,291,221.57Z"/><path class="cls-7" d="M307.27,366v5.69a4.38,4.38,0,0,0,4.38,4.38h19.86a1.63,1.63,0,0,0,.7-3.1l-.07,0c-2.48-1-14.93-6.8-14.93-6.8Z"/><path class="cls-7" d="M291.09,161.4c-1.5-4.93-7.48-7.18-16-7.59-11-.54-9.46,11.21-13.52,13s-11.9-6-18.52,1.21-5.68,6.76-17.85,6.22c-7.88-.35-10.71,8.82-8.61,17.27,2.61-7.6,12-11,19.76-10.1,10.79,1.2,6.79-2.6,8.59-8.59s3.6-5.6,12.59-.6,9-7.24,15.39-13.79C279.78,151.32,288.75,159.12,291.09,161.4Z"/><path class="cls-18" d="M366.51,331.26c-.38,2.94-.65,5.65-.81,8h1.11a60,60,0,0,1,1.06-7.14c2.13-10.44,5.93-20.19,5.64-31.92s-8.42-42.47-8.27-44.4S358.66,289,363,304,367.46,323.9,366.51,331.26Z"/><path class="cls-8" d="M368.15,324.08a101.55,101.55,0,0,0-2,15.15h.69a60.18,60.18,0,0,1,1.06-7.14c2.13-10.44,5.93-20.19,5.64-31.92s-8.42-42.47-8.27-44.4c0,0-.66,24.45,3.28,42A55.29,55.29,0,0,1,368.15,324.08Z"/><path class="cls-8" d="M363.39,339.23h1.35c.71-6,1.25-17.22-2.63-27.25-5.62-14.51-14.67-33.08-14.75-40.54,0,0-2.87,35.52,4.57,45.33C358.62,325.6,363.56,327.66,363.39,339.23Z"/><path class="cls-18" d="M363.39,339.23h.78a46.05,46.05,0,0,0-7.8-29.71c-8.28-11.91-9-38.08-9-38.08s-2.87,35.52,4.57,45.33C358.62,325.6,363.56,327.67,363.39,339.23Z"/><path class="cls-18" d="M380.72,296c-8.49,8.13-4.83,32.24-8.57,37.12a42,42,0,0,1-5.77,6.12h3.55a39.31,39.31,0,0,0,5.64-4c5.71-4.93,6.17-14.72,9.8-26,1.8-5.61,17.63-17.67,21-17.49C404,291.22,388.54,288.51,380.72,296Z"/><path class="cls-8" d="M400.07,290.92c-10.92,2.18-20.57,14-22.26,32.28a20.42,20.42,0,0,1-10.18,16h2.28a39.13,39.13,0,0,0,5.65-4c5.71-4.93,6.17-14.72,9.8-26,1.8-5.61,17.63-17.67,21-17.49A48.59,48.59,0,0,0,400.07,290.92Z"/><path class="cls-19" d="M406.36,291.69l.32.07A.9.9,0,0,0,406.36,291.69Z"/><path class="cls-18" d="M349.78,330.06c1.12,4.74,4.81,7.58,7.92,9.17h4.15c-8.56-27.75-27-27-27-27C336.85,312.55,347.75,321.43,349.78,330.06Z"/><path class="cls-8" d="M353.22,330.15c2.5,5.14,5.5,7,8.13,7.53-8.75-26.17-26.53-25.44-26.53-25.44a6.76,6.76,0,0,1,2.11,1.13C340.75,315.58,348.81,321.08,353.22,330.15Z"/><path class="cls-20" d="M355.41,337.1c-6,6-11.81,25.13,3.94,38.94h11.18c15.75-13.81,10-33,3.94-38.94Z"/><path class="cls-21" d="M377.6,341.52a17.69,17.69,0,0,0-3.12-4.42H355.41a17.69,17.69,0,0,0-3.12,4.42Z"/><path class="cls-21" d="M374.47,337.1h-6.65c6,6,11.81,25.13-3.94,38.94h6.65C386.28,362.22,380.51,343,374.47,337.1Z"/></g></g></g></svg>