<?xml version="1.0" encoding="utf-8"?>
<!-- Generator: Adobe Illustrator 21.0.0, SVG Export Plug-In . SVG Version: 6.00 Build 0)  -->
<svg version="1.1" id="Layer_1" xmlns="http://www.w3.org/2000/svg" xmlns:xlink="http://www.w3.org/1999/xlink" x="0px" y="0px"
	 viewBox="0 0 333 215.5" style="enable-background:new 0 0 333 215.5;" xml:space="preserve">
<style type="text/css">
	.st0{fill:#009DC1;}
	.st1{fill:#A9A9A9;}
	.st2{fill:#666666;}
	.st3{fill:#00AAAA;}
	.st4{fill:#008888;}
	.st5{fill:#006666;}
	.st6{fill:#FFFFFF;}
	.st7{fill:#A2BCBA;}
	.st8{fill:#BFD1D0;}
	.st9{fill:#C6DBDB;}
	.st10{fill:#778786;}
	.st11{fill:#2F3333;}
	.st12{fill:#DFEAEA;}
	.st13{fill:#BAC6C6;}
	.st14{fill:#61FFFF;}
	.st15{fill:#151616;}
	.st16{fill:#EBEDED;}
	.st17{fill:#A5B7B6;}
	.st18{fill:#007777;}
	.st19{fill:#F7D5BF;}
	.st20{fill:#E2B7A3;}
	.st21{fill:#EDC4AE;}
	.st22{fill:#EEC19A;}
	.st23{fill:#EDCEC3;}
	.st24{fill:#D3A484;}
	.st25{fill:#E2B28F;}
	.st26{fill:#90CEDD;}
	.st27{fill:#F4E6ED;}
	.st28{fill:#470627;}
	.st29{fill:#33031D;}
	.st30{fill:#171919;}
	.st31{fill:#EFE1E5;}
	.st32{fill:#00CCCC;}
	.st33{fill:#014456;}
	.st34{fill:#005C7C;}
	.st35{fill:#80FFB3;}
	.st36{fill:#008435;}
	.st37{fill:#00C152;}
	.st38{fill:#01662A;}
	.st39{enable-background:new    ;}
</style>
<title>compare</title>
<g id="Layer_2">
	<g id="layer1">
		<path class="st0" d="M74.4,129.6c0-0.5,0.3-1.3-0.4-1.2c-0.4,0.1-4.3,2.4-4.3,3.3c0,0.4,0.2,0.8,0.5,1.1c0.2,0.3,0.5,0.5,0.7,0.7
			c0.6,0.6,1.4,0.9,2.2,0.8C74,134.1,74.5,133.4,74.4,129.6z"/>
		<path class="st1" d="M83.7,70.1c-0.3,4.3-2.3,8.2-4.1,12.1c-1.9,4-3.8,8.1-5.8,12.1c-3.8,7.7-7.7,15.3-11.5,23l-0.2-0.1
			c-1.2-0.7-2.2,1-1.1,1.8c0.4,0.3,0.7,0.6,1.1,0.8c0.5,0.3,1.2,0.2,1.5-0.4c4.5-8.2,8.5-16.6,12.6-24.9c2-4.1,4-8.2,5.9-12.3
			c1.8-3.8,3.7-7.7,3.8-12c0-0.6-0.5-1.2-1.1-1.2C84.3,69,83.7,69.5,83.7,70.1z"/>
		<path class="st2" d="M299.6,102.7c-4.5-8.2-11.4-15-18.8-20.7c-8-6-16.6-11.2-25.7-15.6c-18.6-8.9-38.4-14.9-58.8-17.8
			c-2.2-0.3-4.3-0.6-6.5-0.9c-5.6-0.3-11.2-0.3-16.8-0.3c-6.9,0-13.8-0.4-20.6,0.3c-6.2,0.7-12.3,2.3-18.1,4.7
			c-6.1,2.5-11.5,6.1-17,9.8c-2.8,2-5.8,3.7-9,5.1c-0.9,0.4-1.8,0.7-2.7,1c-1.5,1.2-3,2.4-4.4,3.6c-14.6,12.9-24.5,32.5-19.9,52.2
			c4.5,19.5,19.9,34,37,43c9.5,5,19.6,8.6,29.7,11.8c11.2,3.6,22.6,6.6,34.2,9c21.3,4.3,43.7,5.5,64.9-0.5
			c17.6-5,34.2-14.6,45.4-29.3c6.3-8,10.4-17.5,12-27.5C306,121.2,304.3,111.3,299.6,102.7z"/>
		<path class="st3" d="M256.1,159.4c0-0.2-0.2-0.5-0.4-0.6c-0.3-0.6-1-1-1.7-0.9c-1.2,0.2-2.4,0.5-3.5,0.8c-1.2,0.2-2.3,0.3-3.5,0.3
			c-2.4,0-4.7-0.5-6.9-1.4c-4.3-1.6-7.9-4.6-11.8-6.9c-0.3-0.4-0.8-0.7-1.3-0.7c-0.4-0.1-0.8,0.1-1,0.4c-3.6,2.3-4.6,7.5-6.4,11.4
			c-2.2,4.6-4.7,9.1-7.5,13.4c-2.8,4.3-5.6,8.6-8,13.2c-2.3,4.4-2.9,10.7-0.9,15.5c1.7,4.1,21.5,27.4,43.2-7.2
			c3.6-6,6.4-12.4,8.6-19.1C256.4,171.8,256.9,165.5,256.1,159.4z"/>
		<path class="st4" d="M258.5,150.7c-4.8-10.9-25.4-4.3-26.3-4.6c-4.1-1.6-6.9,3.4-7.4,4.4c-0.3,0.7-0.5,1.3-0.7,2
			c-0.6,1.7-1.1,3.4-1.3,5.2c-0.4,2.6-0.3,5.3,0.3,7.8c1.2,4.8,4.6,8.7,9.1,10.7c9.8,4.3,20.9-1.1,25.4-10.4
			C259,163.2,261.1,156.7,258.5,150.7z"/>
		<path class="st5" d="M252.4,145.4c-3.6-2.5-9.8-2.2-13.7-1.8c-2.7,0.3-5.6,1-7.4,3.1c-0.8,0.9-1.4,1.9-1.9,3
			c-0.8,1.9-1.1,4-0.9,6.1c0.6,3.2,2.5,6,5.4,7.7c0.3,0.2,0.7,0.3,1,0.2c1.2,1,2.5,1.7,4,2.2c3.8,1.3,7.9,0.7,11.2-1.6
			s6.6-6.1,7.3-10.1C258,150.8,256.1,146.4,252.4,145.4z"/>
		<path class="st6" d="M247,85.5c-0.1-3.8-1.4-7.8-4.3-10.5c-0.7-0.6-1.4-1.1-2.2-1.5c-0.1-0.2-0.2-0.4-0.3-0.6
			c-1.9-3.6-5.2-6.1-9.1-7c-3.6-0.6-7.3,0.6-9.9,3.2c-1.5,1.5-2.7,3.2-3.7,5c-0.8,1.8-1.8,3.5-2.9,5.2c-3.1,3.8-8.4,0.8-12.4,2.2
			c-1.7,0.6-1,3.3,0.8,2.8c2.9-0.8,6,0.3,9-0.1s4.9-2.4,6.3-4.9c2.5-4.4,5.3-11.1,11.4-10.5c2.7,0.3,5.1,1.7,6.7,3.8
			c-1.2,0-2.5,0.4-3.5,1c-2.9,1.7-3.8,5.4-2.1,8.2c0,0.1,0.1,0.1,0.1,0.1c1.9,2.9,5.7,2.8,8.2,0.7c1.5-1.2,2.3-3,2.4-4.9
			c4.8,5,2,13.8,1,19.7c-0.1,0.9,1.1,1.6,1.5,0.7C245.8,94.1,247.1,90,247,85.5z M236.3,80.9c-2.3,1.1-4.3-1.2-3.3-3.4
			c0.9-2,3.1-2.3,5.1-1.8C238.7,77.7,238.4,79.8,236.3,80.9z"/>
		<path class="st7" d="M209.6,85.5c-2.3,0.1-4.6,0.1-6.9,0c0,0.7,0,1.3,0.2,1.9c2.2,0.2,4.3-0.1,6.4,0c0.6,0,1-0.5,1.1-1.1
			c0-0.3,0-0.7,0-1C210.1,85.3,209.8,85.4,209.6,85.5z"/>
		<path class="st6" d="M210.4,79.8c0-0.2,0-0.4-0.1-0.6s-0.3-0.3-0.5-0.3c-0.3-0.1-5.8-0.4-6.9,0c-0.3,0.1-0.2,7.4,0.1,7.4
			c2.2,0.2,4.3-0.1,6.4,0c0.6,0,1-0.5,1.1-1.1C210.4,83.2,210.6,81.7,210.4,79.8z"/>
		<path class="st8" d="M236.9,94.5c-2.6,0-4.9,1.3-6.5,3.3c-1.6,2.7-2.7,5.7-3.2,8.8c-1.1,6.2-1.2,13.2,0.9,19.2
			c0.8,2.2,2,4.3,4.3,5.1c2.5,0.8,5.2-0.3,7-2c2-2.1,2.9-4.9,3.7-7.7c0.8-3,1.4-6.1,1.6-9.3C245,105.3,243,94.5,236.9,94.5z"/>
		<path class="st6" d="M242.7,99.8c-0.8-1.9-2.1-4-4.2-4.5c-2.4-0.6-4.8,2.1-5.7,3.9c-4.1,8-4.2,14.4-2.8,21.5
			c0.5,2.1,1.8,4,3.5,5.3c1.8,1.3,2.7,1,4.8,0.6s3.5-2.1,4.1-4.3c0.6-2.6,1-5.3,1.3-8C244.1,109.6,244.5,104.2,242.7,99.8z"/>
		<path class="st8" d="M241.3,104.5c-0.3-1-0.7-2.1-0.9-3.1c-0.1-1-0.3-2-0.7-2.9c-0.2-0.2-0.4-0.4-0.6-0.5c-1.9-0.5-1.1,2.9-1,3.8
			c0.2,1.3,0.6,4.2,2.6,3.6C241.2,105.3,241.4,104.9,241.3,104.5L241.3,104.5z"/>
		<path class="st9" d="M94.8,11.3c4.3,0.3,109.7,0.2,116.5,0c0.6-2.6,0.6-3.9,0.5-4.5c-0.7-3-3.1-3.5-6.3-3.5
			c-19.4-0.2-97.3,0-98,0.1c-2.1,0-5.1,0.1-7.7,0.3c-3.4,0.1-5.8,1.5-5.5,4.1C94.3,8.8,94.6,10,94.8,11.3z"/>
		<path class="st8" d="M102.5,120c0.6,2.6,4.2,7.7,9.2,7.7h84.8c4.9,0,7.2-5.4,7.3-8.8C199.7,119,103.3,119.9,102.5,120z"/>
		<path class="st10" d="M163.5,121.3c-3.4,0-6.9,0.1-10.3,0.1c-1.6,0-3.2,0-4.8,0.1c-1.6-0.1-3.3,0.1-4.8,0.6
			c-0.5,0.3-0.7,0.9-0.4,1.4c0.1,0.2,0.2,0.3,0.4,0.4c1.5,0.5,3,0.7,4.5,0.6c1.7,0,3.4,0.1,5.1,0c3.4-0.1,7.4,0.1,9.5-0.2
			C164.7,123.9,165.5,121.3,163.5,121.3z"/>
		<path class="st11" d="M211.5,9c-0.1-2-2.7-3.7-5.9-3.7c-19.4-0.2-97.3,0-98,0.1c-2.1,0-5.1,0.1-7.7,0.3c-3.4,0.1-5.5,2-5.2,4.2
			c1.2,9.2,6.5,37.6,8.1,39.3c1.3,1.1,3,1.7,4.7,1.7c12.8,0.1,24.7,0.1,37,0.1c0.4,0,15,0.1,18.2,0c2.5-0.1,33.6,0.1,36-0.1
			c2.8-0.2,4.6-1.7,4.9-3.3C203.5,46.1,211.7,14.2,211.5,9z"/>
		<path class="st11" d="M187.4,49.6c-18.7-0.3-37.4-0.2-56.1,0.1l-7.8,0.2c-2.6,0-5.4-0.1-7.8,0.9c-0.6,0.2-1,0.9-0.8,1.5
			c0.1,0.4,0.4,0.7,0.8,0.8c2.2,0.6,4.5,0.8,6.7,0.6c2.3,0,4.7-0.1,7-0.1c4.7-0.1,9.3-0.1,14-0.1c9.4,0,18.8,0,28.2,0.1
			c5.3,0,10.6,0.1,15.9,0.2C190,53.7,190,49.6,187.4,49.6z"/>
		<path class="st12" d="M203.9,82c0-2.8-0.3-29.3-2.3-31.6c-0.8-1-3-1.4-6-1.6c-1.9-0.1-3.7-0.1-5.6,0c-1,0.1-1.8,0.8-2,1.7
			c-0.1,0.4-0.1,0.9-0.2,1.3c-0.1,0.5-0.6,0.9-1.1,0.9c-18.2-0.2-36.4-0.2-54.7,0c-4.7,0-9.4-0.1-14.1,0.2c-0.6,0-1.2-0.4-1.3-1
			c0-0.2,0-0.4,0-0.5c0-0.9,0-2-1-1.9c-4.7,0.1-12.5,0-13.8,4.3c-0.7,2.6-1.1,5.3-1.2,8c-0.3,3.3-0.1,36.6,0.8,49.9
			c0.2,3.1,0,7,1.6,9.8c1.2,2,3.5,2.7,5.8,2.7c12.3,0.2,23.9,0.1,35.8,0.2c0.4,0,1-0.7,1.4-1.2c0.2-0.3,0.5-0.4,0.8-0.4
			c3.4-0.2,11.4-0.1,13.7,0c0.3,0,0.5,0.1,0.7,0.3c0.5,0.5,1,1.3,1.6,1.3c2.4,0.4,33.6,0.2,36-0.1c2.7-0.4,4.7-2.7,4.9-5.4
			C203.9,116.5,204,103.5,203.9,82z"/>
		<path class="st6" d="M199.3,90.8c-0.1-0.4-1.7-30.5-1.8-31.9c0-0.3,0-1.2,0-2.1c0-1.4-1.1-2.5-2.5-2.5c-10-0.1-47.6-0.3-66.8-0.2
			c-6.4,0-12.7,0-19.1,0.2c-0.5,0-0.9,0.4-1,0.8c-0.1,0.2-0.2,0.3-0.2,0.5c-0.6,6-1,30.1-1.3,36.1c0,0.6,0.5,1.2,1.2,1.2
			c1.3,0,26.2-0.3,37-0.3c11.3,0,22.6-0.1,34-0.2c6.5-0.1,12.9-0.1,19.4-0.2C198.9,92.2,199.4,91.6,199.3,90.8
			C199.3,91,199.3,90.9,199.3,90.8z"/>
		<path class="st8" d="M170.5,116.3c-0.1-3.2-0.3-6.1-0.5-9.3c-0.2-3.3,0-6.8-0.4-10.1c0-0.7-0.6-1.3-1.3-1.3
			c-2.8,0.2-5.9,0.1-8.6,0.1s-5.8,0-8.6,0s-5.6,0.1-8.4,0.1c-0.6,0-1.2,0-1.8,0c-1.3-0.2-2.5,0.5-2.9,1.7
			c-0.4,1.1-0.6,13.9-0.4,16.8c0.1,1.4,0.1,2.8,0.3,4.2c0.1,0.9,0.7,1.5,1.6,1.6c1.4,0.2,3.6,0,5,0.1c1.5,0.1,3.1,0.1,4.6,0.1
			l8.7,0.1c3,0,6-0.2,8.9-0.2c1.1,0.1,2.1-0.2,3-0.8C170.3,118.4,170.6,117.4,170.5,116.3z"/>
		<path class="st13" d="M200.3,51.3c-0.6-0.6-1.6-0.6-2.1,0c-0.3,0.3-0.5,0.7-0.5,1.1c0,0.8,0.7,1.5,1.5,1.5c0.3,0,0.7-0.1,0.9-0.3
			c0.3-0.2,0.5-0.6,0.6-1C200.8,52.1,200.7,51.7,200.3,51.3z"/>
		<path class="st14" d="M188.2,46.1c0.9-0.2,1.7-0.4,2.6-0.8c2.9-1.1,4.1-4.2,5.1-6.9c1.3-3.4,2.4-6.9,3.3-10.4
			c0.8-3.5-0.2-7-0.4-10.5c-1-0.7-2-1.4-3.1-1.9c-7.1-0.1-14.1,1-21.2,0.9c-4.1-0.1-8.1-0.8-12.2-1.1c-3.4-0.3-6.8-0.4-10.2-0.3
			c-0.6,0-1.2,0.1-1.9,0.1c-0.8,0-1.4-0.6-1.4-1.4c0-0.1,0-0.2,0-0.3h-15.7c0.2,0.5,0,1.2-0.5,1.4c-0.1,0.1-0.3,0.1-0.5,0.1
			c-3.2,0-6.3-0.7-9.4-0.4c-2.9,0.2-5.8,0.6-8.7,1.2c-3.7,0.7-6.7,3-9.3,5.7c1.7,8.7,5,22.3,6.1,23.4c1.1,0.9,2.5,1.3,3.9,1.3
			c10.8,0.1,20.9,0.1,31.3,0.1c0.4,0,12.7,0.1,15.4,0C163,46.1,180.4,46.2,188.2,46.1z"/>
		<path class="st15" d="M175.1,89.4l-0.7-6.5c-0.1-0.8-0.7-1.3-1.5-1.3c-3.7,0-14.4-0.1-23.1-0.1c-7.5,0-19.4,0.2-23.4,0.2
			c-0.8,0-1.4,0.6-1.5,1.4l-0.5,6.7c-0.1,0.8,0.6,1.5,1.4,1.6h0.1c4,0.1,14.6,0.2,19.4,0.2c6.2,0,12.4,0,18.6,0
			c2.5,0,7.2-0.2,9.7-0.4c0.8,0,1.5-0.7,1.4-1.6C175.1,89.5,175.1,89.5,175.1,89.4z"/>
		<path class="st11" d="M175,88.2l-0.7-6.5c-0.1-0.8-0.7-1.3-1.5-1.3c-3.7,0-14.4-0.1-23.1-0.1c-7.5,0-19.4,0.2-23.4,0.2
			c-0.8,0-1.4,0.6-1.5,1.4l-0.5,6.7c-0.1,0.8,0.6,1.5,1.4,1.6h0.1c4,0.1,14.6,0.2,19.4,0.2c6.2,0,12.4,0,18.6,0
			c2.5,0,7.2-0.2,9.7-0.4c0.8,0,1.5-0.7,1.4-1.6C175,88.3,175,88.3,175,88.2z"/>
		<path class="st15" d="M188.8,84.4l-0.1-2.3c0-0.3-0.1-0.5-0.1-0.5c-0.3,0-1.3,0-2.1,0l-2.1,0.1c-0.1,0-0.1,0.2-0.1,0.5v2.4
			c0,0.3,0.1,0.6,0.1,0.6c0.4,0,1.3,0.1,1.8,0.1h1.7c0.3,0,0.6-0.1,0.9-0.1C188.8,85,188.8,84.8,188.8,84.4z"/>
		<path class="st15" d="M188.9,90l-0.1-2.3c0-0.3-0.1-0.5-0.1-0.5c-0.3,0-1.3,0-2.1,0l-2.1,0.1c-0.1,0-0.1,0.2-0.1,0.5v2.4
			c0,0.3,0.1,0.6,0.1,0.6c0.4,0,1.3,0.1,1.8,0.1h1.7c0.3,0,0.6-0.1,0.9-0.1C188.9,90.6,188.9,90.3,188.9,90z"/>
		<path class="st15" d="M183,90v-2.3c0-0.3-0.1-0.5-0.1-0.5c-0.3,0-1.3,0-2.1,0l-2.1,0.1c-0.1,0-0.1,0.2-0.1,0.5v2.4
			c0,0.3,0.1,0.6,0.1,0.6c0.4,0,1.3,0.1,1.8,0.1h1.7c0.3,0,0.6-0.1,0.9-0.1C183,90.6,183,90.3,183,90z"/>
		<path class="st15" d="M195,90l-0.1-2.3c0-0.3-0.1-0.5-0.1-0.5c-0.3,0-1.3,0-2.1,0l-2.1,0.1c-0.1,0-0.1,0.2-0.1,0.5v2.4
			c0,0.3,0.1,0.6,0.1,0.6c0.4,0,1.3,0.1,1.8,0.1h1.7c0.3,0,0.6-0.1,0.9-0.1C194.9,90.6,195,90.3,195,90z"/>
		<path class="st11" d="M188.8,83.8l-0.1-2.3c0-0.3-0.1-0.5-0.1-0.5c-0.3,0-1.3,0-2.1,0l-2.1,0.1c-0.1,0-0.1,0.2-0.1,0.5V84
			c0,0.3,0.1,0.6,0.1,0.6c0.4,0,1.3,0.1,1.8,0.1h1.7c0.3,0,0.6-0.1,0.9-0.1C188.8,84.3,188.8,84.1,188.8,83.8z"/>
		<path class="st11" d="M188.9,89.3l-0.1-2.3c0-0.3-0.1-0.5-0.1-0.5c-0.3,0-1.3,0-2.1,0l-2.1,0.1c-0.1,0-0.1,0.2-0.1,0.5v2.4
			c0,0.3,0.1,0.6,0.1,0.6c0.4,0,1.3,0.1,1.8,0.1h1.7c0.3,0,0.6-0.1,0.9-0.1C188.9,89.9,188.9,89.6,188.9,89.3z"/>
		<path class="st11" d="M183,89.3V87c0-0.3-0.1-0.5-0.1-0.5c-0.3,0-1.3,0-2.1,0l-2.1,0.1c-0.1,0-0.1,0.2-0.1,0.5v2.4
			c0,0.3,0.1,0.6,0.1,0.6c0.4,0,1.3,0.1,1.8,0.1L182,90c0.3,0,0.6-0.1,0.9-0.1C183,89.9,183,89.6,183,89.3z"/>
		<path class="st11" d="M195,89.3l-0.1-2.3c0-0.3-0.1-0.5-0.1-0.5c-0.3,0-1.3,0-2.1,0l-2.1,0.1c-0.1,0-0.1,0.2-0.1,0.5v2.4
			c0,0.3,0.1,0.6,0.1,0.6c0.4,0,1.3,0.1,1.8,0.1L194,90c0.3,0,0.6-0.1,0.9-0.1C194.9,89.9,195,89.6,195,89.3z"/>
		<path class="st15" d="M193.5,66.6c0.9,0,1.7-0.8,1.7-1.7c0,0,0,0,0-0.1c-0.1-1.5-0.1-3-0.1-3.1s0-1.1,0-1.9c0-1.2-1-2.3-2.3-2.3
			c-9.1-0.1-44.7,0.3-62.2,0.4c-3.9,0-11.7-0.1-16.4,0c-2.1,0-3.7,1.8-3.7,3.9l0,0c0,0.9,0,2,0.1,3.1c0,0.9,0.8,1.7,1.7,1.7
			C122.9,66.6,178.1,66.6,193.5,66.6z"/>
		<path class="st15" d="M195.8,74c-0.1-1.3-0.2-2.3-0.3-3.3c-0.1-0.9-0.9-1.5-1.8-1.5c-9.8,0.2-51.7-0.1-60.7-0.1
			c-0.9,0-1.7,0.7-1.7,1.6c-0.1,2.5-0.1,3.9-0.1,6.7c0,0.9,0.8,1.6,1.7,1.6c15.6-0.2,46.9-0.7,58.5-0.8c2.2,0.1,4.1-1.6,4.2-3.8
			C195.8,74.2,195.8,74.1,195.8,74z"/>
		<path class="st15" d="M111.9,81.4c-0.8,0-1.5,0.7-1.5,1.5c-0.1,3.2-0.2,5.8-0.2,7.1c0,0.6,0.5,1.1,1.1,1.1c0.4,0,4,0,7.9,0
			c2,0,3.6-1.5,3.9-3.4c0.2-1.4,0.3-3.1,0.5-4.6c0.1-0.8-0.5-1.6-1.4-1.7c-0.1,0-0.1,0-0.2,0C119.3,81.4,114.4,81.4,111.9,81.4z"/>
		<path class="st15" d="M110.5,70.4c0,2.3,0,4.8-0.1,7.2c0,0.8,0.7,1.4,1.5,1.4h0.1c3.6,0,11.8,0,15.2,0c0.8,0,1.4-0.6,1.5-1.3
			c0.1-2.4,0.1-4.7,0.3-7.1c0.1-0.8-0.5-1.5-1.3-1.5c-0.1,0-0.1,0-0.2,0c-3.3,0-10.6,0.1-15.3,0C111.3,69,110.6,69.6,110.5,70.4
			L110.5,70.4z"/>
		<path class="st11" d="M193.4,65.6c0.9,0,1.7-0.8,1.7-1.7c0,0,0,0,0-0.1c-0.1-1.5-0.1-3-0.1-3.1s0-1.1,0-1.9c0-1.2-1-2.3-2.3-2.3
			c-9.1-0.1-44.7,0.3-62.2,0.4c-3.9,0-11.7-0.1-16.4,0c-2.1,0-3.7,1.8-3.7,3.9l0,0c0,0.9,0,2,0.1,3.1c0,0.9,0.8,1.7,1.7,1.7
			C122.8,65.6,178,65.6,193.4,65.6z"/>
		<path class="st11" d="M195.7,73.1c-0.1-1.3-0.2-2.3-0.3-3.3c-0.1-0.9-0.9-1.5-1.8-1.5c-9.8,0.2-51.7-0.1-60.7-0.1
			c-0.9,0-1.7,0.7-1.7,1.6c-0.1,2.5-0.1,3.9-0.1,6.7c0,0.9,0.8,1.6,1.7,1.6c0,0,0,0,0.1,0c15.6-0.2,46.9-0.7,58.5-0.8
			c2.2,0.1,4.1-1.6,4.2-3.8C195.7,73.3,195.7,73.2,195.7,73.1z"/>
		<path class="st11" d="M111.8,80.4c-0.8,0-1.5,0.7-1.5,1.5c-0.1,3.2-0.2,5.8-0.2,7.1c0,0.6,0.5,1.1,1.1,1.1c0.4,0,4,0,7.9,0
			c2,0,3.6-1.5,3.8-3.5c0.2-1.4,0.3-3.1,0.5-4.6c0.1-0.8-0.5-1.6-1.4-1.7c-0.1,0-0.1,0-0.2,0C119.2,80.4,114.4,80.4,111.8,80.4z"/>
		<path class="st11" d="M110.4,69.5c0,2.3,0,4.8-0.1,7.2c0,0.8,0.7,1.4,1.5,1.4l0,0c3.6,0,11.8,0,15.2,0c0.8,0,1.4-0.6,1.5-1.3
			c0.1-2.4,0.1-4.7,0.3-7.1c0-0.8-0.6-1.4-1.4-1.5h-0.1c-3.3,0-10.6,0.1-15.3,0C111.2,68.1,110.5,68.7,110.4,69.5
			C110.5,69.5,110.5,69.5,110.4,69.5z"/>
		<path class="st3" d="M202.4,11.7c-7.6-0.3-15.2-0.4-22.8-0.4c-3.7,0-7.4,0.2-11.1,0.1c-2.9-0.2-5.9-0.2-8.8,0
			c-0.1-0.5-0.4-0.9-0.8-1.1c-0.8-0.3-1.7-0.4-2.5-0.3c0,0-7.2,0-8.4,0.1c-0.7,0-1.4,0.2-1.9,0.7c-0.4,0.4-0.5,0.9-0.5,1.4
			c-1.1,0-2.3-0.1-3.4-0.1c-1.9-0.1-3.9-0.1-5.8-0.1c-3.8-0.1-7.6-0.1-11.4,0c-7.6,0.1-15.2,0.3-22.8,0.7c-0.5,0-0.8,0.4-0.8,0.9
			c0,0.1,0,0.1,0,0.2c0.9,3.2,1.7,6.3,2.6,9.5c0.1,0.4,0.6,0.7,1,0.6s0.7-0.6,0.6-1l0,0c-0.9-3.3,1.1-6.7,4.4-7.6
			c0.1,0,0.3-0.1,0.4-0.1l0.8-0.1c0.5-0.1,0.9-0.5,0.8-1.1l0,0c4.5-0.2,9-0.3,13.5-0.3c3.8,0,7.6,0,11.4,0l5.8,0.1
			c1.8,0,3.6,0.3,5.3-0.4c0.2-0.1,0.3-0.2,0.4-0.3c0.6,0,1.3,0,1.5,0l2.2-0.2c0.4,0,3.9-0.2,3.9-0.1c-0.1,0.4,0.1,0.7,0.5,0.8
			c0.2,0.1,0.5,0,0.6-0.2l0,0c0.1,0,0.2,0.1,0.3,0.1c3.6,0.3,7.4-0.1,11.1-0.2s7.6-0.1,11.4-0.1h4.5c0.1,0.2,0.4,0.3,0.6,0.3
			c3,0.2,6,0.8,8.9,1.7c2.4,0.8,6.9,2.1,6.2,5.5c-0.1,0.4,0.1,0.9,0.6,1c0.4,0.1,0.9-0.1,1-0.6l0,0c0.9-2.7,1.4-5.5,1.4-8.4
			C203.2,12.1,202.8,11.7,202.4,11.7z"/>
		<path class="st3" d="M156.9,44.2c-2.6-0.1-5.2-0.1-7.8,0c-0.4,0-0.7,4-0.3,4l6.8-0.3C156,47.8,157.6,44.2,156.9,44.2z"/>
		<path class="st16" d="M152.5,43.6c0,1.9,0.4,3.6,2,4.7s3.8,1.2,5.7,1.3c5.2,0.3,10.3-0.7,15.4-1.5c2.7-0.5,5.5-0.8,8.3-0.9
			c2.4-0.1,5,0.4,7.4,0.2c1.9-0.2,3.4-1.5,4.1-3.3c1-2.3,1.9-4.7,2.7-7.1c1.6-4.7,3.8-12.3,4.1-14.4c1.1-6.5-21.3-4.2-31.3-5
			c-2.9-0.2-5.8-0.7-8.6-1.3c-2.3-0.4-4.8-1.3-7.1-1.2c-2,0.1-2.6,0.3-2.6,2C152.5,20.1,152.5,38,152.5,43.6z"/>
		<path class="st6" d="M152.6,17.1c0-1.7-0.6-1.8-2.6-1.9c-2.3-0.1-4.9,0.8-7.1,1.2c-2.8,0.6-5.7,1-8.6,1.3
			c-10,0.7-31.9-1.6-30.7,4.9c1,4.8,2.2,9.6,3.6,14.4c0.8,2.4,1.6,4.8,2.7,7.1c0.6,1.8,2.2,3,4.1,3.3c2.4,0.3,4.9-0.3,7.4-0.2
			c2.8,0.1,5.5,0.4,8.3,0.9c5.1,0.8,10.2,1.7,15.4,1.5c1.9-0.1,4-0.3,5.7-1.3s1.9-2.8,2-4.7C152.6,38,152.6,20,152.6,17.1z"/>
		<path class="st6" d="M192.2,25.9c-3-0.3-6.1-0.4-9.1-0.2c-3,0-6.1,0.3-9.1,0.7c-3,0.5-6,1.1-8.9,2c-3.4,0.9-6.3,1-9.4-0.7
			c-0.1,0-0.2,0-0.2,0.1s0,0.2,0,0.2c1.7,1.9,4.6,2.1,7,1.8c3.1-0.4,6.1-1.5,9.2-2.1c3.3-0.6,6.7-0.9,10.1-1
			c3.4-0.1,6.9,0.3,10.3-0.1C192.5,26.6,192.7,26,192.2,25.9z"/>
		<path class="st6" d="M191,30.3c-5.4-1.4-11.6-0.7-17,0.5c-2.8,0.6-5.6,1.5-8.5,1.9c-1.5,0.2-3.1,0.3-4.6,0.3
			c-1.6-0.2-3.2-0.5-4.8-0.8c-0.1,0-0.2,0.1-0.2,0.2c0,0.1,0,0.1,0.1,0.2c2.1,1.5,5.2,1.6,7.7,1.4c2.9-0.3,5.8-0.8,8.6-1.6
			c3-0.8,6.1-1.3,9.2-1.5c3.1,0,6.3,0.1,9.4,0.5c0.2,0,0.5-0.2,0.5-0.4C191.3,30.6,191.2,30.4,191,30.3z"/>
		<path class="st6" d="M172.5,35.4c-2.8,0.8-5.6,1.4-8.4,1.7c-2.8,0.2-5.3-0.6-8-1.2c-0.1,0-0.2,0-0.2,0.1s0,0.2,0.1,0.2l0,0
			c2.1,1.6,5.3,1.8,7.9,1.7c3-0.1,6-0.7,8.9-1.8c0.2-0.1,0.3-0.3,0.2-0.5C172.8,35.5,172.7,35.4,172.5,35.4z"/>
		<path class="st6" d="M178.8,39.9c-1.7-0.2-3.4-0.1-5.1,0.3c-2.1,0.3-4.1,0.8-6.1,1.1c-1.9,0.3-3.7,0.5-5.6,0.4
			c-1.9-0.2-3.8-0.6-5.6-1.2c-0.1,0-0.3,0.2-0.1,0.2c2.7,2.1,6.9,1.9,10.1,1.5c2-0.2,3.9-0.6,5.9-1c2.2-0.4,4.5-0.4,6.7-0.7
			C179.2,40.6,179.2,40,178.8,39.9z"/>
		<path class="st4" d="M111.2,14.5c-1.5,0-3,0.1-4.6,0.1c-0.8,0-2.3-0.2-3,0.4c-0.3,0.4-0.5,1-0.3,1.5c0.2,1.2,0.4,2.3,0.8,3.4
			c0,0.1,0.1,0.2,0.1,0.3l0.1,0.3c0.1,0.2,0.4-0.1,0.4-0.2c0.2,0,5.8-4.9,6.4-5c0.3-0.1,0.4-0.3,0.4-0.6
			C111.5,14.7,111.4,14.6,111.2,14.5z"/>
		<path class="st4" d="M201.5,15.6c0-0.6,0-1.1-0.5-1.4c-0.8-0.3-1.6-0.3-2.5-0.3c-0.8-0.1-1.6-0.1-2.4-0.1l-0.9-0.2
			c-0.2-0.1-0.4,0.1-0.6,0.3c-0.1,0.1-0.1,0.2-0.1,0.3l0,0c0,0.2,0.1,0.3,0.2,0.4c2.3,1.4,4.2,3.1,5.8,5.2c0.3,0.3,0.8,0,0.8-0.3
			C201.6,18.1,201.6,16.9,201.5,15.6z"/>
		<path class="st17" d="M157.6,22c4.4,1.6,9.4,1.5,14,0.8c9.6-1.4,20.7-5.8,29.6,0.3c0.3,0.2,0.7,0.1,0.9-0.2c0,0,0-0.1,0.1-0.1
			c0.9-3.5-4.2-9.4-9.5-9.6c-2.6-0.1-5.2-0.1-7.9-0.1c-10.5-0.1-20.6-0.1-31.1-0.3c-0.4,0-0.8,0.3-0.8,0.8
			C153,14.2,152.8,20.2,157.6,22z"/>
		<path class="st9" d="M152.7,13.5c0-0.4-0.3-0.8-0.8-0.8c-10.5,0.2-20.6,0.1-31.1,0.3c-2.6,0-5.2,0-7.9,0.1
			c-5.3,0.1-10.4,6-9.5,9.6c0.1,0.3,0.4,0.5,0.8,0.4c0,0,0.1,0,0.1-0.1c9-6.1,20-1.7,29.6-0.3c4.6,0.7,9.6,0.8,14-0.8
			C152.9,20.2,152.8,14.2,152.7,13.5z"/>
		<path class="st18" d="M157.9,12.4l-11,0.1c-0.4,0-0.5,0.5-0.2,0.9c0.5,0.7,2.1,4,5.8,4c2.5,0,5.5-1.7,5.8-4.4
			c0.1-0.2,0-0.5-0.3-0.6H157.9z"/>
		<path class="st3" d="M135.1,26.9c-4.8,1.5-9.4,0.4-14.2-0.6c-3.8-0.8-8.1-1.4-11.7,0.5c-0.1,0-0.1,0.2-0.1,0.2
			c0,0.1,0.1,0.1,0.2,0.1c4.6-1.3,9-0.5,13.5,0.5c4,0.9,8.5,1.7,12.4,0.1C135.7,27.5,135.6,26.8,135.1,26.9z"/>
		<path class="st3" d="M117.7,29.9c-1.4-0.4-2.8-0.5-4.2-0.3c-1.2,0-2.4,0.2-3.6,0.6c-0.1,0-0.1,0.1-0.1,0.1s0,0,0.1,0.1
			c1.2,0.1,2.4,0.1,3.6,0c1.4,0.1,2.7,0.2,4.1,0.1c0.2,0,0.4-0.1,0.4-0.3C118,30.1,117.9,30,117.7,29.9z"/>
		<path class="st4" d="M157.2,12.2c-1.9,0-3.3-0.1-5-0.1c-1.5,0-2.8,0-4.6,0.1c-0.5,0-0.2,0.8,0,1.1c0.9,1.9,2.9,2.9,5,2.7
			c2.3-0.1,4.2-0.8,5-2.9C157.7,12.8,157.9,12.2,157.2,12.2z"/>
		<path class="st19" d="M264.1,113.6c-0.7-1.5-2.2-3.5-3.9-3.6c-0.3,0-0.5,0.2-0.5,0.4c-0.2,0.2-0.3,0.5-0.2,0.8c1,4.1-0.1,8-1,11.9
			c-0.9-0.4-1.9-0.6-2.9-0.9c-1.1-0.4-2.2-0.9-3.3-1.6c-2.3-1.5-3.6-4.1-3.5-6.9c0.1-1.6,1.7-13.2-5.7-20.6c-1-1-3.8-2.8-5.2-2.8
			c-1.7-0.1-3.2,1.3-3.3,3c0,0.2,0,0.4,0,0.6c0.4,2,2.5,3.3,3.5,5c1.2,2,2,4.2,2.4,6.6c0.4,2.6,0.4,5.2,0,7.8
			c-0.2,2.6-0.7,5.2-1.3,7.8c-0.3,1.2-1.8,3.3-3.1,3.3c-1.4,0.2-2.9-0.5-3.5-1.9c-0.2,0.8-4.2,12.5-4.2,14.8
			c2.4,5.4,4.1,8.2,4.3,9.2c1.2,5.2-2.4,9.2-1.5,14.4c0.6,3.8,10.9,9.7,17.7,3.6c3.7-3.3,6.1-13.6,7.2-15.7
			c6.7-13.5,7.4-19.8,7.9-21.4c0.6-2.6,1-5.3,1.1-8.1C265.3,117.4,264.9,115.4,264.1,113.6z"/>
		<path class="st20" d="M261.3,118.8c0.4-2.1,0.5-4.3,0.3-6.4c-0.6-3.9-1.1-7.1-4.4-9.6c-2.5-1.8-3.7-0.8-3.7-0.6
			c-0.3,0.3-0.4,0.8-0.2,1.2c1.9,4.2,2.3,8.9,1.2,13.3c-0.5,1.8-1.3,3.6-0.3,5.4c0.8,1.6,2.8,2.3,4.4,1.6
			C260.5,122.8,261,120.7,261.3,118.8z"/>
		<path class="st21" d="M256.4,116.8c0.7-3.8,0.4-7.8-0.8-11.5c-1.2-3.4-3.2-6.8-6.5-8.2c-1.1-0.5-2.8,0.2-2.3,1.3
			c1.8,3.9,1.9,8.1,1.9,12.2c0,2.2-0.1,4.4,0,6.7c0.1,1.6,0.4,3.5,1.9,4.4C254,123.8,256,119.2,256.4,116.8z"/>
		<path class="st22" d="M231.8,138.7c3.3-0.5,5.2-3.8,5.3-6.9c0.1-3.4-2.1-5.4-3.8-8.2c-2.9-5-2.8-8.1-2.4-9.2
			c0.5-2,0.5-4.2,0.1-6.2c-0.5-1.3-1.9-2.1-3.3-1.6c0,0-0.1,0-0.1,0.1c-1.3,0.5-2.9,1.8-3.8,6.3c-1.9,9.2,1.1,17.6,4.4,24
			c0.6,1.2,1.9,2,3.3,1.9L231.8,138.7z"/>
		<path class="st23" d="M230.1,108.3c-0.4-0.9-1.2-1.5-2.1-1.7c-0.3,0-0.7,0-1,0c-0.5,0.1-0.9,0.5-1.2,0.9c-0.2,0.3-0.4,0.6-0.6,0.9
			c-0.6,0.8-0.9,1.7-1.1,2.7c-0.2,0.8-0.1,1.6,0.3,2.3c0.5,0.6,1.3,0.8,1.9,0.5c1.7-0.7,2.9-2.1,3.5-3.8
			C230.2,109.5,230.2,108.9,230.1,108.3z"/>
		<path class="st6" d="M225.6,110.2c-0.4-0.1-1.1-0.2-1.3,0.3c-0.2,0.6-0.3,1.2-0.2,1.8c0.1,0.8,0.2,1.3,1,1.6
			c0.7,0.2,1.4,0.1,2-0.2c0.6-0.2,1-0.7,1.2-1.2C228.6,111.1,226.6,110.4,225.6,110.2z"/>
		<path class="st6" d="M228.7,106.8c-0.8-0.4-1.7-0.4-2.4,0.1l-0.1,0.2c0.7-0.2,1.5-0.2,2.2,0.2c0.9,0.6,1.5,1.5,1.6,2.6
			c0.1-0.4,0.2-0.7,0.2-1.1C230.1,107.9,229.6,107.1,228.7,106.8z"/>
		<path class="st24" d="M227.4,114c-0.6,0.3-1.2,0.5-1.9,0.6c-0.8,0-1.5-0.5-1.7-1.2c0,0-0.1-0.1-0.1,0l0,0c-0.1,2,2.7,1.6,3.8,0.9
			C227.7,114.2,227.6,113.9,227.4,114z"/>
		<path class="st24" d="M227.2,119.7c-1-0.2-2.8-0.8-3.6,0.1v0.1c0,0,0,0,0.1,0c0.5-0.1,1-0.2,1.6-0.2c0.6,0.1,1.3,0.2,1.9,0.3
			C227.3,120.1,227.4,119.8,227.2,119.7z"/>
		<path class="st24" d="M225.9,120.6c-0.3-0.1-0.7-0.2-1-0.1c-0.3,0-0.6,0.1-0.8,0.3c0,0-0.1,0.1,0,0.1l0,0c0.3,0.1,0.5,0.1,0.8,0
			c0.3,0,0.6,0.1,0.9,0S226,120.7,225.9,120.6z"/>
		<path class="st23" d="M243.1,93.2c-0.6-0.7-1.4-1.2-2.1-1.7c-0.8-0.6-1.7-1-2.6-1.4c-0.3-0.1-1.6,0.7-1.8,1.3s0.3,1.2,0.7,1.6
			c1.1,1.1,2.6,1.8,4.1,1.9c0.6,0.1,1.3-0.1,1.8-0.5C243.5,94.1,243.5,93.5,243.1,93.2z"/>
		<path class="st6" d="M238.4,90.1c-0.5,0-0.9,0.2-1.2,0.6c-0.3,0.2-0.6,0.5-0.7,0.9c0,0.2,0,0.4,0.2,0.6c0.3-0.4,0.6-0.8,0.9-1.2
			c0.3-0.3,1.1-0.8,1.1-0.8C238.5,90.2,238.4,90.1,238.4,90.1z"/>
		<path class="st6" d="M243.3,93.4c-0.1-0.5-0.6-0.8-1-1.1s-0.9-0.6-1.4-0.9l-0.2-0.1c-0.7,1-1,2.1-0.9,3.3c0.8,0.2,1.6,0.3,2.4,0.3
			c0.6,0,1.1-0.5,1.1-1.1C243.4,93.7,243.4,93.6,243.3,93.4z"/>
		<path class="st25" d="M243.7,94.5c-0.5,1.7-2.3,1.1-3.6,0.9c-0.1,0-0.1,0.1,0,0.2c1.2,0.7,3.6,0.8,3.9-1c0-0.1,0-0.2-0.1-0.2
			C243.8,94.3,243.7,94.4,243.7,94.5L243.7,94.5z"/>
		<path class="st25" d="M248.2,104.2c-1-0.1-2.1,0.1-3,0.7c-0.1,0.1,0,0.3,0.1,0.2c0.4-0.2,0.9-0.3,1.3-0.5c0.5-0.1,1-0.1,1.5-0.2
			C248.3,104.4,248.4,104.2,248.2,104.2z"/>
		<path class="st25" d="M247.9,105.3c-0.6-0.1-1.1,0.1-1.6,0.3v0.1h0.1c0.5-0.1,1-0.2,1.5-0.2C248.1,105.6,248.1,105.3,247.9,105.3z
			"/>
		<path class="st25" d="M255.1,105.5c-0.8-0.3-1.7-0.3-2.4,0.1c-0.1,0,0,0.2,0.1,0.2c0.7-0.2,1.5-0.2,2.3,0
			C255.1,105.8,255.2,105.6,255.1,105.5z"/>
		<path class="st25" d="M255.4,106.5c-0.5-0.2-1.1-0.2-1.6,0c-0.1,0-0.1,0.3,0,0.3c0.2,0,0.5,0,0.7,0c0.3,0,0.5,0.1,0.7,0.1
			S255.5,106.6,255.4,106.5z"/>
		<path class="st24" d="M260.3,107.6c-0.8-0.4-1.6-0.5-2.4-0.4l-0.1,0.1c0,0,0,0,0.1,0.1c0.4,0.1,0.8,0.1,1.2,0.2s0.8,0.2,1.1,0.3
			C260.3,107.8,260.4,107.6,260.3,107.6z"/>
		<path class="st24" d="M260.1,108.4c-0.5-0.1-1-0.1-1.5-0.1l-0.1,0.1c0,0,0,0,0.1,0.1c0.5,0.1,1,0.2,1.5,0.2c0.1,0,0.2-0.1,0.2-0.1
			C260.3,108.4,260.2,108.4,260.1,108.4z"/>
		<path class="st3" d="M122.8,198.1c1.6-2,7.5-8.8,9.8-9.9c1.3-0.6-13.4-31-14.2-31c-4.2-0.4-8.4,1.6-12,3.6
			C102.3,163,87.2,172,82.2,190c-2,7.2,1.8,14.9,8,19.3c3.6,2.3,7.6,3.7,11.8,4c4-0.1,7.9-1.6,10.9-4.2
			C116.9,206,119.7,201.9,122.8,198.1z"/>
		<path class="st4" d="M136.3,184.4c1.3-2.6,0.9-5.8-0.6-8.6c-1.3-2.4-7.6-14.4-8.2-15.1c-3.6-4.3-10.1-4.8-15-2.3
			c-3.7,2.1-6.5,5.5-7.8,9.5c-2.4,8.8,3.4,17.6,11.7,21.1c4.1,1.7,8.7,2.6,12.9,1.1C132.3,189.2,134.8,187.1,136.3,184.4z"/>
		<path class="st5" d="M135.2,177.8c0.1-3.2-1.3-6.2-3-8.9c-1.9-3.1-4.3-6-7.7-7.6c-3.1-1.4-7.1-1.5-9.9,0.7c-1.3,1-3.7,3.2-4.2,8.3
			c-0.3,3.4,1.4,6.7,3.3,9.4c1.9,2.8,4.7,5,7.9,6.2C127.5,187.8,135,184.4,135.2,177.8z"/>
		<path class="st20" d="M149,171.8c0.8-2.7,1.6-5.3,2.5-8c0.9-2.6,2-5.2,3.1-7.8c0.1-0.1,0-0.3-0.1-0.3h-0.1v-0.1l0.9-0.3
			c0.1,0,0.1-0.3-0.1-0.2c-2,0.5-3.8,1.2-5.6,2.3c-1.4,0.9-2.6,2.2-3.3,3.7c-0.6,1.5-0.7,3.2-0.1,4.8c0.7,2.1,1.6,4.1,2.4,6.1
			C148.6,172,148.8,172,149,171.8C149,171.9,149,171.9,149,171.8z"/>
		<path class="st19" d="M183.5,156.2c0.8-4.4-4.1-8.6-8.5-10.2c-4.6-1.8-9.6-2.5-14.5-2.1c-10.8,0.8-21.2,5.1-30.1,11.1
			c-0.3,0.2-5.5,3.8-7.7,5.7c-2,1.7-3.9,3.5-5.7,5.4c-1.3,1.4-3.3,3.1-4,4.9c-1.7,4.1-1.2,7.5,3.2,11.4c5.3,4.8,9.6,4.4,11.1,3.2
			c1.3-1,2.9-3.7,4.3-4.5c2.1-1.1,3.8-2.4,6-1.6l2.1,0.8c2.3,0.8,7.1,1.1,9.2-0.6c4.5-3.7-3.3-10.8-1.9-15.5
			c2.8-7.2,10.3-11.4,17.9-10.1c5.9,1,13.6,3.8,17.3,3.1C182.8,157.3,183.4,156.8,183.5,156.2z"/>
		<path class="st23" d="M184.1,154.8c-0.1-0.7-0.4-1.4-0.8-2c-0.8-1.3-1.7-2.5-2.9-3.4c-0.4-0.3-0.8-0.6-1.3-0.8
			c-1.4,1.1-0.5,3.2,0.2,4.4s2.1,3,3.8,2.8C183.6,155.6,184.1,155.5,184.1,154.8z"/>
		<path class="st6" d="M181.2,150c-0.4-0.4-1.6-1.6-1.9-1.6c-0.6,0-0.9,1-0.9,1.4s0,1.5,0.6,1.6c0.9-0.1,1.7-0.5,2.3-1.1
			C181.4,150.2,181.3,150.1,181.2,150z"/>
		<path class="st6" d="M184,155.3c0.1-0.1,0.1-0.7,0.1-0.7c-0.3,0.2-0.6,0.3-0.9,0.4c-0.3,0-0.6,0-0.9,0c-0.2,0-0.5-0.1-0.7-0.2
			c-0.2-0.1-0.4-0.3-0.7-0.4c-0.1,0-0.2,0-0.2,0.1C181.5,155.6,182.9,156,184,155.3z"/>
		<path class="st22" d="M136.8,170.3c2.4-2.4,6.2-1.9,8.7,0c2.8,2,3,5,4.2,8c2.2,5.3,4.7,7.1,5.9,7.5c1.9,0.8,3.6,2.1,5,3.7
			c0.8,1.2,0.5,2.8-0.7,3.6l-0.1,0.1c-1.2,0.7-3.2,1.2-7.3-0.8c-8.4-4-13.4-11.6-16.4-18c-0.6-1.3-0.4-2.7,0.5-3.8L136.8,170.3z"/>
		<path class="st23" d="M158.5,189.1c-1.7-0.6-3.6-0.5-5.1,0.5c-0.6,0.4-0.9,1.1-0.8,1.8c0.3,0.7,0.9,1.3,1.6,1.6
			c0.8,0.5,1.8,0.7,2.8,0.8c0.3,0,0.7,0.1,1,0.1c0.5,0.1,1-0.1,1.4-0.4c0.2-0.2,0.4-0.5,0.6-0.8c0.4-0.8,0.4-1.9,0-2.7
			C159.6,189.5,159.1,189.2,158.5,189.1z"/>
		<path class="st6" d="M155.7,188.9c-0.6-0.2-1.2-0.1-1.7,0.2c-0.7,0.3-1.2,0.8-1.4,1.5c-0.2,0.8,0.2,1.3,0.8,1.9
			c0.4,0.4,0.9,0.7,1.5,0.8c0.5,0,0.7-0.5,0.9-0.9C156.1,191.6,156.9,189.4,155.7,188.9z"/>
		<path class="st6" d="M160.3,191.9c-0.1,0.8-0.7,1.5-1.5,1.8h-0.3c0.6-0.5,1-1.2,1.2-2c0-0.9-0.2-1.8-0.7-2.6
			c0.3,0.1,0.5,0.2,0.7,0.4C160.3,190.2,160.5,191.1,160.3,191.9z"/>
		<path class="st24" d="M153.8,188.7c-0.6,0.3-1.1,0.7-1.6,1.1c-0.5,0.6-0.5,1.4-0.1,2v0.1H152c-1.7-1.2,0.4-3.2,1.6-3.6
			C153.8,188.3,154,188.6,153.8,188.7z"/>
		<path class="st24" d="M149.2,185.4c-0.4,1-1.1,2.7-2.3,2.8c-0.1,0-0.1,0-0.1-0.1V188c0.4-0.3,0.8-0.7,1.1-1.1
			c0.3-0.5,0.6-1.1,0.9-1.7C148.9,185,149.3,185.1,149.2,185.4z"/>
		<path class="st24" d="M147.6,185.9c-0.1,0.3-0.3,0.6-0.5,0.9c-0.2,0.3-0.4,0.4-0.7,0.5c0,0-0.1,0-0.1-0.1l0,0
			c0.1-0.2,0.3-0.5,0.5-0.6c0.2-0.2,0.3-0.5,0.5-0.7S147.7,185.7,147.6,185.9z"/>
		<path class="st26" d="M188.7,165.3c-1.5-6.1-5.8-11.2-11.7-13.5c0,0-0.1-0.1-0.2-0.1c-1.6-0.6-4-1.4-4.3-3.2
			c-0.1-0.6-0.1-1.3,0-1.9c0.1-1.2,0.2-2.5,0.2-3.8c-0.1-1.8-1.3-2.6-3-2.8c-1.5-0.2-2.8,0.1-3.1,1.7c-0.5,2,0,4.4-0.6,6.4
			c-0.5,1.7-2.1,2.3-3.7,3.1c-3.3,0.9-6.3,2.7-8.7,5.1c-6.6,6.8-7.5,17.2-2.3,25.1c5.6,8.2,16.2,11.3,25.3,7.3
			C185.6,184.8,190.6,175,188.7,165.3z M154.6,182.1c-5.5-6.3-5.9-15.6-0.9-22.3c2.1-2.9,5.1-5.1,8.5-6.2c0.2,0.1,0.4,0.1,0.6,0
			c3.1-0.8,6.3-1,9.5-0.6c0.7,0.1,1.5,0.3,2.2,0.4c0.5,0.1,1.1,0.3,1.6,0.5c4.4,1.7,7.9,5,9.6,9.4c3.1,8-0.5,17.5-7.6,22
			C170.5,190.1,160.6,188.7,154.6,182.1z"/>
		<path class="st27" d="M187,170.4c0.6-9.5-6.6-17.7-16.2-18.3c-0.3,0-0.6,0-0.8,0c-7.9,0-16.5,3.9-19.2,11.5
			c-2.1,5.9-0.2,13.7,3.6,18.6c2.5,3.2,8.8,6,11.7,6.3C177.3,189.6,186.9,181.9,187,170.4z"/>
		<path class="st28" d="M174.3,180.4c5.9-3.5,7.8-11.9,4.2-17.9c-3.3-5.5-10.4-6.4-15.6-3.5c-0.8,0.4-1.6,0.8-2.3,1.4
			c-5,4-6.1,11.1-2.6,16.5C161.7,182.2,168.8,183.7,174.3,180.4z"/>
		<path class="st29" d="M179.6,168.4c-0.5-3.4-1.3-6.3-3.9-8c-2.6-1.9-6.7-2.2-9.4-1.4c-0.5,0.2-0.7,0.8-0.4,1.3
			c0.1,0.1,0.1,0.2,0.2,0.3c3.6,2.1,5.8,5.9,5.8,10.1c0.1,2.5,1,6.8,4.6,5.6C179.6,175.4,180,170.9,179.6,168.4z"/>
		<path class="st25" d="M178.2,151.6c-0.4-0.5-0.6-1.2-0.6-1.9c0.1-0.6,0.4-1.1,0.8-1.5c0.1-0.1,0-0.2-0.1-0.1
			c-1.4,0.4-1.6,3.1-0.3,3.8C178.1,151.9,178.2,151.8,178.2,151.6z"/>
		<path class="st25" d="M163,148.2c0.1-0.7,0-1.5-0.2-2.2c-0.1-0.7-0.3-1.3-0.6-1.8c-0.1-0.1-0.2,0-0.2,0.1l0,0
			c0.1,0.7,0.2,1.3,0.4,1.9c0.1,0.6,0.1,1.3,0.3,2c0,0.1,0.2,0.1,0.2,0.1C163,148.3,163,148.2,163,148.2z"/>
		<path class="st25" d="M163.8,147.7c0.1-0.6,0.1-1.1,0.1-1.7c0-0.5,0-1.2-0.4-1.6h-0.1c-0.2,0.4,0,1,0,1.5s0,1.1,0,1.7
			c0,0.1,0.1,0.2,0.2,0.2S163.7,147.8,163.8,147.7L163.8,147.7z"/>
		<path class="st30" d="M278.7,127.7c-1.1,1.7-2,4.7-1,6.4c0.4,0.7,1,1.3,1.7,1.7c1.1,0.9,12.9,8.9,17.8,11.8c1.2,0.7,4,2.2,5.3,2.1
			s2.6-1.3,3.5-2.4c0.3-0.4,21.4-30.5,26.8-40c0.5-1.2,0.2-2.6-0.9-3.4C328,101.3,280.1,128.6,278.7,127.7z"/>
		<path class="st11" d="M318.4,94.3c-1-0.7-10.2-6.2-11.5-6c-0.5,0.1-1.2,0.7-2,1.7c-0.5,0.6-0.9,1.3-1.4,2
			c-0.2,0.4-23.4,33.4-23.6,33.7c-1.1,1.7-3,4.4-1.8,5.9c0.8,0.9,1.6,1.7,2.5,2.4c1.1,0.9,12.9,8.9,17.8,11.8
			c1.2,0.7,2.5,1.7,3.9,1.8c1,0,1.9-0.5,2.4-1.4c3-4.3,27-39,27.4-39.9c0.5-1.1,0.2-2.3-0.7-3C330.6,102.7,326,99.5,318.4,94.3z"/>
		<path class="st3" d="M317.1,96.8c-0.8-0.6-8.5-5-9.5-4.9c-0.5,0.1-1,0.6-1.7,1.4c-0.4,0.5-0.8,1.1-1.1,1.6
			c-0.2,0.3-19.5,27.7-19.7,27.9c-0.9,1.4-2.5,3.7-1.5,4.9c0.6,0.7,1.3,1.4,2.1,2c0.9,0.8,10.8,7.4,14.9,9.8c0.9,0.7,2,1.2,3.2,1.5
			c0.8,0,1.6-0.4,2-1.2c2.5-3.6,22.5-32.5,22.9-33.3c0.4-0.9,0.2-1.9-0.6-2.5C327.3,103.7,323.5,101.1,317.1,96.8z"/>
		<path class="st30" d="M293.6,137.9c0.1-1.1-0.8-2.1-1.9-2.2c-0.6-0.1-1.3,0.2-1.6,0.8l0,0c-0.3,0.3-0.4,0.7-0.5,1.1
			c-0.1,0.7,0.3,1.4,0.9,1.8c0.6,0.4,1.4,0.4,2,0.1C293.1,139.3,293.6,138.6,293.6,137.9z"/>
		<path class="st6" d="M309,110.6c-3.6-1.8-7.9-0.4-9.7,3.2c-1,2.1-1,4.5,0,6.5c0.3-0.5,0.6-0.9,0.9-1.4l0.1-0.2
			c-0.9-3,0.7-6.1,3.7-7.1c3-0.9,6.1,0.7,7.1,3.7s-0.7,6.1-3.7,7.1c-2.1,0.7-4.5,0-6-1.7c-0.2,0.4-0.4,0.8-0.6,1.1l-0.2,0.3
			c2.8,2.8,7.4,2.8,10.2,0c2.8-2.8,2.8-7.4,0-10.2C310.3,111.4,309.7,110.9,309,110.6z"/>
		<path class="st6" d="M300,122.8c-0.1-0.2-0.2-0.4-0.3-0.7h-0.1c-0.3,0.1-0.5,0.2-0.8,0.3c-0.1,0-0.1,0.4,0,0.4
			c0.2,0,0.4-0.1,0.6-0.2c0,0.2,0.1,0.4,0.2,0.5C299.8,123.1,300.1,122.9,300,122.8z"/>
		<path class="st6" d="M303.2,117.7c0-0.2-0.5-0.3-0.6-0.6c0-0.1-0.1-0.1-0.1-0.2h-0.1c-0.7,0.6-1.3,1.3-1.8,2.1
			c-0.7,0.9-1.2,1.8-1.5,2.9l0,0c0.1,0.1,0.7-0.3,0.9-0.2l0,0c0.1,0.1,0.2,0.6,0.3,0.6l0,0c0.1,0,0.7-1.3,1.6-2.7
			C302.1,119,302.6,118.3,303.2,117.7z"/>
		<path class="st6" d="M302.1,116.9c-0.3-0.4-0.5-0.9-0.8-1.4c-0.3-0.3-0.8,0.6-0.8,1c0,0.1-0.3,0.1-0.2,0.3
			c0.2,0.5,0.4,0.9,0.7,1.2C301.4,117.6,301.8,117.2,302.1,116.9z"/>
		<path class="st6" d="M309.6,119.7c-1.7,0.3-3.5,0-5-0.8c-0.5-0.3-1-0.6-1.5-0.9c-0.2,0.2-0.5,0.6-0.9,1.2c0.5,0.4,1.1,0.8,1.7,1.1
			c1.6,0.8,3.4,1.2,5.2,0.9C309.5,121,310,119.6,309.6,119.7z"/>
		<path class="st31" d="M81.8,65.9c-1-0.8-23,45.9-23.5,46.3c0.6,0.7,2.5,5.8,4.1,6.8c2.8-5.3,17.6-35.3,20.3-41.4
			S84.5,68.1,81.8,65.9z"/>
		<path class="st32" d="M7.3,67.1c-0.7,1.4-7,14.5-6.6,16.2c0.2,0.7,1.1,1.4,2.6,2.3c0.9,0.5,1.8,1,2.7,1.4
			c0.5,0.2,47.7,23.2,48.2,23.4c2.4,1.1,6.2,3.1,7.9,1.2c1.1-1.2,16.7-32.1,19.4-38.8c0.7-1.6,1.7-3.4,1.6-5.2
			c-0.2-1.2-1-2.3-2.2-2.8c-6-3.1-52.6-25.3-53.9-25.7c-1.4-0.4-3,0.2-3.7,1.5C22.7,41.6,12.5,56.5,7.3,67.1z"/>
		<path class="st4" d="M63.4,119.5c0-0.8-1.7-1.7-1.9-3.9c-0.1-1.3,0.3-2.7,1.1-3.8c0.6-0.8,0.3-2-0.5-2.5c-0.1,0-0.1-0.1-0.2-0.1
			C52.1,104.3,11.2,83.6,3,79.3c-0.7-0.4-1.6-0.1-2,0.6C1,80,0.9,80,0.9,80.1C-1.7,87,2.2,90.3,5.6,92c0.9,0.5,1.8,0.9,2.7,1.3
			c0.4,0.2,42.4,21.9,53.1,26.8C62.1,120.5,63,120.2,63.4,119.5z"/>
		<path class="st33" d="M63.3,155.1c-0.4-0.6-0.8,0.3-1,0.8c-1.9-0.3-3.7-1.1-5.3-2.4l0.2-0.5c0.1-0.1,0.1-0.3,0.1-0.4
			c-0.1-0.3-0.3-0.5-0.6-0.4c-0.5,0-0.9,0.4-1,0.8c-1.1,1.9-1.9,3.4-2.4,4.2c-0.3,0.5-0.3,1-0.2,1.5c0.7,2.5,4.1,4,6.3,3.5
			c0.3-0.1,0.6-0.3,0.8-0.6l2.7-5l0,0C63.4,156.2,63.5,155.6,63.3,155.1z"/>
		<path class="st34" d="M74.2,133.2c-1.6,0.1-3.1-0.6-3.9-2c-0.1-0.3-0.5-0.4-0.7-0.3c-0.1,0.1-0.2,0.2-0.3,0.3
			c-1.9,3.4-8.4,14.7-12.6,21.9c-0.2,0.3-0.2,0.6,0,0.9c0.7,0.8,1.6,1.4,2.6,1.7c0.8,0.3,1.6,0.6,2.4,0.7c0.3,0,0.7-0.1,0.8-0.4
			c4.1-7.6,10.4-19,12-21.9C74.7,133.7,74.6,133.2,74.2,133.2z"/>
		<path class="st33" d="M74.5,128.7c0-0.2,0-0.4,0-0.6c0-0.1-0.1-0.1-0.2-0.1l0,0l0,0c-0.4,0-1.5,0.7-0.8,1.1
			c0.2,0.1,0.6,0.4,0.8,0.1C74.5,129.1,74.5,128.9,74.5,128.7z"/>
		<path class="st35" d="M49.2,134.8c0.3-0.4,1-0.9,0.4-1.3c-0.4-0.3-4.6-1.2-5.2-0.6c-0.3,0.3-0.4,0.7-0.4,1.2c0,0.3,0,0.7,0,1
			c0,0.8,0.4,1.6,1,2.1C45.7,137.7,46.5,137.6,49.2,134.8z"/>
		<path class="st36" d="M23.2,145c0.1-0.6-0.8-0.3-1.3-0.1c-1.1-1.6-1.9-3.4-2.1-5.4l0.5-0.2c0.1,0,0.3-0.1,0.4-0.2
			c0.1-0.2,0.1-0.6-0.1-0.8c-0.4-0.3-0.9-0.4-1.3-0.1c-2.1,0.6-3.8,1-4.6,1.3c-0.5,0.1-0.9,0.5-1.2,0.9c-1.3,2.3,0.1,5.7,2,6.9
			c0.3,0.2,0.7,0.2,1,0.1l5.5-1.6l0,0C22.6,145.9,23.1,145.5,23.2,145z"/>
		<path class="st37" d="M46.4,137.2c-1.2-1-1.7-2.7-1.3-4.2c0.1-0.3-0.1-0.6-0.4-0.7c-0.1,0-0.2,0-0.3,0c-3.7,1-16.4,4.4-24.4,6.6
			c-0.3,0.1-0.6,0.3-0.6,0.7c-0.1,1.2,0,2.5,0.4,3.6c0.2,0.7,0.7,1.2,1.3,1.6c0.3,0.2,0.6,0.3,1,0.3l24-7
			C46.5,138,46.7,137.5,46.4,137.2z"/>
		<path class="st36" d="M49.8,134.2c0.1-0.2,0.3-0.3,0.4-0.5c0-0.1,0-0.2,0-0.2l0,0l0,0c-0.4-0.2-1.6-0.4-1.3,0.4
			c0.1,0.2,0.3,0.7,0.5,0.6C49.6,134.4,49.7,134.3,49.8,134.2z"/>
		<path class="st3" d="M297.2,39c-0.5-4.6-2.8-8.7-6.2-11.7c-0.6-1-1.5-1.8-2.5-2.4c-2.1-1.3-4.7-1.6-7.1-1.9
			c-5.1-0.6-10.4-0.9-15,1.7c-9.1,5.1-8.9,16.5-5.3,25c0.9,2.3,2.3,4.3,3.9,6.1c0.9,0.9,1.8,1.8,2.9,2.5c0.3,0.2,0.6,0.4,0.9,0.7
			c5.4,4.6,13.2,3,18,0.3C296.3,54.2,298.1,47.2,297.2,39z"/>
		<path class="st11" d="M294.8,42.3c0.2-7.5-4.7-14.1-11.8-16.2c-1.2-0.5-2.4-1-3.6-1.2c-4.1-0.9-8.3,0-11.6,2.5
			c-3.4,2.4-6,5.7-6.6,9.9c-0.5,4.1,0.2,8.2,2.1,11.9c3.4,6.7,10.9,11.2,18.5,9.5S294.5,49.9,294.8,42.3z"/>
		<path class="st35" d="M289.6,40.5c1.9-4.2,1.4-11.3,1-13.6c-1.4-8.5-7.2-19.1-22.6-26.4c-1.5-0.7-3.7-0.8-4.9,0.8
			c-0.5,0.7-0.8,1.5-1,2.3c-0.3,1.1-0.5,2.1-0.6,3.2c-0.3,2-0.4,3.9-0.3,5.9c0.1,7.5,1.9,15.6,6.7,21.5c2.6,3.4,6.3,5.9,10.5,7
			c0.2,0,2.1,0.9,2.9,1.3c1.1,0.7,2.3,1.3,3.6,1.8C287.4,45.1,288.8,42.4,289.6,40.5z"/>
		<path class="st37" d="M285.1,36c0.3-2.7-0.7-5.4-1.6-7.9c-0.9-2.6-2-5.1-3.3-7.5s-2.8-4.7-4.5-6.8c-0.8-1-1.7-2-2.7-3
			c-0.9-0.8-1.9-2.1-3.1-2.3c-0.3-0.1-0.6,0.1-0.6,0.4c0,0.1,0,0.2,0,0.2c0.3,1.1,1.4,2.2,2.1,3.1s1.6,2.1,2.4,3.1
			c1.5,2.1,2.9,4.3,4.1,6.5s2.2,4.6,3.1,7c0.9,2.5,1.2,5.1,2.4,7.5c0.3,0.5,0.9,0.6,1.4,0.3C284.9,36.5,285,36.3,285.1,36z"/>
		<path class="st37" d="M270.9,17.2L270.9,17.2c0.1-0.2,0.2-0.4,0.2-0.6c0-0.3-0.1-0.5-0.4-0.6c-0.2-0.1-0.4-0.2-0.6-0.1
			c-0.2,0-0.5,0.2-0.6,0.4l0,0c-0.1,0.2-0.1,0.4,0,0.6s0.2,0.3,0.3,0.4C270.2,17.5,270.6,17.5,270.9,17.2z"/>
		<path class="st37" d="M277.5,26.4c0-0.3-0.2-0.6-0.5-0.6l0,0c-0.4-0.1-0.7,0.2-0.8,0.5l0,0c0,0.1,0,0.2,0,0.4
			c0,0.1,0.1,0.3,0.3,0.4c0.2,0.2,0.5,0.2,0.8,0C277.4,26.9,277.5,26.7,277.5,26.4z"/>
		<path class="st37" d="M282,17.6c0.2-0.2,0.2-0.5,0-0.7s-0.4-0.3-0.7-0.2c-0.1,0-0.3,0.1-0.4,0.3l0,0c-0.2,0.2-0.2,0.5,0,0.7
			c0.1,0.2,0.4,0.3,0.6,0.2l0,0C281.7,17.8,281.9,17.7,282,17.6z"/>
		<path class="st36" d="M284.6,41.7c-7.2-10.4-19.7-10.5-23.5-9.9c-4.3,0.7-8.6,1.9-12.6,3.6c-2,0.8-3.9,1.8-5.8,2.8
			c-0.9,0.5-1.8,1-2.6,1.6c-0.8,0.5-1.7,1-2,1.9c-0.2,0.8,0.1,1.7,0.7,2.3c0.8,0.8,1.7,1.5,2.6,2.1c1.6,1.3,3.3,2.6,5,3.7
			c6.4,4.4,14.4,7.4,22.2,5.5c0.5-0.1,1-0.3,1.6-0.5c0.2-0.1,0.4-0.1,0.6-0.1c1.8-0.4,3.5-1,5.1-2c1.4-0.9,2.7-1.8,4-2.9l1-0.8
			c0.7-0.5,1.5-0.8,2.4-0.8c0.5,0,1-0.1,1.5-0.3C287.3,46.9,285.7,43.3,284.6,41.7z"/>
		<path class="st38" d="M284.1,44.5c-1.1-0.7-2.2-1.2-3.5-1.6c-1.1-0.4-2.3-0.8-3.5-1c-2.6-0.4-5.2-0.6-7.8-0.5
			c-5.4,0.1-10.8,0.5-16.2,0.2c-0.4,0-0.8,0.4-0.7,0.8c0,0.3,0.2,0.6,0.5,0.7c5.1,1.7,10.5,1.1,15.8,1c2.5-0.1,5,0,7.5,0.1
			c1.2,0.1,2.4,0.1,3.6,0.3c0.6,0.1,1.3,0.2,1.9,0.4s1.2,0.5,1.9,0.6c0.3,0.1,0.6,0,0.7-0.3S284.4,44.6,284.1,44.5z"/>
		<path class="st38" d="M264.3,48.9L264.3,48.9c0.1-0.2,0.1-0.4,0.1-0.6c0-0.4-0.4-0.8-0.8-0.8c-0.2,0-0.4,0-0.6,0.1
			c-0.5,0.3-0.6,0.8-0.4,1.3c0.2,0.3,0.5,0.5,0.8,0.5l0,0C263.8,49.4,264.1,49.2,264.3,48.9z"/>
		<path class="st38" d="M260,38.8c0.1-0.1,0.2-0.2,0.2-0.4l0,0c0-0.2,0-0.3,0-0.5s-0.2-0.4-0.3-0.5c-0.1-0.1-0.3-0.2-0.4-0.2
			c-0.2,0-0.4,0-0.6,0.1l0,0c-0.4,0.2-0.6,0.8-0.3,1.2c0.2,0.4,0.6,0.5,1,0.4C259.8,39,259.9,38.9,260,38.8z"/>
		<path class="st38" d="M273.1,38.5c0.3-0.4,0.3-0.9-0.1-1.2c-0.3-0.2-0.6-0.3-0.9-0.2c-0.1,0.1-0.3,0.2-0.4,0.3s-0.1,0.1-0.1,0.2
			c-0.1,0.2-0.1,0.4,0,0.6c0.1,0.2,0.2,0.3,0.4,0.3l0,0h0.1l0.2,0.1C272.6,38.8,272.9,38.7,273.1,38.5z"/>
		<g class="st39">
			<path class="st11" d="M29.1,80.7l-0.7,1.2l-1-0.5l2-3.5l0.9,0.5l-0.8,1.6l4,1.9l-0.4,0.8L29.1,80.7z"/>
		</g>
		<g class="st39">
			<path class="st11" d="M30.4,78.5l0.2-1l0.7,0.3c-0.1-0.3-0.1-0.6-0.1-1c0-0.4,0.1-0.7,0.2-1.1l1,0.4c-0.1,0.2-0.2,0.4-0.2,0.7
				c-0.1,0.2-0.1,0.5-0.1,0.7c0,0.2,0,0.4,0.1,0.5c0.1,0.2,0.1,0.3,0.3,0.3l2.4,1.1l-0.4,0.8L30.4,78.5z"/>
		</g>
		<g class="st39">
			<path class="st11" d="M34.2,77.2c-0.2-0.1-0.3-0.2-0.4-0.4c-0.1-0.2-0.2-0.4-0.2-0.7c0-0.3,0-0.6,0-0.9c0.1-0.3,0.1-0.7,0.3-1.1
				c-0.2,0-0.3,0-0.5,0c-0.1,0-0.3,0.1-0.3,0.3c-0.1,0.1-0.1,0.3-0.1,0.4s0.1,0.3,0.2,0.5l-0.7,0.4c-0.2-0.3-0.3-0.6-0.3-0.9
				c0-0.3,0.1-0.6,0.2-0.9c0.1-0.3,0.3-0.4,0.4-0.6c0.2-0.1,0.4-0.2,0.6-0.2c0.2,0,0.4,0,0.7,0.1c0.2,0.1,0.5,0.1,0.7,0.3
				c0.2,0.1,0.4,0.2,0.6,0.4c0.2,0.1,0.4,0.3,0.6,0.4c0.2,0.1,0.4,0.3,0.5,0.4c0.2,0.1,0.3,0.3,0.4,0.4c-0.3,0.5-0.6,0.9-0.9,1.2
				c-0.3,0.3-0.5,0.6-0.8,0.7c-0.2,0.2-0.5,0.3-0.6,0.3C34.6,77.3,34.4,77.3,34.2,77.2z M34.5,76.3c0.1,0.1,0.3,0,0.5-0.1
				c0.2-0.2,0.4-0.5,0.7-0.9c-0.1-0.1-0.1-0.1-0.2-0.2c-0.1-0.1-0.2-0.1-0.3-0.2c-0.1-0.1-0.2-0.1-0.3-0.2c-0.1-0.1-0.2-0.1-0.4-0.2
				c-0.1,0.2-0.2,0.4-0.2,0.6c-0.1,0.2-0.1,0.4-0.1,0.6c0,0.2,0,0.3,0.1,0.4C34.3,76.2,34.4,76.3,34.5,76.3z"/>
		</g>
		<g class="st39">
			<path class="st11" d="M33.1,72.6l0.6-1l3.2,1.1l-2.4-2.4l0.7-1l2.9,3.6l-0.6,0.9L33.1,72.6z"/>
		</g>
		<g class="st39">
			<path class="st11" d="M38.5,69.3c0.2-0.1,0.3-0.1,0.4-0.2c0.1-0.1,0.2-0.2,0.3-0.3c0-0.1,0.1-0.1,0.1-0.2c0-0.1,0-0.2,0-0.4
				s0-0.3,0-0.4c0-0.2-0.1-0.3-0.2-0.5l0.7-0.2c0.2,0.3,0.2,0.7,0.3,1c0,0.4-0.1,0.7-0.3,1.1c-0.1,0.3-0.3,0.5-0.5,0.7
				c-0.2,0.2-0.5,0.3-0.7,0.4c-0.3,0.1-0.6,0.1-0.9,0.1c-0.3,0-0.6-0.1-1-0.3c-0.2-0.1-0.4-0.2-0.6-0.4s-0.3-0.4-0.4-0.6
				c-0.1-0.2-0.1-0.5-0.1-0.7c0-0.3,0.1-0.5,0.2-0.8c0.1-0.2,0.2-0.4,0.4-0.5c0.2-0.1,0.4-0.3,0.6-0.3c0.2-0.1,0.4-0.1,0.7-0.2
				s0.5,0,0.7,0L38.5,69.3z M37.6,67.3c-0.2,0-0.4,0.1-0.6,0.2c-0.2,0.1-0.3,0.2-0.4,0.4c-0.1,0.1-0.1,0.3-0.1,0.4
				c0,0.1,0,0.3,0.1,0.4c0.1,0.1,0.1,0.2,0.2,0.3c0.1,0.1,0.2,0.2,0.3,0.2c0.2,0.1,0.4,0.1,0.6,0.2L37.6,67.3z"/>
			<path class="st11" d="M36.3,64.6L36,65l-0.7-0.4l1-1.1l4.1,2.6l0.1-0.8l0.8,0.5l-0.7,1.6L36.3,64.6z"/>
		</g>
		<g class="st39">
			<path class="st11" d="M41.6,88.1c0,0-0.1-0.1-0.3-0.1c-0.1-0.1-0.3-0.2-0.6-0.3c-0.3-0.1-0.6-0.3-1.1-0.6c-0.5-0.2-1.1-0.6-1.8-1
				l0.6-0.7l0.4,0.2c-0.1-0.2-0.2-0.4-0.2-0.6s0-0.4,0.1-0.6c0.1-0.2,0.2-0.3,0.3-0.4s0.2-0.1,0.4-0.2c0.1,0,0.3,0,0.4,0
				s0.3,0,0.5,0.1c-0.2-0.2-0.4-0.5-0.5-0.7c-0.1-0.2-0.1-0.5,0-0.7c0.1-0.2,0.3-0.4,0.6-0.5c0.3-0.1,0.5-0.1,0.9-0.1
				c0.3,0,0.7,0.1,1,0.2c0.4,0.1,0.7,0.3,1,0.4c0.2,0.1,0.5,0.2,0.7,0.4c0.2,0.1,0.4,0.3,0.6,0.4l-0.6,0.9c-0.1,0-0.1-0.1-0.3-0.2
				c-0.1-0.1-0.2-0.2-0.4-0.3c-0.2-0.1-0.3-0.2-0.5-0.3c-0.2-0.1-0.4-0.2-0.5-0.3c-0.2-0.1-0.3-0.1-0.5-0.2s-0.3-0.1-0.4-0.1
				c-0.1,0-0.2,0-0.3,0S40.8,83,40.8,83c-0.1,0.1-0.1,0.2,0,0.4s0.2,0.3,0.3,0.4c0.1,0.1,0.3,0.3,0.5,0.4c0.2,0.1,0.4,0.3,0.6,0.4
				c0.2,0.1,0.4,0.2,0.6,0.4c0.2,0.1,0.4,0.2,0.5,0.3l-0.2,0.4c0,0.1-0.1,0.2-0.1,0.2c0,0.1-0.1,0.2-0.2,0.3c-0.1,0-0.2-0.1-0.3-0.2
				c-0.1-0.1-0.3-0.2-0.5-0.3c-0.2-0.1-0.4-0.2-0.6-0.4c-0.2-0.1-0.4-0.2-0.6-0.3c-0.1-0.1-0.3-0.1-0.4-0.2c-0.1,0-0.2-0.1-0.4-0.1
				c-0.1,0-0.2,0-0.3,0c-0.1,0-0.1,0.1-0.2,0.2c-0.1,0.1-0.1,0.2,0,0.4c0.1,0.1,0.2,0.3,0.3,0.4c0.1,0.1,0.3,0.3,0.5,0.4
				s0.4,0.3,0.6,0.4c0.2,0.1,0.4,0.2,0.6,0.4c0.2,0.1,0.4,0.2,0.5,0.3L41.6,88.1L41.6,88.1z"/>
			<path class="st11" d="M43.2,82.1c-0.2-0.1-0.3-0.2-0.4-0.4c-0.1-0.2-0.2-0.4-0.2-0.7c0-0.3,0-0.6,0-0.9c0.1-0.3,0.1-0.7,0.3-1.1
				c-0.2,0-0.3,0-0.5,0c-0.1,0-0.3,0.1-0.3,0.3C42,79.5,42,79.6,42,79.7s0.1,0.3,0.2,0.5l-0.7,0.4c-0.2-0.3-0.3-0.6-0.3-0.9
				c0-0.3,0.1-0.6,0.2-0.9c0.1-0.3,0.3-0.4,0.4-0.6c0.2-0.1,0.4-0.2,0.6-0.2s0.4,0,0.7,0.1c0.2,0.1,0.5,0.2,0.7,0.3
				c0.2,0.1,0.4,0.2,0.6,0.4c0.2,0.1,0.4,0.3,0.6,0.4c0.2,0.1,0.4,0.3,0.5,0.4c0.2,0.1,0.3,0.3,0.4,0.4c-0.3,0.5-0.6,0.9-0.9,1.2
				c-0.3,0.3-0.5,0.6-0.8,0.7c-0.2,0.2-0.5,0.3-0.6,0.3C43.5,82.2,43.4,82.2,43.2,82.1z M43.5,81.2c0.1,0.1,0.3,0,0.5-0.1
				c0.2-0.2,0.4-0.5,0.7-0.9c-0.1-0.1-0.1-0.1-0.2-0.2c-0.1-0.1-0.2-0.1-0.3-0.2c-0.1-0.1-0.2-0.1-0.3-0.2c-0.1-0.1-0.2-0.1-0.4-0.2
				c-0.1,0.2-0.2,0.4-0.2,0.6c-0.1,0.2-0.1,0.4-0.1,0.6c0,0.2,0,0.3,0.1,0.4C43.3,81.1,43.3,81.2,43.5,81.2z"/>
			<path class="st11" d="M46.8,78.3c0.4-0.1,0.6-0.1,0.8-0.2c0.2-0.1,0.3-0.2,0.4-0.4c0.1-0.2,0.1-0.4,0.1-0.6
				c-0.1-0.2-0.2-0.3-0.4-0.5c-0.2,0.2-0.4,0.5-0.7,0.8c-0.3,0.3-0.5,0.5-0.8,0.7c-0.3,0.2-0.6,0.3-1,0.4c-0.3,0.1-0.7,0-1-0.2
				c-0.2-0.1-0.4-0.3-0.6-0.6c-0.1-0.3-0.2-0.6-0.3-0.9c0-0.4,0-0.8,0-1.2c0.1-0.4,0.2-0.9,0.4-1.4c0.2,0,0.4,0.1,0.7,0.1
				c0.3,0.1,0.6,0.1,0.9,0.2c0.3,0.1,0.7,0.2,1,0.3c0.3,0.1,0.7,0.3,1,0.4c0.3,0.1,0.6,0.3,0.8,0.5s0.5,0.4,0.6,0.6s0.2,0.5,0.3,0.8
				c0,0.3,0,0.6-0.2,0.9c-0.2,0.3-0.4,0.6-0.7,0.7C47.8,78.9,47.4,79,47,79L46.8,78.3z M44.8,77.4c0.2,0.1,0.4,0.1,0.6,0.1
				s0.4-0.1,0.6-0.3c0.2-0.1,0.4-0.3,0.5-0.5c0.2-0.2,0.3-0.4,0.4-0.5l0,0c-0.2-0.1-0.4-0.2-0.6-0.2c-0.2-0.1-0.4-0.1-0.6-0.2
				c-0.2-0.1-0.4-0.1-0.6-0.2c-0.2,0-0.4-0.1-0.6-0.1c-0.1,0.2-0.1,0.4-0.1,0.6c0,0.2,0,0.4,0,0.6c0,0.2,0.1,0.3,0.1,0.5
				S44.7,77.3,44.8,77.4z"/>
			<path class="st11" d="M46.8,74.8c-0.2-0.1-0.3-0.2-0.4-0.4c-0.1-0.2-0.2-0.4-0.2-0.7c0-0.3,0-0.6,0-0.9c0.1-0.3,0.1-0.7,0.3-1.1
				c-0.2,0-0.3,0-0.5,0s-0.3,0.1-0.3,0.3c-0.1,0.1-0.1,0.3-0.1,0.4c0,0.1,0.1,0.3,0.2,0.5l-0.7,0.4c-0.2-0.3-0.3-0.6-0.3-0.9
				c0-0.3,0.1-0.6,0.2-0.9c0.1-0.3,0.3-0.4,0.4-0.6c0.2-0.1,0.4-0.2,0.6-0.2c0.2,0,0.4,0,0.7,0.1c0.2,0.1,0.5,0.2,0.7,0.3
				c0.2,0.1,0.4,0.2,0.6,0.4c0.2,0.1,0.4,0.3,0.6,0.4s0.4,0.3,0.5,0.4c0.2,0.1,0.3,0.3,0.4,0.4c-0.3,0.5-0.6,0.9-0.9,1.2
				c-0.3,0.3-0.5,0.6-0.8,0.7c-0.2,0.2-0.5,0.3-0.6,0.3C47.1,74.9,46.9,74.8,46.8,74.8z M47,73.8c0.1,0.1,0.3,0,0.5-0.1
				c0.2-0.2,0.4-0.5,0.7-0.9c-0.1-0.1-0.1-0.1-0.2-0.2s-0.2-0.1-0.3-0.2c-0.1-0.1-0.2-0.1-0.3-0.2C47.3,72,47.2,72,47,71.9
				c-0.1,0.2-0.2,0.4-0.2,0.6c-0.1,0.2-0.1,0.4-0.1,0.6c0,0.2,0,0.3,0.1,0.4C46.9,73.7,46.9,73.8,47,73.8z"/>
			<path class="st11" d="M47.2,68.7l-0.5,1.6L45.9,70l1.1-2.9l2.8,3.1l0.7-1.9l0.7,0.6l-1.2,2.9L47.2,68.7z"/>
			<path class="st11" d="M45.9,66l0.5-0.8l0.9,0.4l-0.3,0.9L45.9,66z M47.4,66.9l0.3-0.8l3.8,2l-0.2,0.8L47.4,66.9z"/>
			<path class="st11" d="M48.3,65.9l0.1-0.9l0.9,0.3c-0.6-0.6-0.8-1.1-0.6-1.6c0.1-0.3,0.3-0.4,0.6-0.6c0.3-0.1,0.6-0.2,1-0.2
				c0.4,0,0.9,0.1,1.4,0.2s1,0.3,1.6,0.6l0.2,0.1L53.1,65l-0.5-0.3c-0.2-0.1-0.4-0.2-0.6-0.3c-0.6-0.3-1.1-0.4-1.5-0.5
				s-0.6,0.1-0.7,0.3c-0.1,0.1-0.1,0.2,0,0.4c0,0.1,0.1,0.3,0.3,0.4c0.1,0.1,0.3,0.3,0.5,0.4s0.4,0.3,0.7,0.4
				c0.1,0.1,0.3,0.1,0.5,0.2c0.2,0.1,0.3,0.1,0.5,0.2l0.3,0.1l-0.2,0.9L48.3,65.9z"/>
			<path class="st11" d="M53.4,61.8c0.2-0.1,0.3-0.1,0.4-0.2c0.1-0.1,0.2-0.2,0.3-0.3c0-0.1,0.1-0.1,0.1-0.2c0-0.1,0-0.2,0-0.4
				c0-0.1,0-0.3,0-0.4c0-0.2-0.1-0.3-0.2-0.5l0.7-0.2c0.2,0.3,0.2,0.7,0.3,1c0,0.4-0.1,0.7-0.3,1.1c-0.1,0.3-0.3,0.5-0.5,0.7
				c-0.2,0.2-0.5,0.3-0.7,0.4c-0.3,0.1-0.6,0.1-0.9,0.1s-0.6-0.1-1-0.3c-0.2-0.1-0.4-0.2-0.6-0.4c-0.2-0.2-0.3-0.4-0.4-0.6
				c-0.1-0.2-0.1-0.5-0.1-0.7s0.1-0.5,0.2-0.8c0.1-0.2,0.2-0.4,0.4-0.5c0.2-0.1,0.4-0.3,0.6-0.3c0.2-0.1,0.4-0.1,0.7-0.2
				c0.2,0,0.5,0,0.7,0L53.4,61.8z M52.5,59.9c-0.2,0-0.4,0.1-0.6,0.2c-0.2,0.1-0.3,0.2-0.4,0.4c-0.1,0.1-0.1,0.3-0.1,0.4
				s0,0.3,0.1,0.4c0.1,0.1,0.1,0.2,0.2,0.3c0.1,0.1,0.2,0.2,0.3,0.2c0.2,0.1,0.4,0.1,0.6,0.2L52.5,59.9z"/>
		</g>
	</g>
</g>
</svg>
