<?xml version="1.0" encoding="utf-8"?>
<!-- Generator: Adobe Illustrator 21.0.0, SVG Export Plug-In . SVG Version: 6.00 Build 0)  -->
<svg version="1.1" id="Layer_1" xmlns="http://www.w3.org/2000/svg" xmlns:xlink="http://www.w3.org/1999/xlink" x="0px" y="0px"
	 viewBox="0 0 690 340" style="enable-background:new 0 0 690 340;" xml:space="preserve">
<style type="text/css">
	.st0{fill:none;}
	.st1{fill:#00AAAA;}
</style>
<g>
	<rect x="58" class="st0" width="573" height="340"/>
	<g>
		<g>
			<path class="st1" d="M541.6,195.8C512.1,181,479,173.2,446,173.2h-60.2L290,105.6h-82.2l67.6,67.6H206l-76-67.6H80l33.5,75.3
				l-12,2v28.4l5.4,3.9c38.9,27.8,84.8,42.5,132.6,42.5h19l-61.8,61.8l8.6,5.7c2.7,1.8,5.2,3.8,7.5,6.1l2.5,2.4h49.3l107.7-76h71.5
				c29.1,0,57.5-5.8,84.3-17.3l12.4-5.3c8-3.4,13.1-11.2,13.1-19.9C553.6,206.9,549,199.5,541.6,195.8L541.6,195.8z M248.6,122.5
				h36.1l71.8,50.7h-57.2L248.6,122.5z M106,122.5h17.6l57,50.7H169c-6,0-12.1,0.5-18.1,1.5l-20.2,3.4L106,122.5z M533.8,219.5
				l-12.4,5.3c-24.7,10.6-50.8,15.9-77.6,15.9h-47.5l14.2-10l-9.7-13.8l-141.4,99.8h-36.1l87-87l-11.9-11.9l-22.9,22.9h-35.9
				c-43.6,0-85.4-13.2-121.1-38.2v-5.4l35.4-5.9c5-0.8,10.2-1.3,15.3-1.3h277c30.4,0,60.9,7.2,88.1,20.8c1.6,0.8,2.6,2.5,2.6,4.3
				C536.7,217.1,535.6,218.8,533.8,219.5L533.8,219.5z M533.8,219.5"/>
			<rect x="368.7" y="323.1" class="st1" width="169" height="16.9"/>
			<rect x="334.9" y="323.1" class="st1" width="16.9" height="16.9"/>
			<rect x="169" y="0" class="st1" width="135.2" height="16.9"/>
			<rect x="135.2" y="0" class="st1" width="16.9" height="16.9"/>
			<rect x="135.2" y="42.3" class="st1" width="126.7" height="16.9"/>
			<rect x="101.5" y="42.3" class="st1" width="16.9" height="16.9"/>
		</g>
		<path class="st1" d="M499.6,217.3c-4.8,5-30.7,5.3-35.4,0.3c-1.9-1.9-3.6-4.2-2.4-7.1c1.1-2.6,3.3-4.7,6.2-3.7
			c8.8,3.1,17.4,0.9,26.1,0c3.5-0.4,6.1,1,7.2,4.4C502.1,213.5,501.3,215.6,499.6,217.3z"/>
	</g>
</g>
</svg>
