<?xml version="1.0" encoding="utf-8"?>
<!-- Generator: Adobe Illustrator 21.0.0, SVG Export Plug-In . SVG Version: 6.00 Build 0)  -->
<svg version="1.1" id="Layer_1" xmlns="http://www.w3.org/2000/svg" xmlns:xlink="http://www.w3.org/1999/xlink" x="0px" y="0px"
	 viewBox="0 0 690 340" style="enable-background:new 0 0 690 340;" xml:space="preserve">
<g>
	<g>
		<g>
			<path d="M563.4,266.8H121.7c-9.2,0-16.6,7.4-16.6,16.6s7.4,16.6,16.6,16.6h441.8c9.2,0,16.6-7.4,16.6-16.6
				C580,274.2,572.6,266.8,563.4,266.8z"/>
		</g>
	</g>
</g>
<path d="M141.2,159.8C141.2,159.8,141.1,159.9,141.2,159.8c-5.5,1.5-9,6.9-8,12.5c1,5.6,6.2,9.5,11.8,8.9L305,164.9l-38,39.3
	c-2.8,2.9-3.3,7.2-1.3,10.6c2,3.4,6.1,5.1,9.9,4.1l32.6-8.7c0.9-0.2,1.8-0.6,2.6-1.2l106.6-71.1L536.6,106
	c45.3-12.8,44.3-30.6,43-35.7c-1.1-4-4.1-9.7-12.8-14.3c-8.8-4.7-21.5-7.3-38.8-8c-5.8-0.2-8.8-1-12.1-1.8
	c-11.4-2.9-19.3-3.8-62.2,7.6l-234.9,62.5l-72.2-60.6c-2.7-2.3-6.4-3.1-9.8-2.2l-15.3,4.1c-3.2,0.8-5.8,3.1-7.1,6
	c-1.4,3-1.3,6.4,0.1,9.3l40.9,83.2L141.2,159.8z"/>
</svg>
