<svg xmlns="http://www.w3.org/2000/svg" viewBox="0 0 1928.8 1306.31"><defs><style>.cls-1{opacity:0.09;}.cls-2{fill:#fff;}</style></defs><title>hexagonbg</title><g id="Layer_2" data-name="Layer 2"><g id="Layer_1-2" data-name="Layer 1"><g class="cls-1"><polygon class="cls-2" points="279.73 206.64 93.24 206.64 0 368.14 93.24 529.64 279.73 529.64 372.97 368.14 279.73 206.64"/><polygon class="cls-2" points="277.63 661.64 164.54 661.64 108 759.57 164.54 857.5 277.63 857.5 334.17 759.57 277.63 661.64"/><polygon class="cls-2" points="717.58 682.32 677.2 557.44 548.86 529.97 460.91 627.38 501.28 752.25 629.62 779.72 717.58 682.32"/><polygon class="cls-2" points="772.1 1014.01 741.09 918.09 642.51 896.99 574.95 971.81 605.97 1067.73 704.54 1088.83 772.1 1014.01"/><polygon class="cls-2" points="531.6 1145.29 438.63 1027.81 290.4 1049.58 235.15 1188.83 328.11 1306.31 476.34 1284.55 531.6 1145.29"/><polygon class="cls-2" points="179.99 1112.47 206.88 1014.24 135.27 941.84 36.76 967.66 9.86 1065.88 81.47 1138.28 179.99 1112.47"/><polygon class="cls-2" points="1104.25 715.17 1036.05 639.43 936.36 660.63 904.88 757.56 973.08 833.3 1072.76 812.1 1104.25 715.17"/><polygon class="cls-2" points="971.36 494.18 920.65 437.87 846.52 453.63 823.11 525.7 873.82 582.01 947.94 566.25 971.36 494.18"/><polygon class="cls-2" points="1305.25 348.01 1220.9 241.42 1086.42 261.17 1036.28 387.51 1120.63 494.1 1255.11 474.35 1305.25 348.01"/><polygon class="cls-2" points="1448.29 223.13 1479.5 144.46 1426.98 78.09 1343.25 90.39 1312.03 169.06 1364.55 235.43 1448.29 223.13"/><polygon class="cls-2" points="1068.89 167.3 1082.36 63.54 999.23 0 902.64 40.22 889.17 143.97 972.3 207.52 1068.89 167.3"/><polygon class="cls-2" points="1645.4 385.59 1585.83 310.32 1490.86 324.27 1455.46 413.49 1515.02 488.76 1609.99 474.81 1645.4 385.59"/><polygon class="cls-2" points="1864.8 277.62 1816.25 216.26 1738.83 227.63 1709.97 300.36 1758.53 361.72 1835.94 350.35 1864.8 277.62"/><polygon class="cls-2" points="1915.92 504.72 1857.29 430.63 1763.8 444.36 1728.95 532.18 1787.58 606.27 1881.07 592.54 1915.92 504.72"/><polygon class="cls-2" points="1411.49 730.74 1419.91 620.55 1328.7 558.16 1229.06 605.96 1220.64 716.15 1311.86 778.54 1411.49 730.74"/><polygon class="cls-2" points="1705.85 787.01 1746.62 684.29 1678.04 597.63 1568.7 613.69 1527.94 716.41 1596.52 803.07 1705.85 787.01"/><polygon class="cls-2" points="1896.41 953.31 1928.8 871.68 1874.3 802.81 1787.41 815.57 1755.02 897.2 1809.52 966.07 1896.41 953.31"/><polygon class="cls-2" points="1806.69 1160.61 1798.78 1050.38 1699.37 1002.12 1607.86 1064.09 1615.77 1174.31 1715.19 1222.58 1806.69 1160.61"/><polygon class="cls-2" points="1509.62 950.29 1441.04 863.63 1331.7 879.69 1290.94 982.41 1359.52 1069.07 1468.85 1053.01 1509.62 950.29"/><polygon class="cls-2" points="1187.77 1107.45 1094.61 989.72 946.07 1011.53 890.69 1151.08 983.85 1268.81 1132.39 1247 1187.77 1107.45"/><polygon class="cls-2" points="697.25 182.41 585.62 235.97 576.18 359.42 678.38 429.32 790.01 375.77 799.45 252.31 697.25 182.41"/></g></g></g></svg>