<?xml version="1.0" encoding="utf-8"?>
<!-- Generator: Adobe Illustrator 21.0.0, SVG Export Plug-In . SVG Version: 6.00 Build 0)  -->
<svg version="1.1" id="Layer_1" xmlns="http://www.w3.org/2000/svg" xmlns:xlink="http://www.w3.org/1999/xlink" x="0px" y="0px"
	 viewBox="0 0 690 340" style="enable-background:new 0 0 690 340;" xml:space="preserve">
<style type="text/css">
	.st0{fill:none;}
	.st1{fill:#FFFFFF;}
	.st2{fill:#00AAAA;}
</style>
<g>
	<rect x="-336.1" y="18.2" class="st0" width="109.5" height="109.5"/>
	<g>
		<g>
			<path class="st1" d="M-238.6,75.9c-5.6-2.8-11.9-4.3-18.2-4.3h-11.4l-18.2-12.8H-302l12.8,12.8h-13.2l-14.4-12.8h-9.5l6.4,14.3
				l-2.3,0.4v5.4l1,0.7c7.4,5.3,16.1,8.1,25.2,8.1h3.6l-11.7,11.7l1.6,1.1c0.5,0.3,1,0.7,1.4,1.2l0.5,0.5h9.4l20.5-14.4h13.6
				c5.5,0,10.9-1.1,16-3.3l2.3-1c1.5-0.7,2.5-2.1,2.5-3.8C-236.3,78-237.2,76.6-238.6,75.9L-238.6,75.9z M-294.3,62h6.9l13.6,9.6
				h-10.9L-294.3,62z M-321.3,62h3.3l10.8,9.6h-2.2c-1.1,0-2.3,0.1-3.4,0.3l-3.8,0.6L-321.3,62z M-240.1,80.4l-2.3,1
				c-4.7,2-9.6,3-14.7,3h-9l2.7-1.9l-1.9-2.6l-26.9,19h-6.8l16.5-16.5l-2.3-2.3l-4.3,4.3h-6.8c-8.3,0-16.2-2.5-23-7.2v-1l6.7-1.1
				c1-0.2,1.9-0.2,2.9-0.2h52.6c5.8,0,11.6,1.4,16.7,3.9c0.3,0.2,0.5,0.5,0.5,0.8C-239.6,79.9-239.8,80.2-240.1,80.4L-240.1,80.4z
				 M-240.1,80.4"/>
			<rect x="-271.5" y="100" class="st1" width="32.1" height="3.2"/>
			<rect x="-277.9" y="100" class="st1" width="3.2" height="3.2"/>
			<rect x="-309.4" y="38.7" class="st1" width="25.7" height="3.2"/>
			<rect x="-315.8" y="38.7" class="st1" width="3.2" height="3.2"/>
			<rect x="-315.8" y="46.7" class="st1" width="24.1" height="3.2"/>
			<rect x="-322.2" y="46.7" class="st1" width="3.2" height="3.2"/>
		</g>
		<path class="st1" d="M-246.6,80c-0.9,1-5.8,1-6.7,0.1c-0.4-0.4-0.7-0.8-0.4-1.3c0.2-0.5,0.6-0.9,1.2-0.7c1.7,0.6,3.3,0.2,5,0
			c0.7-0.1,1.2,0.2,1.4,0.8C-246.1,79.2-246.3,79.6-246.6,80z"/>
	</g>
</g>
<g>
	<rect x="86.2" y="0.9" class="st0" width="516.6" height="339"/>
	<g>
		<g>
			<path class="st2" d="M429.5,132.7h-33.3c-10.1,0-18.3-6.2-18.3-13.8V93.8c0-7.6,8.2-13.8,18.3-13.8h33.3
				c10.1,0,18.3,6.2,18.3,13.8v25.1C447.7,126.5,439.5,132.7,429.5,132.7z M396.2,89.9c-2.9,0-5.2,1.8-5.2,3.9v25.1
				c0,2.2,2.3,3.9,5.2,3.9h33.3c2.9,0,5.2-1.8,5.2-3.9V93.8c0-2.2-2.3-3.9-5.2-3.9H396.2z"/>
		</g>
		<g>
			<path class="st2" d="M512.1,132.7h-33.3c-10.1,0-18.3-6.2-18.3-13.8V93.8c0-7.6,8.2-13.8,18.3-13.8h33.3
				c10.1,0,18.3,6.2,18.3,13.8v25.1C530.4,126.5,522.2,132.7,512.1,132.7z M478.9,89.9c-2.9,0-5.2,1.8-5.2,3.9v25.1
				c0,2.2,2.3,3.9,5.2,3.9h33.3c2.9,0,5.2-1.8,5.2-3.9V93.8c0-2.2-2.3-3.9-5.2-3.9H478.9z"/>
		</g>
		<g>
			<path class="st2" d="M429.5,196.9h-33.3c-10.1,0-18.3-6.2-18.3-13.8V158c0-7.6,8.2-13.8,18.3-13.8h33.3
				c10.1,0,18.3,6.2,18.3,13.8v25.1C447.7,190.7,439.5,196.9,429.5,196.9z M396.2,154.1c-2.9,0-5.2,1.8-5.2,3.9v25.1
				c0,2.2,2.3,3.9,5.2,3.9h33.3c2.9,0,5.2-1.8,5.2-3.9V158c0-2.2-2.3-3.9-5.2-3.9H396.2z"/>
		</g>
		<g>
			<path class="st2" d="M512.1,196.9h-33.3c-10.1,0-18.3-6.2-18.3-13.8V158c0-7.6,8.2-13.8,18.3-13.8h33.3
				c10.1,0,18.3,6.2,18.3,13.8v25.1C530.4,190.7,522.2,196.9,512.1,196.9z M478.9,154.1c-2.9,0-5.2,1.8-5.2,3.9v25.1
				c0,2.2,2.3,3.9,5.2,3.9h33.3c2.9,0,5.2-1.8,5.2-3.9V158c0-2.2-2.3-3.9-5.2-3.9H478.9z"/>
		</g>
		<path class="st2" d="M562.5,46.9C562.5,46.9,562.5,46.9,562.5,46.9C562.5,46.9,562.5,46.9,562.5,46.9l0,283.1H345.8l0-283.1
			c0,0,0,0,0,0H562.5 M562.5,37.1H345.8c-7.2,0-13.1,4.4-13.1,9.9v293h242.8v-293C575.6,41.5,569.7,37.1,562.5,37.1L562.5,37.1z"/>
		<path class="st2" d="M522.7,244.7H385.6c-0.7,0-1.3-0.6-1.3-1.3v-10.6c0-0.7,0.6-1.3,1.3-1.3h137.1c0.7,0,1.3,0.6,1.3,1.3v10.6
			C524,244.2,523.4,244.7,522.7,244.7z"/>
		<g>
			
				<rect x="447.9" y="283.6" transform="matrix(-2.709914e-10 1 -1 -2.709914e-10 787.8185 -203.156)" class="st2" width="95.2" height="17.5"/>
			
				<rect x="365.2" y="283.6" transform="matrix(-2.702462e-10 1 -1 -2.702462e-10 705.164 -120.5015)" class="st2" width="95.2" height="17.5"/>
		</g>
		<g>
			<path class="st2" d="M327,172.4v157.4H125.4V172.4H327 M331.7,162.2H120.6c-4.8,0-8.7,3-8.7,6.6v171.1h228.5V168.8
				C340.5,165.2,336.5,162.2,331.7,162.2L331.7,162.2z"/>
		</g>
		<g>
			<g>
				<g>
					<path class="st2" d="M209.5,302.7V330h-21.2v-27.3H209.5 M222.6,292.9h-47.4v47.1h47.4V292.9L222.6,292.9z"/>
				</g>
				<g>
					<path class="st2" d="M267.6,302.7V330h-21.2v-27.3H267.6 M280.7,292.9h-47.4v47.1h47.4V292.9L280.7,292.9z"/>
				</g>
			</g>
			<g>
				<path class="st2" d="M311.3,144C311.3,144,311.3,144,311.3,144C311.3,144,311.3,144,311.3,144l0,18.1c0,0,0,0,0,0l-176.4,0
					c0,0,0,0,0,0l0,0l0-18.1c0,0,0,0,0,0H311.3 M311.3,134.2H134.8c-7.2,0-13.1,4.4-13.1,9.9v18.1c0,5.4,5.9,9.9,13.1,9.9h176.5
					c7.2,0,13.1-4.4,13.1-9.9V144C324.4,138.6,318.5,134.2,311.3,134.2L311.3,134.2z"/>
			</g>
		</g>
		<path class="st2" d="M87.3,328.4h514.3c0.6,0,1.1,0.5,1.1,1.1v9.3c0,0.6-0.5,1.1-1.1,1.1H87.3c-0.6,0-1.1-0.5-1.1-1.1v-9.3
			C86.2,328.9,86.7,328.4,87.3,328.4z"/>
		<path class="st2" d="M286.2,218H167.4c-0.7,0-1.2-0.5-1.2-1.2v-12c0-0.7,0.5-1.2,1.2-1.2h118.8c0.7,0,1.2,0.5,1.2,1.2v12
			C287.4,217.4,286.8,218,286.2,218z"/>
		<path class="st2" d="M286.2,260.4H167.4c-0.7,0-1.2-0.5-1.2-1.2v-12c0-0.7,0.5-1.2,1.2-1.2h118.8c0.7,0,1.2,0.5,1.2,1.2v12
			C287.4,259.9,286.8,260.4,286.2,260.4z"/>
	</g>
</g>
<g>
	<path class="st2" d="M382,4.4v10.2h15.6V4.4c0-1.5,0.3-2.5,1-3.3c0.7-0.7,1.5-1.1,2.6-1.1c1.1,0,2,0.4,2.6,1.1c0.7,0.7,1,1.8,1,3.3
		v28c0,1.5-0.3,2.6-1,3.3c-0.7,0.7-1.6,1.1-2.6,1.1c-1.1,0-1.9-0.4-2.6-1.1c-0.6-0.7-1-1.8-1-3.3v-12H382v12c0,1.5-0.3,2.6-1,3.3
		c-0.7,0.7-1.6,1.1-2.6,1.1c-1.1,0-1.9-0.4-2.6-1.1c-0.6-0.7-1-1.8-1-3.3v-28c0-1.5,0.3-2.5,1-3.3c0.6-0.7,1.5-1.1,2.6-1.1
		c1.1,0,2,0.4,2.6,1.1C381.7,1.8,382,2.9,382,4.4z"/>
	<path class="st2" d="M428.2,0c3.7,0,6.9,0.7,9.5,2.2c2.6,1.5,4.6,3.6,6,6.4c1.4,2.8,2,6,2,9.7c0,2.7-0.4,5.2-1.1,7.5
		c-0.7,2.2-1.9,4.2-3.3,5.8c-1.5,1.7-3.3,2.9-5.5,3.8c-2.2,0.9-4.6,1.3-7.4,1.3c-2.8,0-5.3-0.4-7.5-1.3c-2.2-0.9-4-2.2-5.5-3.8
		c-1.5-1.6-2.6-3.6-3.3-5.9c-0.8-2.3-1.1-4.8-1.1-7.4c0-2.7,0.4-5.2,1.2-7.5c0.8-2.3,1.9-4.2,3.4-5.8c1.5-1.6,3.3-2.8,5.4-3.7
		C423,0.4,425.5,0,428.2,0z M438.4,18.3c0-2.6-0.4-4.9-1.3-6.8c-0.8-1.9-2-3.4-3.6-4.3c-1.6-1-3.4-1.5-5.4-1.5c-1.4,0-2.8,0.3-4,0.8
		c-1.2,0.5-2.3,1.3-3.2,2.4c-0.9,1-1.6,2.4-2.1,4c-0.5,1.6-0.8,3.4-0.8,5.4c0,2,0.3,3.8,0.8,5.5c0.5,1.6,1.2,3,2.2,4.1
		c0.9,1.1,2,1.9,3.2,2.4c1.2,0.5,2.5,0.8,4,0.8c1.8,0,3.5-0.5,5.1-1.4c1.5-0.9,2.8-2.3,3.7-4.3C438,23.5,438.4,21.1,438.4,18.3z"/>
	<path class="st2" d="M473.1,6.5h-7.9v25.8c0,1.5-0.3,2.6-1,3.3c-0.7,0.7-1.5,1.1-2.6,1.1c-1.1,0-1.9-0.4-2.6-1.1
		c-0.7-0.7-1-1.8-1-3.3V6.5h-7.9c-1.2,0-2.1-0.3-2.7-0.8c-0.6-0.5-0.9-1.3-0.9-2.1c0-0.9,0.3-1.7,0.9-2.2c0.6-0.5,1.5-0.8,2.7-0.8
		h22.9c1.2,0,2.2,0.3,2.8,0.8c0.6,0.6,0.9,1.3,0.9,2.2c0,0.9-0.3,1.6-0.9,2.1C475.2,6.3,474.3,6.5,473.1,6.5z"/>
	<path class="st2" d="M504.5,6.2h-16.2v8.7h14.9c1.1,0,1.9,0.2,2.5,0.7c0.5,0.5,0.8,1.1,0.8,2c0,0.8-0.3,1.5-0.8,2
		c-0.5,0.5-1.4,0.8-2.5,0.8h-14.9v10.1H505c1.1,0,2,0.3,2.6,0.8c0.6,0.5,0.9,1.2,0.9,2.1c0,0.8-0.3,1.5-0.9,2
		c-0.6,0.5-1.4,0.8-2.6,0.8h-19.6c-1.6,0-2.7-0.3-3.4-1c-0.7-0.7-1-1.8-1-3.4V5c0-1,0.2-1.9,0.5-2.5c0.3-0.7,0.8-1.1,1.4-1.4
		c0.7-0.3,1.5-0.4,2.5-0.4h19c1.1,0,2,0.3,2.6,0.8c0.6,0.5,0.8,1.2,0.8,2c0,0.8-0.3,1.5-0.8,2C506.5,5.9,505.6,6.2,504.5,6.2z"/>
	<path class="st2" d="M521.2,4.4v25.9h14.6c1.2,0,2.1,0.3,2.7,0.8c0.6,0.6,0.9,1.3,0.9,2.1c0,0.9-0.3,1.6-0.9,2.1
		c-0.6,0.5-1.5,0.8-2.7,0.8h-17.4c-1.6,0-2.7-0.3-3.4-1c-0.7-0.7-1-1.8-1-3.4V4.4c0-1.5,0.3-2.5,1-3.3c0.7-0.7,1.5-1.1,2.6-1.1
		c1.1,0,2,0.4,2.6,1.1C520.9,1.8,521.2,2.9,521.2,4.4z"/>
</g>
<path class="st2" d="M224.1,61.4l7.5,15.1c1.3,2.7,3.7,4.6,6.5,5.3l17.6,4.6l-11.2,9.2c-2.8,2.3-4.2,5.9-3.6,9.6l2.8,16.4l-14.9-7.8
	c-1.4-0.8-3.1-1.2-4.7-1.2c-1.6,0-3.3,0.4-4.7,1.2l-14.8,7.8l2.8-16.4c0.6-3.6-0.8-7.3-3.6-9.6l-11.2-9.2l17.6-4.6
	c2.8-0.7,5.2-2.7,6.5-5.3L224.1,61.4 M224.1,43.8c-0.5,0-1.1,0.3-1.3,0.8l-13.9,28.1c-0.2,0.4-0.5,0.7-1,0.8l-31.2,8.1
	c-1.2,0.3-1.5,1.8-0.6,2.6l22.1,18.1c0.4,0.3,0.6,0.9,0.5,1.4l-5.3,30.7c-0.2,1,0.6,1.8,1.5,1.8c0.2,0,0.5-0.1,0.7-0.2l27.7-14.5
	c0.2-0.1,0.5-0.2,0.7-0.2c0.2,0,0.5,0.1,0.7,0.2l27.6,14.5c0.2,0.1,0.5,0.2,0.7,0.2c0.9,0,1.6-0.8,1.5-1.8l-5.3-30.7
	c-0.1-0.5,0.1-1.1,0.5-1.4L272,84.2c0.9-0.8,0.6-2.3-0.6-2.6l-31.2-8.1c-0.4-0.1-0.8-0.4-1-0.8l-13.9-28.1
	C225.2,44,224.6,43.8,224.1,43.8L224.1,43.8z"/>
</svg>
