<?xml version="1.0" encoding="utf-8"?>
<!-- Generator: Adobe Illustrator 21.0.0, SVG Export Plug-In . SVG Version: 6.00 Build 0)  -->
<svg version="1.1" id="Layer_1" xmlns="http://www.w3.org/2000/svg" xmlns:xlink="http://www.w3.org/1999/xlink" x="0px" y="0px"
	 viewBox="0 0 690 340" style="enable-background:new 0 0 690 340;" xml:space="preserve">
<style type="text/css">
	.st0{fill:none;}
	.st1{fill:#FFFFFF;}
	.st2{fill:#00AAAA;}
</style>
<g>
	<rect x="-336.1" y="18.2" class="st0" width="109.5" height="109.5"/>
	<g>
		<g>
			<path class="st1" d="M-238.6,75.9c-5.6-2.8-11.9-4.3-18.2-4.3h-11.4l-18.2-12.8H-302l12.8,12.8h-13.2l-14.4-12.8h-9.5l6.4,14.3
				l-2.3,0.4v5.4l1,0.7c7.4,5.3,16.1,8.1,25.2,8.1h3.6l-11.7,11.7l1.6,1.1c0.5,0.3,1,0.7,1.4,1.2l0.5,0.5h9.4l20.5-14.4h13.6
				c5.5,0,10.9-1.1,16-3.3l2.3-1c1.5-0.7,2.5-2.1,2.5-3.8C-236.3,78-237.2,76.6-238.6,75.9L-238.6,75.9z M-294.3,62h6.9l13.6,9.6
				h-10.9L-294.3,62z M-321.3,62h3.3l10.8,9.6h-2.2c-1.1,0-2.3,0.1-3.4,0.3l-3.8,0.6L-321.3,62z M-240.1,80.4l-2.3,1
				c-4.7,2-9.6,3-14.7,3h-9l2.7-1.9l-1.9-2.6l-26.9,19h-6.8l16.5-16.5l-2.3-2.3l-4.3,4.3h-6.8c-8.3,0-16.2-2.5-23-7.2v-1l6.7-1.1
				c1-0.2,1.9-0.2,2.9-0.2h52.6c5.8,0,11.6,1.4,16.7,3.9c0.3,0.2,0.5,0.5,0.5,0.8C-239.6,79.9-239.8,80.2-240.1,80.4L-240.1,80.4z
				 M-240.1,80.4"/>
			<rect x="-271.5" y="100" class="st1" width="32.1" height="3.2"/>
			<rect x="-277.9" y="100" class="st1" width="3.2" height="3.2"/>
			<rect x="-309.4" y="38.7" class="st1" width="25.7" height="3.2"/>
			<rect x="-315.8" y="38.7" class="st1" width="3.2" height="3.2"/>
			<rect x="-315.8" y="46.7" class="st1" width="24.1" height="3.2"/>
			<rect x="-322.2" y="46.7" class="st1" width="3.2" height="3.2"/>
		</g>
		<path class="st1" d="M-246.6,80c-0.9,1-5.8,1-6.7,0.1c-0.4-0.4-0.7-0.8-0.4-1.3c0.2-0.5,0.6-0.9,1.2-0.7c1.7,0.6,3.3,0.2,5,0
			c0.7-0.1,1.2,0.2,1.4,0.8C-246.1,79.2-246.3,79.6-246.6,80z"/>
	</g>
</g>
<g>
	<path class="st2" d="M585,340H98.2c-6.6,0-12-5.4-12-12V12.9c0-6.6,5.4-12,12-12H585c6.6,0,12,5.4,12,12V328
		C597,334.6,591.6,340,585,340z"/>
	<g>
		<g>
			<g>
				<g>
					<path class="st1" d="M424,135.1h-31.1c-9.4,0-17.1-5.8-17.1-12.9V98.7c0-7.1,7.7-12.9,17.1-12.9H424c9.4,0,17.1,5.8,17.1,12.9
						v23.5C441.1,129.3,433.4,135.1,424,135.1z M392.9,95.1c-2.7,0-4.9,1.6-4.9,3.7v23.5c0,2,2.2,3.7,4.9,3.7H424
						c2.7,0,4.9-1.6,4.9-3.7V98.7c0-2-2.2-3.7-4.9-3.7H392.9z"/>
				</g>
				<g>
					<path class="st1" d="M501.3,135.1h-31.1c-9.4,0-17.1-5.8-17.1-12.9V98.7c0-7.1,7.7-12.9,17.1-12.9h31.1
						c9.4,0,17.1,5.8,17.1,12.9v23.5C518.4,129.3,510.7,135.1,501.3,135.1z M470.2,95.1c-2.7,0-4.9,1.6-4.9,3.7v23.5
						c0,2,2.2,3.7,4.9,3.7h31.1c2.7,0,4.9-1.6,4.9-3.7V98.7c0-2-2.2-3.7-4.9-3.7H470.2z"/>
				</g>
				<g>
					<path class="st1" d="M424,195.1h-31.1c-9.4,0-17.1-5.8-17.1-12.9v-23.5c0-7.1,7.7-12.9,17.1-12.9H424c9.4,0,17.1,5.8,17.1,12.9
						v23.5C441.1,189.3,433.4,195.1,424,195.1z M392.9,155.1c-2.7,0-4.9,1.6-4.9,3.7v23.5c0,2,2.2,3.7,4.9,3.7H424
						c2.7,0,4.9-1.6,4.9-3.7v-23.5c0-2-2.2-3.7-4.9-3.7H392.9z"/>
				</g>
				<g>
					<path class="st1" d="M501.3,195.1h-31.1c-9.4,0-17.1-5.8-17.1-12.9v-23.5c0-7.1,7.7-12.9,17.1-12.9h31.1
						c9.4,0,17.1,5.8,17.1,12.9v23.5C518.4,189.3,510.7,195.1,501.3,195.1z M470.2,155.1c-2.7,0-4.9,1.6-4.9,3.7v23.5
						c0,2,2.2,3.7,4.9,3.7h31.1c2.7,0,4.9-1.6,4.9-3.7v-23.5c0-2-2.2-3.7-4.9-3.7H470.2z"/>
				</g>
				<path class="st1" d="M548.4,54.9C548.4,54.9,548.4,54.9,548.4,54.9C548.4,54.9,548.4,54.9,548.4,54.9l0,264.8H345.7l0-264.8
					c0,0,0,0,0,0H548.4 M548.4,45.7H345.7c-6.7,0-12.2,4.2-12.2,9.2v274h227.1v-274C560.6,49.8,555.1,45.7,548.4,45.7L548.4,45.7z"
					/>
				<path class="st1" d="M511.1,239.9h-128c-0.7,0-1.3-0.6-1.3-1.3v-9.7c0-0.7,0.6-1.3,1.3-1.3h128c0.7,0,1.3,0.6,1.3,1.3v9.7
					C512.4,239.3,511.8,239.9,511.1,239.9z"/>
				<g>
					
						<rect x="441.2" y="276.2" transform="matrix(-2.709870e-10 1 -1 -2.709870e-10 770.1269 -201.3038)" class="st1" width="89" height="16.3"/>
					
						<rect x="363.9" y="276.2" transform="matrix(-2.702516e-10 1 -1 -2.702516e-10 692.8218 -123.9987)" class="st1" width="89" height="16.3"/>
				</g>
				<g>
					<path class="st1" d="M328.1,172.2v147.2H139.6V172.2H328.1 M332.6,162.7H135.1c-4.5,0-8.2,2.8-8.2,6.2v160h213.8v-160
						C340.7,165.5,337.1,162.7,332.6,162.7L332.6,162.7z"/>
				</g>
				<g>
					<g>
						<g>
							<path class="st1" d="M218.3,294.1v25.6h-19.8v-25.6H218.3 M230.5,284.9h-44.3v44h44.3V284.9L230.5,284.9z"/>
						</g>
						<g>
							<path class="st1" d="M272.6,294.1v25.6h-19.8v-25.6H272.6 M284.9,284.9h-44.3v44h44.3V284.9L284.9,284.9z"/>
						</g>
					</g>
					<g>
						<path class="st1" d="M313.5,145.7C313.5,145.7,313.5,145.7,313.5,145.7C313.5,145.7,313.5,145.7,313.5,145.7l0,16.9
							c0,0,0,0,0,0l-165,0c0,0,0,0,0,0l0,0l0-16.9c0,0,0,0,0,0H313.5 M313.5,136.5H148.4c-6.7,0-12.2,4.2-12.2,9.2v16.9
							c0,5.1,5.5,9.2,12.2,9.2h165.1c6.7,0,12.2-4.2,12.2-9.2v-16.9C325.7,140.6,320.2,136.5,313.5,136.5L313.5,136.5z"/>
					</g>
				</g>
				<path class="st1" d="M104.1,318.1h480.9c0.6,0,1.1,0.5,1.1,1.1v8.5c0,0.6-0.5,1.1-1.1,1.1H104.1c-0.6,0-1.1-0.5-1.1-1.1v-8.5
					C102.9,318.7,103.4,318.1,104.1,318.1z"/>
				<path class="st1" d="M289.9,214.8H178.9c-0.7,0-1.2-0.5-1.2-1.2v-11.1c0-0.7,0.5-1.2,1.2-1.2h110.9c0.7,0,1.2,0.5,1.2,1.2v11.1
					C291.1,214.3,290.5,214.8,289.9,214.8z"/>
				<path class="st1" d="M289.9,254.6H178.9c-0.7,0-1.2-0.5-1.2-1.2v-11.1c0-0.7,0.5-1.2,1.2-1.2h110.9c0.7,0,1.2,0.5,1.2,1.2v11.1
					C291.1,254,290.5,254.6,289.9,254.6z"/>
			</g>
		</g>
		<g>
			<path class="st1" d="M379.6,15.1v9.5h14.5v-9.5c0-1.4,0.3-2.4,0.9-3.1c0.6-0.7,1.4-1,2.4-1c1,0,1.8,0.3,2.5,1s0.9,1.7,0.9,3.1
				v26.2c0,1.4-0.3,2.4-1,3.1c-0.6,0.7-1.5,1-2.5,1c-1,0-1.8-0.3-2.4-1c-0.6-0.7-0.9-1.7-0.9-3.1V30.1h-14.5v11.2
				c0,1.4-0.3,2.4-1,3.1c-0.6,0.7-1.5,1-2.5,1c-1,0-1.8-0.3-2.4-1c-0.6-0.7-0.9-1.7-0.9-3.1V15.1c0-1.4,0.3-2.4,0.9-3.1
				c0.6-0.7,1.4-1,2.4-1c1,0,1.8,0.3,2.5,1S379.6,13.7,379.6,15.1z"/>
			<path class="st1" d="M422.8,11c3.4,0,6.4,0.7,8.9,2.1c2.5,1.4,4.3,3.4,5.6,6c1.3,2.6,1.9,5.6,1.9,9.1c0,2.6-0.3,4.9-1,7
				c-0.7,2.1-1.7,3.9-3.1,5.5c-1.4,1.5-3.1,2.7-5.1,3.5c-2,0.8-4.3,1.2-7,1.2c-2.6,0-4.9-0.4-7-1.3c-2.1-0.8-3.8-2-5.2-3.6
				c-1.4-1.5-2.4-3.4-3.1-5.5c-0.7-2.1-1.1-4.5-1.1-7c0-2.6,0.4-4.9,1.1-7c0.7-2.1,1.8-3.9,3.2-5.4c1.4-1.5,3.1-2.6,5.1-3.4
				C417.9,11.4,420.2,11,422.8,11z M432.3,28.1c0-2.4-0.4-4.5-1.2-6.3c-0.8-1.8-1.9-3.1-3.4-4.1c-1.5-0.9-3.1-1.4-5-1.4
				c-1.3,0-2.6,0.3-3.7,0.8c-1.1,0.5-2.1,1.2-2.9,2.2c-0.8,1-1.5,2.2-2,3.7c-0.5,1.5-0.7,3.2-0.7,5.1c0,1.9,0.2,3.6,0.7,5.1
				c0.5,1.5,1.1,2.8,2,3.8c0.9,1,1.9,1.8,3,2.3c1.1,0.5,2.4,0.7,3.7,0.7c1.7,0,3.3-0.4,4.8-1.3s2.6-2.2,3.4-4
				C431.9,33,432.3,30.7,432.3,28.1z"/>
			<path class="st1" d="M464.8,17.1h-7.4v24.2c0,1.4-0.3,2.4-0.9,3.1c-0.6,0.7-1.4,1-2.4,1c-1,0-1.8-0.3-2.4-1
				c-0.6-0.7-0.9-1.7-0.9-3.1V17.1h-7.4c-1.1,0-2-0.3-2.6-0.8c-0.6-0.5-0.8-1.2-0.8-2c0-0.9,0.3-1.5,0.9-2c0.6-0.5,1.4-0.7,2.5-0.7
				h21.4c1.2,0,2,0.3,2.6,0.8c0.6,0.5,0.9,1.2,0.9,2c0,0.8-0.3,1.5-0.9,2C466.8,16.9,465.9,17.1,464.8,17.1z"/>
			<path class="st1" d="M494.1,16.8h-15.2v8.2h14c1,0,1.8,0.2,2.3,0.7c0.5,0.5,0.8,1.1,0.8,1.8c0,0.8-0.2,1.4-0.7,1.8
				S494,30,492.9,30h-14v9.5h15.7c1.1,0,1.9,0.2,2.4,0.7c0.5,0.5,0.8,1.1,0.8,2c0,0.8-0.3,1.4-0.8,1.9c-0.5,0.5-1.3,0.7-2.4,0.7
				h-18.3c-1.5,0-2.5-0.3-3.2-1c-0.6-0.7-1-1.7-1-3.2v-25c0-1,0.1-1.8,0.4-2.4c0.3-0.6,0.7-1.1,1.4-1.3c0.6-0.3,1.4-0.4,2.3-0.4
				h17.8c1.1,0,1.9,0.2,2.4,0.7c0.5,0.5,0.8,1.1,0.8,1.9c0,0.8-0.3,1.4-0.8,1.9C496,16.5,495.2,16.8,494.1,16.8z"/>
			<path class="st1" d="M509.8,15.1v24.2h13.7c1.1,0,1.9,0.3,2.5,0.8c0.6,0.5,0.9,1.2,0.9,2c0,0.8-0.3,1.5-0.9,2
				c-0.6,0.5-1.4,0.8-2.5,0.8h-16.3c-1.5,0-2.5-0.3-3.2-1c-0.6-0.7-1-1.7-1-3.2V15.1c0-1.4,0.3-2.4,0.9-3.1c0.6-0.7,1.4-1,2.4-1
				c1,0,1.8,0.3,2.5,1S509.8,13.7,509.8,15.1z"/>
		</g>
		<path class="st1" d="M231.9,68.4l7,14.1c1.2,2.5,3.4,4.3,6.1,5l16.4,4.3l-10.5,8.6c-2.6,2.1-3.9,5.6-3.3,8.9l2.6,15.4l-13.9-7.3
			c-1.4-0.7-2.9-1.1-4.4-1.1c-1.5,0-3.1,0.4-4.4,1.1l-13.9,7.3l2.6-15.4c0.6-3.4-0.7-6.8-3.3-9l-10.5-8.6l16.4-4.3
			c2.7-0.7,4.9-2.5,6.1-5L231.9,68.4 M231.9,51.9c-0.5,0-1,0.3-1.3,0.8l-13,26.3c-0.2,0.4-0.5,0.6-0.9,0.7l-29.2,7.6
			c-1.1,0.3-1.4,1.7-0.5,2.4l20.7,16.9c0.4,0.3,0.6,0.8,0.5,1.3l-4.9,28.7c-0.2,0.9,0.6,1.6,1.4,1.6c0.2,0,0.4-0.1,0.7-0.2
			l25.9-13.6c0.2-0.1,0.4-0.2,0.6-0.2c0.2,0,0.4,0.1,0.7,0.2l25.9,13.6c0.2,0.1,0.4,0.2,0.7,0.2c0.8,0,1.5-0.7,1.4-1.6l-4.9-28.7
			c-0.1-0.5,0.1-1,0.5-1.3l20.7-16.9c0.9-0.7,0.6-2.1-0.5-2.4L247,79.7c-0.4-0.1-0.7-0.4-0.9-0.7l-13-26.3
			C232.9,52.2,232.4,51.9,231.9,51.9L231.9,51.9z"/>
	</g>
</g>
</svg>
