<?xml version="1.0" encoding="utf-8"?>
<!-- Generator: Adobe Illustrator 21.0.0, SVG Export Plug-In . SVG Version: 6.00 Build 0)  -->
<svg version="1.1" id="Layer_1" xmlns="http://www.w3.org/2000/svg" xmlns:xlink="http://www.w3.org/1999/xlink" x="0px" y="0px"
	 viewBox="0 0 690 340" style="enable-background:new 0 0 690 340;" xml:space="preserve">
<style type="text/css">
	.st0{fill:none;}
	.st1{fill:#FFFFFF;}
	.st2{fill:#00AAAA;}
</style>
<g>
	<rect x="-336.1" y="18.2" class="st0" width="109.5" height="109.5"/>
	<g>
		<g>
			<path class="st1" d="M-238.6,75.9c-5.6-2.8-11.9-4.3-18.2-4.3h-11.4l-18.2-12.8H-302l12.8,12.8h-13.2l-14.4-12.8h-9.5l6.4,14.3
				l-2.3,0.4v5.4l1,0.7c7.4,5.3,16.1,8.1,25.2,8.1h3.6l-11.7,11.7l1.6,1.1c0.5,0.3,1,0.7,1.4,1.2l0.5,0.5h9.4l20.5-14.4h13.6
				c5.5,0,10.9-1.1,16-3.3l2.3-1c1.5-0.7,2.5-2.1,2.5-3.8C-236.3,78-237.2,76.6-238.6,75.9L-238.6,75.9z M-294.3,62h6.9l13.6,9.6
				h-10.9L-294.3,62z M-321.3,62h3.3l10.8,9.6h-2.2c-1.1,0-2.3,0.1-3.4,0.3l-3.8,0.6L-321.3,62z M-240.1,80.4l-2.3,1
				c-4.7,2-9.6,3-14.7,3h-9l2.7-1.9l-1.9-2.6l-26.9,19h-6.8l16.5-16.5l-2.3-2.3l-4.3,4.3h-6.8c-8.3,0-16.2-2.5-23-7.2v-1l6.7-1.1
				c1-0.2,1.9-0.2,2.9-0.2h52.6c5.8,0,11.6,1.4,16.7,3.9c0.3,0.2,0.5,0.5,0.5,0.8C-239.6,79.9-239.8,80.2-240.1,80.4L-240.1,80.4z
				 M-240.1,80.4"/>
			<rect x="-271.5" y="100" class="st1" width="32.1" height="3.2"/>
			<rect x="-277.9" y="100" class="st1" width="3.2" height="3.2"/>
			<rect x="-309.4" y="38.7" class="st1" width="25.7" height="3.2"/>
			<rect x="-315.8" y="38.7" class="st1" width="3.2" height="3.2"/>
			<rect x="-315.8" y="46.7" class="st1" width="24.1" height="3.2"/>
			<rect x="-322.2" y="46.7" class="st1" width="3.2" height="3.2"/>
		</g>
		<path class="st1" d="M-246.6,80c-0.9,1-5.8,1-6.7,0.1c-0.4-0.4-0.7-0.8-0.4-1.3c0.2-0.5,0.6-0.9,1.2-0.7c1.7,0.6,3.3,0.2,5,0
			c0.7-0.1,1.2,0.2,1.4,0.8C-246.1,79.2-246.3,79.6-246.6,80z"/>
	</g>
</g>
<g>
	<rect x="86.2" y="0.9" class="st0" width="516.6" height="339"/>
	<g>
		<g>
			<path class="st2" d="M421.8,133.6h-25c-7.6,0-13.7-6.2-13.7-13.7v-25c0-7.6,6.2-13.7,13.7-13.7h25c7.6,0,13.7,6.2,13.7,13.7v25
				C435.5,127.4,429.4,133.6,421.8,133.6z M396.8,90.9c-2.1,0-3.9,1.7-3.9,3.9v25c0,2.2,1.7,3.9,3.9,3.9h25c2.2,0,3.9-1.7,3.9-3.9
				v-25c0-2.2-1.7-3.9-3.9-3.9H396.8z"/>
		</g>
		<g>
			<path class="st2" d="M483.9,133.6h-25c-7.6,0-13.7-6.2-13.7-13.7v-25c0-7.6,6.2-13.7,13.7-13.7h25c7.6,0,13.7,6.2,13.7,13.7v25
				C497.6,127.4,491.5,133.6,483.9,133.6z M458.9,90.9c-2.1,0-3.9,1.7-3.9,3.9v25c0,2.2,1.7,3.9,3.9,3.9h25c2.1,0,3.9-1.7,3.9-3.9
				v-25c0-2.2-1.7-3.9-3.9-3.9H458.9z"/>
		</g>
		<g>
			<path class="st2" d="M421.8,197.5h-25c-7.6,0-13.7-6.2-13.7-13.7v-25c0-7.6,6.2-13.7,13.7-13.7h25c7.6,0,13.7,6.2,13.7,13.7v25
				C435.5,191.3,429.4,197.5,421.8,197.5z M396.8,154.9c-2.1,0-3.9,1.7-3.9,3.9v25c0,2.2,1.7,3.9,3.9,3.9h25c2.2,0,3.9-1.7,3.9-3.9
				v-25c0-2.2-1.7-3.9-3.9-3.9H396.8z"/>
		</g>
		<g>
			<path class="st2" d="M483.9,197.5h-25c-7.6,0-13.7-6.2-13.7-13.7v-25c0-7.6,6.2-13.7,13.7-13.7h25c7.6,0,13.7,6.2,13.7,13.7v25
				C497.6,191.3,491.5,197.5,483.9,197.5z M458.9,154.9c-2.1,0-3.9,1.7-3.9,3.9v25c0,2.2,1.7,3.9,3.9,3.9h25c2.1,0,3.9-1.7,3.9-3.9
				v-25c0-2.2-1.7-3.9-3.9-3.9H458.9z"/>
		</g>
		<path class="st2" d="M521.7,48.2C521.7,48.2,521.7,48.2,521.7,48.2C521.7,48.2,521.7,48.2,521.7,48.2l0,281.9H359l0-281.9
			c0,0,0,0,0,0H521.7 M521.7,38.3H359c-5.4,0-9.8,4.4-9.8,9.8v291.7h182.4V48.2C531.6,42.8,527.1,38.3,521.7,38.3L521.7,38.3z"/>
		<path class="st2" d="M491.5,245.1H389.2c-0.7,0-1.3-0.6-1.3-1.3v-10.5c0-0.7,0.6-1.3,1.3-1.3h102.3c0.7,0,1.3,0.6,1.3,1.3v10.5
			C492.8,244.6,492.2,245.1,491.5,245.1z"/>
		<g>
			
				<rect x="424" y="286" transform="matrix(-2.044287e-10 1 -1 -2.044287e-10 763.9293 -178.8596)" class="st2" width="94.8" height="13.1"/>
			
				<rect x="361.9" y="286" transform="matrix(-2.038531e-10 1 -1 -2.038531e-10 701.8452 -116.7755)" class="st2" width="94.8" height="13.1"/>
		</g>
		<g>
			<path class="st2" d="M344.8,173.1v156.7H193.4V173.1H344.8 M348.4,163H189.8c-3.6,0-6.5,2.9-6.5,6.5v170.4H355V169.5
				C355,165.9,352,163,348.4,163L348.4,163z"/>
		</g>
		<g>
			<g>
				<g>
					<path class="st2" d="M256.6,302.9v27.2h-15.9v-27.2H256.6 M266.4,293.1h-35.6v46.9h35.6V293.1L266.4,293.1z"/>
				</g>
				<g>
					<path class="st2" d="M300.3,302.9v27.2h-15.9v-27.2H300.3 M310.1,293.1h-35.6v46.9h35.6V293.1L310.1,293.1z"/>
				</g>
			</g>
			<g>
				<path class="st2" d="M333,144.9C333.1,144.9,333.1,144.9,333,144.9C333.1,144.9,333.1,144.9,333,144.9l0,18c0,0,0,0,0,0
					l-132.5,0c0,0,0,0,0,0l0,0l0-18c0,0,0,0,0,0H333 M333.1,135H200.5c-5.4,0-9.8,4.4-9.8,9.8v18c0,5.4,4.4,9.8,9.8,9.8h132.6
					c5.4,0,9.8-4.4,9.8-9.8v-18C342.9,139.5,338.5,135,333.1,135L333.1,135z"/>
			</g>
		</g>
		<g>
			<path class="st2" d="M366.2,5.8v10.1h15.5V5.8c0-1.4,0.3-2.5,1-3.3c0.7-0.7,1.5-1.1,2.6-1.1c1.1,0,2,0.4,2.6,1.1
				c0.7,0.7,1,1.8,1,3.3v27.9c0,1.5-0.3,2.6-1,3.3c-0.7,0.7-1.5,1.1-2.6,1.1c-1.1,0-1.9-0.4-2.6-1.1c-0.6-0.7-1-1.8-1-3.3V21.8
				h-15.5v11.9c0,1.5-0.3,2.6-1,3.3c-0.7,0.7-1.5,1.1-2.6,1.1c-1.1,0-1.9-0.4-2.6-1.1c-0.6-0.7-1-1.8-1-3.3V5.8c0-1.4,0.3-2.5,1-3.3
				c0.6-0.7,1.5-1.1,2.6-1.1c1.1,0,2,0.4,2.6,1.1S366.2,4.3,366.2,5.8z"/>
			<path class="st2" d="M412.1,1.5c3.7,0,6.8,0.7,9.5,2.2c2.6,1.5,4.6,3.6,6,6.4c1.4,2.7,2,6,2,9.7c0,2.7-0.4,5.2-1.1,7.5
				c-0.7,2.2-1.9,4.2-3.3,5.8c-1.5,1.6-3.3,2.9-5.5,3.8c-2.2,0.9-4.6,1.3-7.4,1.3c-2.8,0-5.3-0.4-7.4-1.3c-2.2-0.9-4-2.2-5.5-3.8
				c-1.5-1.6-2.6-3.6-3.3-5.9c-0.7-2.3-1.1-4.8-1.1-7.4c0-2.7,0.4-5.2,1.2-7.5c0.8-2.3,1.9-4.2,3.4-5.8c1.5-1.6,3.3-2.8,5.4-3.7
				C407,1.9,409.4,1.5,412.1,1.5z M422.3,19.7c0-2.6-0.4-4.8-1.3-6.7c-0.8-1.9-2-3.3-3.6-4.3c-1.6-1-3.3-1.5-5.4-1.5
				c-1.4,0-2.8,0.3-4,0.8c-1.2,0.5-2.3,1.3-3.1,2.4c-0.9,1-1.6,2.3-2.1,3.9c-0.5,1.6-0.8,3.4-0.8,5.4c0,2,0.3,3.8,0.8,5.5
				c0.5,1.6,1.2,3,2.1,4c0.9,1.1,2,1.9,3.2,2.4s2.5,0.8,3.9,0.8c1.8,0,3.5-0.5,5.1-1.4s2.8-2.3,3.7-4.3
				C421.8,24.8,422.3,22.5,422.3,19.7z"/>
			<path class="st2" d="M456.8,8H449v25.7c0,1.5-0.3,2.6-1,3.3c-0.7,0.7-1.5,1.1-2.6,1.1c-1.1,0-1.9-0.4-2.6-1.1
				c-0.7-0.7-1-1.8-1-3.3V8H434c-1.2,0-2.1-0.3-2.7-0.8c-0.6-0.5-0.9-1.3-0.9-2.1c0-0.9,0.3-1.6,0.9-2.2s1.5-0.8,2.7-0.8h22.8
				c1.2,0,2.2,0.3,2.8,0.8c0.6,0.5,0.9,1.3,0.9,2.2c0,0.9-0.3,1.6-0.9,2.1C459,7.7,458,8,456.8,8z"/>
			<path class="st2" d="M488.1,7.6h-16.2v8.7h14.9c1.1,0,1.9,0.2,2.5,0.7c0.5,0.5,0.8,1.1,0.8,1.9c0,0.8-0.3,1.5-0.8,2
				c-0.5,0.5-1.4,0.8-2.5,0.8h-14.9v10.1h16.7c1.1,0,2,0.3,2.5,0.8c0.6,0.5,0.9,1.2,0.9,2.1c0,0.8-0.3,1.5-0.9,2
				c-0.6,0.5-1.4,0.8-2.5,0.8h-19.5c-1.6,0-2.7-0.3-3.4-1c-0.7-0.7-1-1.8-1-3.4V6.5c0-1,0.2-1.9,0.5-2.5c0.3-0.7,0.8-1.1,1.4-1.4
				c0.7-0.3,1.5-0.4,2.5-0.4h18.9c1.1,0,2,0.3,2.5,0.8c0.6,0.5,0.8,1.2,0.8,2c0,0.8-0.3,1.5-0.8,2C490.1,7.3,489.2,7.6,488.1,7.6z"
				/>
			<path class="st2" d="M504.8,5.8v25.8h14.5c1.2,0,2,0.3,2.7,0.8c0.6,0.6,0.9,1.3,0.9,2.1c0,0.9-0.3,1.6-0.9,2.1
				c-0.6,0.5-1.5,0.8-2.7,0.8H502c-1.6,0-2.7-0.3-3.4-1c-0.7-0.7-1-1.8-1-3.4V5.8c0-1.4,0.3-2.5,1-3.3c0.7-0.7,1.5-1.1,2.6-1.1
				c1.1,0,2,0.4,2.6,1.1S504.8,4.3,504.8,5.8z"/>
		</g>
		<path class="st2" d="M165.1,328.5h385.8c0.6,0,1.1,0.5,1.1,1.1v9.2c0,0.6-0.5,1.1-1.1,1.1H165.1c-0.6,0-1.1-0.5-1.1-1.1v-9.2
			C164,329,164.5,328.5,165.1,328.5z"/>
		<path class="st2" d="M313.9,218.5h-88.6c-0.7,0-1.2-0.5-1.2-1.2v-11.9c0-0.7,0.5-1.2,1.2-1.2h88.6c0.7,0,1.2,0.5,1.2,1.2v11.9
			C315.1,217.9,314.5,218.5,313.9,218.5z"/>
		<path class="st2" d="M313.9,260.8h-88.6c-0.7,0-1.2-0.5-1.2-1.2v-11.9c0-0.7,0.5-1.2,1.2-1.2h88.6c0.7,0,1.2,0.5,1.2,1.2v11.9
			C315.1,260.2,314.5,260.8,313.9,260.8z"/>
		<path class="st2" d="M268.7,62.6l7.4,15c1.3,2.6,3.7,4.6,6.5,5.3l17.5,4.5l-11.2,9.1c-2.8,2.3-4.2,5.9-3.6,9.5l2.8,16.4l-14.8-7.8
			c-1.4-0.8-3.1-1.2-4.7-1.2c-1.6,0-3.3,0.4-4.7,1.2l-14.8,7.8l2.8-16.4c0.6-3.6-0.8-7.2-3.6-9.5l-11.2-9.1l17.5-4.6
			c2.8-0.7,5.2-2.7,6.5-5.3L268.7,62.6 M268.7,45c-0.5,0-1.1,0.3-1.3,0.8l-13.8,28c-0.2,0.4-0.5,0.7-1,0.8l-31,8.1
			c-1.2,0.3-1.5,1.8-0.6,2.6l22,18c0.4,0.3,0.6,0.9,0.5,1.4l-5.2,30.6c-0.2,1,0.6,1.7,1.5,1.7c0.2,0,0.5-0.1,0.7-0.2l27.5-14.5
			c0.2-0.1,0.5-0.2,0.7-0.2c0.2,0,0.5,0.1,0.7,0.2l27.5,14.5c0.2,0.1,0.5,0.2,0.7,0.2c0.9,0,1.6-0.8,1.5-1.7l-5.2-30.6
			c-0.1-0.5,0.1-1.1,0.5-1.4l22-18c0.9-0.8,0.6-2.3-0.6-2.6l-31-8.1c-0.4-0.1-0.8-0.4-1-0.8l-13.8-28C269.7,45.3,269.2,45,268.7,45
			L268.7,45z"/>
	</g>
</g>
</svg>
