<?xml version="1.0" encoding="UTF-8" standalone="no"?>
<!-- Created with Inkscape (http://www.inkscape.org/) -->

<svg
   xmlns:dc="http://purl.org/dc/elements/1.1/"
   xmlns:cc="http://creativecommons.org/ns#"
   xmlns:rdf="http://www.w3.org/1999/02/22-rdf-syntax-ns#"
   xmlns:svg="http://www.w3.org/2000/svg"
   xmlns="http://www.w3.org/2000/svg"
   xmlns:sodipodi="http://sodipodi.sourceforge.net/DTD/sodipodi-0.dtd"
   xmlns:inkscape="http://www.inkscape.org/namespaces/inkscape"
   width="352.98889mm"
   height="70.63073mm"
   viewBox="0 0 352.98889 70.63073"
   version="1.1"
   id="svg132"
   inkscape:version="0.92.0 r15299"
   sodipodi:docname="edreams.svg">
  <defs
     id="defs126">
    <clipPath
       id="clipPath26"
       clipPathUnits="userSpaceOnUse">
      <path
         inkscape:connector-curvature="0"
         id="path24"
         d="M 0,406.265 H 1207.638 V 0 H 0 Z" />
    </clipPath>
  </defs>
  <sodipodi:namedview
     id="base"
     pagecolor="#ffffff"
     bordercolor="#666666"
     borderopacity="1.0"
     inkscape:pageopacity="0.0"
     inkscape:pageshadow="2"
     inkscape:zoom="0.67617878"
     inkscape:cx="663.28612"
     inkscape:cy="129.69586"
     inkscape:document-units="mm"
     inkscape:current-layer="layer1"
     showgrid="false"
     fit-margin-top="0"
     fit-margin-left="0"
     fit-margin-right="0"
     fit-margin-bottom="0"
     units="mm"
     inkscape:window-width="1280"
     inkscape:window-height="744"
     inkscape:window-x="-4"
     inkscape:window-y="-4"
     inkscape:window-maximized="1" />
  <metadata
     id="metadata129">
    <rdf:RDF>
      <cc:Work
         rdf:about="">
        <dc:format>image/svg+xml</dc:format>
        <dc:type
           rdf:resource="http://purl.org/dc/dcmitype/StillImage" />
        <dc:title></dc:title>
      </cc:Work>
    </rdf:RDF>
  </metadata>
  <g
     inkscape:label="Layer 1"
     inkscape:groupmode="layer"
     id="layer1"
     transform="translate(47.7385,-172.99416)">
    <g
       transform="matrix(0.35277777,0,0,-0.35277777,-84.257939,279.97015)"
       inkscape:label="Logo_eDreams_RGB"
       id="g18">
      <g
         id="g20">
        <g
           clip-path="url(#clipPath26)"
           id="g22">
          <g
             transform="translate(135.6403,150.4616)"
             id="g28">
            <path
               inkscape:connector-curvature="0"
               id="path30"
               style="fill:#ffcc00;fill-opacity:1;fill-rule:nonzero;stroke:none"
               d="m 0,0 h -13.985 c -8.446,0 -15.301,-6.854 -15.301,-15.315 v -13.97 c 0,-8.447 6.855,-15.316 15.301,-15.316 H 0 c 8.461,0 15.301,6.869 15.301,15.316 v 13.97 C 15.301,-6.854 8.461,0 0,0" />
          </g>
          <g
             transform="translate(204.2848,188.5983)"
             id="g32">
            <path
               inkscape:connector-curvature="0"
               id="path34"
               style="fill:#ffcc00;fill-opacity:1;fill-rule:nonzero;stroke:none"
               d="M 0,0 H -23.363 C -33.92,0 -42.482,-8.562 -42.482,-19.119 V -42.49 c 0,-10.557 8.562,-19.133 19.119,-19.133 H 0 c 10.565,0 19.119,8.576 19.119,19.133 v 23.371 C 19.119,-8.562 10.565,0 0,0" />
          </g>
          <g
             transform="translate(366.5719,300.4044)"
             id="g36">
            <path
               inkscape:connector-curvature="0"
               id="path38"
               style="fill:#ffcc00;fill-opacity:1;fill-rule:nonzero;stroke:none"
               d="m 0,0 h -105.233 c -10.558,0 -19.126,-8.576 -19.126,-19.147 v -105.227 c 0,-10.572 8.568,-19.133 19.126,-19.133 H 0 c 10.571,0 19.133,8.561 19.133,19.133 V -19.147 C 19.133,-8.576 10.571,0 0,0" />
          </g>
          <g
             transform="translate(847.7487,176.7248)"
             id="g40">
            <path
               inkscape:connector-curvature="0"
               id="path42"
               style="fill:#003399;fill-opacity:1;fill-rule:nonzero;stroke:none"
               d="m 0,0 c -6.458,-1.634 -13.92,-2.646 -20.782,-2.646 -17.572,0 -18.57,10.094 -18.57,13.724 0,3.442 0.998,12.929 18.57,12.929 H 0 Z m -14.13,84.546 c -14.527,0 -23.992,-1.808 -34.904,-8.07 -3.428,-2.025 -5.063,-5.655 -5.063,-9.285 0,-5.047 4.441,-9.082 9.908,-9.082 1.815,0 4.035,0.809 5.647,1.823 7.064,4.236 12.307,5.451 21.802,5.451 C -6.248,65.383 0,58.716 0,50.242 V 43.17 h -20.782 c -12.315,0 -21.997,-3.023 -28.874,-8.866 -6.848,-5.655 -10.486,-13.334 -10.486,-23.226 0,-9.878 3.638,-18.15 10.486,-24.007 6.877,-5.872 16.559,-8.88 28.874,-8.88 11.308,0 22.805,1.808 32.699,5.25 5.234,1.808 8.879,6.667 8.879,12.308 v 54.493 c 0,17.961 -12.307,34.304 -34.926,34.304" />
          </g>
          <g
             transform="translate(1079.8795,214.8615)"
             id="g44">
            <path
               inkscape:connector-curvature="0"
               id="path46"
               style="fill:#003399;fill-opacity:1;fill-rule:nonzero;stroke:none"
               d="m 0,0 -19.77,6.45 c -4.251,1.417 -8.272,4.657 -8.272,9.907 0,6.855 5.445,10.89 13.717,10.89 6.661,0 14.932,-1.605 19.98,-4.035 1.417,-0.622 3.435,-1.013 4.859,-1.013 5.424,0 9.675,4.441 9.675,9.676 0,4.237 -2.617,7.867 -6.653,9.486 -6.681,3.038 -13.73,5.048 -27.448,5.048 -20.19,0 -34.926,-12.727 -34.926,-30.472 0,-15.142 8.475,-23.602 19.379,-27.651 l 16.545,-6.045 c 7.477,-2.633 13.521,-5.062 13.521,-12.511 0,-6.869 -5.054,-10.513 -14.736,-10.513 -8.872,0 -15.54,1.822 -20.985,4.657 -1.417,0.593 -3.232,1.208 -4.642,1.208 -5.655,0 -10.081,-4.853 -10.081,-10.103 0,-4.02 2.416,-7.462 6.248,-9.27 7.463,-3.442 17.152,-5.654 29.069,-5.654 21.592,0 35.924,13.927 35.924,31.686 C 21.404,-13.536 13.319,-4.455 0,0" />
          </g>
          <g
             transform="translate(979.6578,261.2707)"
             id="g48">
            <path
               inkscape:connector-curvature="0"
               id="path50"
               style="fill:#003399;fill-opacity:1;fill-rule:nonzero;stroke:none"
               d="M 0,0 C -10.081,0 -19.973,-2.82 -28.253,-8.272 -34.508,-3.038 -42.996,0 -52.672,0 c -11.707,0 -21.996,-1.808 -32.496,-5.843 -5.047,-2.011 -8.475,-6.884 -8.475,-12.321 v -77.691 c 0,-5.858 4.642,-10.499 10.486,-10.499 5.669,0 10.311,4.641 10.311,10.499 v 73.858 c 6.45,1.822 10.897,2.834 18.164,2.834 8.866,0 16.545,-3.022 16.545,-14.751 v -61.941 c 0,-5.858 4.634,-10.499 10.297,-10.499 5.843,0 10.485,4.641 10.485,10.499 v 71.443 c 5.047,3.225 11.107,5.249 17.355,5.249 9.486,0 17.368,-7.881 17.368,-17.368 v -59.324 c 0,-5.858 4.426,-10.499 10.282,-10.499 5.859,0 10.5,4.641 10.5,10.499 v 57.718 C 38.15,-16.343 21.794,0 0,0" />
          </g>
          <g
             transform="translate(451.0739,217.4792)"
             id="g52">
            <path
               inkscape:connector-curvature="0"
               id="path54"
               style="fill:#003399;fill-opacity:1;fill-rule:nonzero;stroke:none"
               d="M 0,0 C 0,16.95 6.87,24.629 19.589,24.629 32.497,24.629 39.366,16.747 39.366,0 Z M 19.589,43.791 C 7.875,43.791 -2.228,39.959 -9.683,32.497 -16.949,25.222 -20.782,15.127 -20.782,3.428 v -25.425 c 0,-11.902 3.833,-21.997 11.099,-29.257 7.455,-7.476 17.558,-11.309 29.272,-11.309 10.681,0 20.992,2.212 30.667,6.855 3.63,1.822 5.25,5.25 5.25,9.082 0,5.25 -4.845,9.487 -9.885,9.487 -1.41,0 -2.828,-0.397 -4.245,-1.012 -6.861,-3.022 -14.129,-5.25 -21.787,-5.25 -6.862,0 -12.127,2.43 -15.539,6.87 C 1.417,-32.887 0,-27.449 0,-19.177 h 47.031 c 7.275,0 13.117,5.843 13.117,13.117 v 9.488 c 0,11.699 -4.042,21.794 -11.309,29.069 -7.253,7.462 -17.341,11.294 -29.25,11.294" />
          </g>
          <g
             transform="translate(718.2614,217.4792)"
             id="g56">
            <path
               inkscape:connector-curvature="0"
               id="path58"
               style="fill:#003399;fill-opacity:1;fill-rule:nonzero;stroke:none"
               d="M 0,0 C 0,16.95 6.869,24.629 19.575,24.629 32.497,24.629 39.358,16.747 39.358,0 Z M 19.575,43.791 C 7.883,43.791 -2.228,39.959 -9.682,32.497 -16.949,25.222 -20.781,15.127 -20.781,3.428 v -25.425 c 0,-11.902 3.832,-21.997 11.099,-29.257 7.454,-7.476 17.565,-11.309 29.257,-11.309 10.708,0 20.998,2.212 30.681,6.855 3.63,1.822 5.25,5.25 5.25,9.082 0,5.25 -4.845,9.487 -9.892,9.487 -1.403,0 -2.828,-0.397 -4.223,-1.012 -6.87,-3.022 -14.144,-5.25 -21.816,-5.25 -6.862,0 -12.097,2.43 -15.525,6.87 C 1.418,-32.887 0,-27.449 0,-19.177 h 47.038 c 7.268,0 13.11,5.843 13.11,13.117 v 9.488 c 0,11.699 -4.035,21.794 -11.309,29.069 -7.26,7.462 -17.34,11.294 -29.264,11.294" />
          </g>
          <g
             transform="translate(684.818,259.6505)"
             id="g60">
            <path
               inkscape:connector-curvature="0"
               id="path62"
               style="fill:#003399;fill-opacity:1;fill-rule:nonzero;stroke:none"
               d="m 0,0 c -5.055,1.027 -10.095,1.62 -15.128,1.62 -17.158,0 -30.073,-12.915 -30.073,-30.052 v -65.803 c 0,-5.858 4.642,-10.499 10.484,-10.499 5.662,0 10.298,4.641 10.298,10.499 v 67.408 c 0,5.033 4.237,9.285 9.291,9.285 3.219,0 6.848,-0.825 10.073,-1.605 1.627,-0.42 2.228,-0.42 3.442,-0.42 5.857,0 9.893,4.237 9.893,9.69 C 8.28,-5.047 4.837,-0.983 0,0" />
          </g>
          <g
             transform="translate(600.7418,211.4196)"
             id="g64">
            <path
               inkscape:connector-curvature="0"
               id="path66"
               style="fill:#003399;fill-opacity:1;fill-rule:nonzero;stroke:none"
               d="m 0,0 c 0,-21.187 -12.307,-34.102 -33.898,-34.102 h -18.57 V 66.612 h 18.57 C -12.307,66.612 0,53.886 0,32.496 Z M -34.094,86.997 H -60.74 c -7.268,0 -13.117,-5.864 -13.117,-12.922 V -41.579 c 0,-7.043 5.849,-12.914 13.117,-12.914 h 26.646 c 33.09,0 55.491,21.997 55.491,54.898 v 31.686 c 0,32.902 -22.401,54.906 -55.491,54.906" />
          </g>
        </g>
      </g>
    </g>
  </g>
</svg>
