<?xml version="1.0" encoding="utf-8"?>
<!-- Generator: Adobe Illustrator 19.2.1, SVG Export Plug-In . SVG Version: 6.00 Build 0)  -->
<svg version="1.1" id="Layer_1" xmlns="http://www.w3.org/2000/svg" xmlns:xlink="http://www.w3.org/1999/xlink" x="0px" y="0px"
	 width="240px" height="80px" viewBox="0 0 240 80" style="enable-background:new 0 0 240 80;" xml:space="preserve">
<style type="text/css">
	.st0{fill:url(#SVGID_1_);}
	.st1{fill:url(#SVGID_2_);}
	.st2{fill:url(#SVGID_3_);}
	.st3{fill:url(#SVGID_4_);}
	.st4{fill:url(#SVGID_5_);}
	.st5{fill:url(#SVGID_6_);}
	.st6{fill:url(#SVGID_7_);}
	.st7{fill:url(#SVGID_8_);}
	.st8{fill:url(#SVGID_9_);}
	.st9{fill:url(#SVGID_10_);}
	.st10{fill:url(#SVGID_11_);}
	.st11{fill:url(#SVGID_12_);}
	.st12{fill:url(#SVGID_13_);}
	.st13{fill:url(#SVGID_14_);}
</style>
<g>
	<g>
		<g>
			<g>
				<linearGradient id="SVGID_1_" gradientUnits="userSpaceOnUse" x1="-26.4929" y1="38.6304" x2="299.4594" y2="38.6304">
					<stop  offset="6.134970e-03" style="stop-color:#016A94"/>
					<stop  offset="7.490502e-02" style="stop-color:#007099"/>
					<stop  offset="0.3784" style="stop-color:#008CAD"/>
					<stop  offset="0.6447" style="stop-color:#00A1BD"/>
					<stop  offset="0.8609" style="stop-color:#00B0C8"/>
					<stop  offset="1" style="stop-color:#00B7CE"/>
				</linearGradient>
				<path class="st0" d="M5,25.2h18.9v5h-13v6.2h11.3V41H10.9v11.1H5V25.2z"/>
				<linearGradient id="SVGID_2_" gradientUnits="userSpaceOnUse" x1="-26.4955" y1="38.6304" x2="299.4698" y2="38.6304">
					<stop  offset="6.134970e-03" style="stop-color:#016A94"/>
					<stop  offset="7.490502e-02" style="stop-color:#007099"/>
					<stop  offset="0.3784" style="stop-color:#008CAD"/>
					<stop  offset="0.6447" style="stop-color:#00A1BD"/>
					<stop  offset="0.8609" style="stop-color:#00B0C8"/>
					<stop  offset="1" style="stop-color:#00B7CE"/>
				</linearGradient>
				<path class="st1" d="M25.6,25.2h5.3v26.9h-5.3V25.2z"/>
				<linearGradient id="SVGID_3_" gradientUnits="userSpaceOnUse" x1="-26.4908" y1="38.6304" x2="299.45" y2="38.6304">
					<stop  offset="6.134970e-03" style="stop-color:#016A94"/>
					<stop  offset="7.490502e-02" style="stop-color:#007099"/>
					<stop  offset="0.3784" style="stop-color:#008CAD"/>
					<stop  offset="0.6447" style="stop-color:#00A1BD"/>
					<stop  offset="0.8609" style="stop-color:#00B0C8"/>
					<stop  offset="1" style="stop-color:#00B7CE"/>
				</linearGradient>
				<path class="st2" d="M38,29.6h-5.3v-4.4H38V29.6z M32.6,32.6H38v19.5h-5.3V32.6z"/>
				<linearGradient id="SVGID_4_" gradientUnits="userSpaceOnUse" x1="-26.4925" y1="45.7629" x2="299.457" y2="45.7629">
					<stop  offset="6.134970e-03" style="stop-color:#016A94"/>
					<stop  offset="7.490502e-02" style="stop-color:#007099"/>
					<stop  offset="0.3784" style="stop-color:#008CAD"/>
					<stop  offset="0.6447" style="stop-color:#00A1BD"/>
					<stop  offset="0.8609" style="stop-color:#00B0C8"/>
					<stop  offset="1" style="stop-color:#00B7CE"/>
				</linearGradient>
				<path class="st3" d="M58.6,50.8c0,3.2-1.1,8.6-10.1,8.6c-3.8,0-8.3-1.8-8.6-6.2h5.3c0.5,2,2.1,2.7,4,2.7c3,0,4.3-2,4.3-4.8v-2.6
					h-0.1c-1.2,2-3.5,3-5.8,3c-5.8,0-8.3-4.4-8.3-9.8c0-5,2.9-9.6,8.4-9.6c2.6,0,4.5,0.9,5.8,3.1h0.1v-2.6h5.1V50.8z M53.5,42.1
					c0-3.2-1.1-6-4.6-6c-3,0-4.3,2.6-4.3,5.5c0,2.8,1.1,5.8,4.3,5.8C52,47.5,53.5,44.9,53.5,42.1z"/>
				<linearGradient id="SVGID_5_" gradientUnits="userSpaceOnUse" x1="-26.4923" y1="38.6304" x2="299.456" y2="38.6304">
					<stop  offset="6.134970e-03" style="stop-color:#016A94"/>
					<stop  offset="7.490502e-02" style="stop-color:#007099"/>
					<stop  offset="0.3784" style="stop-color:#008CAD"/>
					<stop  offset="0.6447" style="stop-color:#00A1BD"/>
					<stop  offset="0.8609" style="stop-color:#00B0C8"/>
					<stop  offset="1" style="stop-color:#00B7CE"/>
				</linearGradient>
				<path class="st4" d="M60.2,25.2h5.3v10.1h0.1c1.4-2.2,3.7-3.2,5.7-3.2c5.7,0,7.1,3.2,7.1,8v12h-5.3v-11c0-3.2-0.9-4.8-3.4-4.8
					c-2.9,0-4.1,1.6-4.1,5.6v10.2h-5.3V25.2z"/>
				<linearGradient id="SVGID_6_" gradientUnits="userSpaceOnUse" x1="-26.4921" y1="39.5338" x2="299.4543" y2="39.5338">
					<stop  offset="6.134970e-03" style="stop-color:#016A94"/>
					<stop  offset="7.490502e-02" style="stop-color:#007099"/>
					<stop  offset="0.3784" style="stop-color:#008CAD"/>
					<stop  offset="0.6447" style="stop-color:#00A1BD"/>
					<stop  offset="0.8609" style="stop-color:#00B0C8"/>
					<stop  offset="1" style="stop-color:#00B7CE"/>
				</linearGradient>
				<path class="st5" d="M87.2,32.6h3.9v3.6h-3.9v9.6c0,1.8,0.5,2.3,2.3,2.3c0.6,0,1.1,0,1.7-0.2v4.2c-0.9,0.1-2.1,0.2-3.1,0.2
					c-3.3,0-6.1-0.8-6.1-4.6V36.2h-3.2v-3.6h3.2v-5.8h5.3V32.6z"/>
				<linearGradient id="SVGID_7_" gradientUnits="userSpaceOnUse" x1="-26.4898" y1="38.6304" x2="299.4522" y2="38.6304">
					<stop  offset="6.134970e-03" style="stop-color:#016A94"/>
					<stop  offset="7.490502e-02" style="stop-color:#007099"/>
					<stop  offset="0.3784" style="stop-color:#008CAD"/>
					<stop  offset="0.6447" style="stop-color:#00A1BD"/>
					<stop  offset="0.8609" style="stop-color:#00B0C8"/>
					<stop  offset="1" style="stop-color:#00B7CE"/>
				</linearGradient>
				<path class="st6" d="M92.4,25.2h5.9l11.2,18h0.1v-18h5.5v26.9h-5.9L98,34.1H98v18h-5.5V25.2z"/>
				<linearGradient id="SVGID_8_" gradientUnits="userSpaceOnUse" x1="-26.4956" y1="42.3381" x2="299.4604" y2="42.3381">
					<stop  offset="6.134970e-03" style="stop-color:#016A94"/>
					<stop  offset="7.490502e-02" style="stop-color:#007099"/>
					<stop  offset="0.3784" style="stop-color:#008CAD"/>
					<stop  offset="0.6447" style="stop-color:#00A1BD"/>
					<stop  offset="0.8609" style="stop-color:#00B0C8"/>
					<stop  offset="1" style="stop-color:#00B7CE"/>
				</linearGradient>
				<path class="st7" d="M121.9,43.6c0.2,3.4,1.8,4.9,4.8,4.9c2.1,0,3.9-1.3,4.2-2.5h4.7c-1.5,4.6-4.7,6.5-9.1,6.5
					c-6.1,0-9.9-4.2-9.9-10.2c0-5.8,4-10.3,9.9-10.3c6.6,0,9.8,5.6,9.4,11.6H121.9z M130.6,40.2c-0.5-2.7-1.7-4.1-4.3-4.1
					c-3.4,0-4.4,2.6-4.4,4.1H130.6z"/>
				<linearGradient id="SVGID_9_" gradientUnits="userSpaceOnUse" x1="-26.4934" y1="39.5338" x2="299.4553" y2="39.5338">
					<stop  offset="6.134970e-03" style="stop-color:#016A94"/>
					<stop  offset="7.490502e-02" style="stop-color:#007099"/>
					<stop  offset="0.3784" style="stop-color:#008CAD"/>
					<stop  offset="0.6447" style="stop-color:#00A1BD"/>
					<stop  offset="0.8609" style="stop-color:#00B0C8"/>
					<stop  offset="1" style="stop-color:#00B7CE"/>
				</linearGradient>
				<path class="st8" d="M143.4,32.6h4.7v3.6h-4.7v9.6c0,1.8,0.5,2.3,2.3,2.3c0.6,0,1.1,0,1.7-0.2v4.2c-0.9,0.1-2.1,0.2-3.1,0.2
					c-3.3,0-6.1-0.8-6.1-4.6V36.2h-3.2v-3.6h3.2v-5.8h5.3V32.6z"/>
				<linearGradient id="SVGID_10_" gradientUnits="userSpaceOnUse" x1="-26.4947" y1="42.3379" x2="299.4569" y2="42.3379">
					<stop  offset="6.134970e-03" style="stop-color:#016A94"/>
					<stop  offset="7.490502e-02" style="stop-color:#007099"/>
					<stop  offset="0.3784" style="stop-color:#008CAD"/>
					<stop  offset="0.6447" style="stop-color:#00A1BD"/>
					<stop  offset="0.8609" style="stop-color:#00B0C8"/>
					<stop  offset="1" style="stop-color:#00B7CE"/>
				</linearGradient>
				<path class="st9" d="M170.7,52.1h-5.5L161.8,39h-0.1l-3.3,13.1h-5.5l-6.2-19.5h5.6l3.6,13.2h0.1l3.2-13.2h5.2l3.3,13.2h0.1
					l3.6-13.2h5.5L170.7,52.1z"/>
				<linearGradient id="SVGID_11_" gradientUnits="userSpaceOnUse" x1="-26.4976" y1="42.3381" x2="299.4611" y2="42.3381">
					<stop  offset="6.134970e-03" style="stop-color:#016A94"/>
					<stop  offset="7.490502e-02" style="stop-color:#007099"/>
					<stop  offset="0.3784" style="stop-color:#008CAD"/>
					<stop  offset="0.6447" style="stop-color:#00A1BD"/>
					<stop  offset="0.8609" style="stop-color:#00B0C8"/>
					<stop  offset="1" style="stop-color:#00B7CE"/>
				</linearGradient>
				<path class="st10" d="M185.6,32.1c6.1,0,10.1,4.1,10.1,10.3c0,6.2-4,10.2-10.1,10.2c-6.1,0-10-4.1-10-10.2
					C175.5,36.1,179.5,32.1,185.6,32.1z M185.6,48.6c3.7,0,4.7-3.1,4.7-6.2c0-3.1-1.1-6.2-4.7-6.2c-3.6,0-4.7,3.1-4.7,6.2
					C180.8,45.4,181.9,48.6,185.6,48.6z"/>
				<linearGradient id="SVGID_12_" gradientUnits="userSpaceOnUse" x1="-26.5007" y1="42.0742" x2="299.4599" y2="42.0742">
					<stop  offset="6.134970e-03" style="stop-color:#016A94"/>
					<stop  offset="7.490502e-02" style="stop-color:#007099"/>
					<stop  offset="0.3784" style="stop-color:#008CAD"/>
					<stop  offset="0.6447" style="stop-color:#00A1BD"/>
					<stop  offset="0.8609" style="stop-color:#00B0C8"/>
					<stop  offset="1" style="stop-color:#00B7CE"/>
				</linearGradient>
				<path class="st11" d="M196.8,32.6h5.1v3.6h0.1c1-2.4,3.6-4.1,6.2-4.1c0.4,0,0.8,0.1,1.2,0.2v5c-0.5-0.1-1.3-0.2-1.9-0.2
					c-3.9,0-5.3,2.8-5.3,6.2v8.8h-5.3V32.6z"/>
				<linearGradient id="SVGID_13_" gradientUnits="userSpaceOnUse" x1="-26.4951" y1="38.6304" x2="299.4559" y2="38.6304">
					<stop  offset="6.134970e-03" style="stop-color:#016A94"/>
					<stop  offset="7.490502e-02" style="stop-color:#007099"/>
					<stop  offset="0.3784" style="stop-color:#008CAD"/>
					<stop  offset="0.6447" style="stop-color:#00A1BD"/>
					<stop  offset="0.8609" style="stop-color:#00B0C8"/>
					<stop  offset="1" style="stop-color:#00B7CE"/>
				</linearGradient>
				<path class="st12" d="M210.6,25.2h5.3v14.4l6.7-7h6.3l-7.3,7.2l8.2,12.3h-6.5l-5.3-8.7l-2.1,2v6.7h-5.3V25.2z"/>
			</g>
		</g>
	</g>
	<g>
		<linearGradient id="SVGID_14_" gradientUnits="userSpaceOnUse" x1="229.8199" y1="27.1596" x2="235.03" y2="27.1596">
			<stop  offset="0" style="stop-color:#009DBA"/>
			<stop  offset="1" style="stop-color:#00B7CE"/>
		</linearGradient>
		<path class="st13" d="M232.4,24.6c0.4,0,0.9,0.1,1.3,0.3c0.4,0.2,0.7,0.5,1,1c0.2,0.4,0.4,0.9,0.4,1.3c0,0.5-0.1,0.9-0.3,1.3
			c-0.2,0.4-0.6,0.7-1,1c-0.4,0.2-0.8,0.3-1.3,0.3c-0.5,0-0.9-0.1-1.3-0.3s-0.7-0.6-1-1c-0.2-0.4-0.3-0.8-0.3-1.3
			c0-0.5,0.1-0.9,0.4-1.3c0.2-0.4,0.6-0.7,1-1C231.5,24.7,232,24.6,232.4,24.6z M232.4,25.1c-0.4,0-0.7,0.1-1,0.3
			c-0.3,0.2-0.6,0.4-0.8,0.8c-0.2,0.3-0.3,0.7-0.3,1.1c0,0.4,0.1,0.7,0.3,1c0.2,0.3,0.4,0.6,0.8,0.8c0.3,0.2,0.7,0.3,1,0.3
			c0.4,0,0.7-0.1,1-0.3c0.3-0.2,0.6-0.4,0.8-0.8c0.2-0.3,0.3-0.7,0.3-1c0-0.4-0.1-0.7-0.3-1.1c-0.2-0.3-0.4-0.6-0.8-0.8
			C233.1,25.2,232.8,25.1,232.4,25.1z M231.2,28.6v-2.8h0.6c0.5,0,0.8,0,0.9,0c0.2,0,0.3,0.1,0.4,0.1c0.1,0.1,0.2,0.1,0.3,0.3
			c0.1,0.1,0.1,0.3,0.1,0.4c0,0.2-0.1,0.4-0.2,0.5c-0.1,0.1-0.3,0.2-0.5,0.3c0.1,0,0.1,0.1,0.2,0.1c0,0,0.1,0.1,0.2,0.2
			c0,0,0.1,0.1,0.2,0.3l0.3,0.6H233l-0.2-0.4c-0.2-0.3-0.3-0.5-0.4-0.6c-0.1-0.1-0.2-0.1-0.4-0.1h-0.1v1.1H231.2z M231.8,27h0.2
			c0.3,0,0.5,0,0.6,0c0.1,0,0.1-0.1,0.2-0.1c0-0.1,0.1-0.1,0.1-0.2c0-0.1,0-0.1-0.1-0.2c0-0.1-0.1-0.1-0.2-0.1c-0.1,0-0.3,0-0.6,0
			h-0.2V27z"/>
	</g>
</g>
</svg>
