<?xml version="1.0" encoding="UTF-8" standalone="no"?>
<svg
   xmlns:dc="http://purl.org/dc/elements/1.1/"
   xmlns:cc="http://creativecommons.org/ns#"
   xmlns:rdf="http://www.w3.org/1999/02/22-rdf-syntax-ns#"
   xmlns:svg="http://www.w3.org/2000/svg"
   xmlns="http://www.w3.org/2000/svg"
   viewBox="0 0 1167.5 280"
   height="280"
   width="1167.5"
   xml:space="preserve"
   version="1.1"
   id="svg2"><metadata
     id="metadata8"><rdf:RDF><cc:Work
         rdf:about=""><dc:format>image/svg+xml</dc:format><dc:type
           rdf:resource="http://purl.org/dc/dcmitype/StillImage" /></cc:Work></rdf:RDF></metadata><defs
     id="defs6" /><g
     transform="matrix(1.25,0,0,-1.25,0,280)"
     id="g10"><g
       transform="scale(0.1,0.1)"
       id="g12"><path
         id="path14"
         style="fill:#4874c3;fill-opacity:1;fill-rule:nonzero;stroke:none"
         d="m 7880,1700 -300,0 0,-1180 360,0 0,699.9 c 0,99.43 76.11,180.03 170,180.03 93.89,0 170,-80.6 170,-180.03 l 0,-699.9 360,0 0,699.8 c 0,0.04 0,0.09 0,0.13 0,99.41 76.11,180 170,180 93.89,0 170,-80.59 170,-180 0,-0.04 0,-0.09 0,-0.13 l 0,-699.8 360,0 0,800 c 0,231.96 -201.47,420 -450,420 -125.2,0 -238.46,-47.72 -320.04,-124.74 -81.57,76.98 -194.8,124.67 -319.96,124.67 -108.24,0 -207.55,-35.66 -285.18,-95.09 -1.42,-1.15 -2.82,-2.23 -4.17,-3.23 -7.07,-5.55 -13.96,-11.3 -20.65,-17.23 l 0,15.62 c 0,33.14 -26.86,60 -60,60" /><path
         id="path16"
         style="fill:#4874c3;fill-opacity:1;fill-rule:nonzero;stroke:none"
         d="m 6760,820 c 154.64,0 280,129.84 280,290 0,160.16 -125.36,290 -280,290 -154.64,0 -280,-129.84 -280,-290 0,-160.16 125.36,-290 280,-290 z m 0,-340 c -353.46,0 -640,282.059 -640,630 0,347.94 286.54,630 640,630 353.46,0 640,-282.06 640,-630 0,-347.941 -286.54,-630 -640,-630" /><path
         id="path18"
         style="fill:#4874c3;fill-opacity:1;fill-rule:nonzero;stroke:none"
         d="M 6018.89,1568.54 C 5904.3,1674.84 5749.88,1740 5580,1740 c -353.46,0 -640,-282.06 -640,-630 0,-347.941 286.54,-630 640,-630 184.05,0 349.96,76.48 466.71,198.91 L 5808.98,943.059 C 5758.3,868.621 5674.63,820 5580,820 c -154.64,0 -280,129.84 -280,290 0,160.16 125.36,290 280,290 89.55,0 169.28,-43.54 220.53,-111.29 l 218.36,279.83" /><path
         id="path20"
         style="fill:#f59e21;fill-opacity:1;fill-rule:nonzero;stroke:none"
         d="m 4580,900 c 132.55,0 240,-102.98 240,-230 0,-127.031 -107.45,-230 -240,-230 -132.55,0 -240,102.969 -240,230 0,127.02 107.45,230 240,230" /><path
         id="path22"
         style="fill:#4874c3;fill-opacity:1;fill-rule:nonzero;stroke:none"
         d="m 3500,820 c 154.64,0 280,129.84 280,290 0,160.16 -125.36,290 -280,290 -154.64,0 -280,-129.84 -280,-290 0,-160.16 125.36,-290 280,-290 z M 3200,597.02 3200,0 l -360,0 0,1700 300,0 c 33.14,0 60,-26.86 60,-60 l 0,-17.02 c 101.49,73.67 225.76,117.02 360,117.02 342.42,0 620,-282.06 620,-630 0,-347.941 -277.58,-630 -620,-630 -134.24,0 -258.51,43.352 -360,117.02" /><path
         id="path24"
         style="fill:#4874c3;fill-opacity:1;fill-rule:nonzero;stroke:none"
         d="m 2440,1820 c -121.5,0 -220,94.02 -220,210 0,115.98 98.5,210 220,210 121.5,0 220,-94.02 220,-210 0,-115.98 -98.5,-210 -220,-210 z m 120,-120 -300,0 0,-1180 360,0 0,1120 c 0,33.14 -26.86,60 -60,60" /><path
         id="path26"
         style="fill:#4874c3;fill-opacity:1;fill-rule:nonzero;stroke:none"
         d="m 2060,1740 c -127.01,0 -244.48,-44.34 -340,-119.61 0,4.36 0,10.9 0,19.61 0,33.14 -26.86,60 -59.99,60 l -300.01,0 0,-1180 360,0 c 0,284.109 0,484.11 0,600 0,154.64 134.31,280 300,280 27.7,0 54.53,-3.5 80,-10.07 l 0,348.61 c -13.15,0.96 -26.52,1.46 -40,1.46" /><path
         id="path28"
         style="fill:#4874c3;fill-opacity:1;fill-rule:nonzero;stroke:none"
         d="m 1300,2140 -1300,0 0,-320 500,0 0,-1300 360,0 0,1300 500,0 0,260 c 0,33.14 -26.86,60 -60,60" /></g></g></svg>