<?xml version="1.0" encoding="utf-8"?>
<!-- Generator: Adobe Illustrator 22.0.1, SVG Export Plug-In . SVG Version: 6.00 Build 0)  -->
<svg version="1.1" id="Layer_1" xmlns="http://www.w3.org/2000/svg" xmlns:xlink="http://www.w3.org/1999/xlink" x="0px" y="0px"
	 viewBox="0 0 703.6 136.2" style="enable-background:new 0 0 703.6 136.2;" xml:space="preserve">
<style type="text/css">
	.st0{fill:#CB2C30;}
</style>
<title>Hotels_Logo_RED_RGB_TM_WORDMARK</title>
<g id="Layer_2_1_">
	<g id="Layer_1-2">
		<path class="st0" d="M685.5,41.1c-0.6,0-1.1-0.5-1.2-1.1v-8h-2.3c-0.6,0-1-0.5-1-1s0.5-1,1-1h6.8c0.6,0,1,0.5,1,1s-0.5,1-1,1h-2.3
			v8C686.7,40.6,686.2,41.2,685.5,41.1L685.5,41.1z M702.4,41.1c-0.6,0-1.1-0.5-1.2-1.1v-6.9l-3,7.6c-0.1,0.3-0.5,0.5-0.8,0.4
			c-0.2-0.1-0.3-0.2-0.4-0.4l-3-7.6V40c0,0.6-0.5,1.1-1.1,1.1c-0.6,0-1.1-0.5-1.2-1.1v-8.2c0-1.1,0.8-1.9,1.9-1.9
			c0.8,0,1.5,0.5,1.8,1.2l2.2,5.8l2.3-5.8c0.3-0.7,1-1.2,1.8-1.2c1.1,0,1.9,0.9,1.9,1.9c0,0,0,0,0,0V40
			C703.7,40.6,703.1,41.2,702.4,41.1L702.4,41.1z"/>
		<path class="st0" d="M83.2,26.5c0-3.8,1.2-7.5,3.3-10.7c-6.4,1.9-10.9,7.8-10.9,14.5v12.1l7.6,0.4V26.5z"/>
		<path class="st0" d="M75.7,109.7c0,6.7,4.4,12.6,10.9,14.4c-2.2-3.1-3.3-6.9-3.3-10.7V90.8h-7.6V109.7z"/>
		<path class="st0" d="M94.6,90.8H87v22.7c0,6.7,4.4,12.6,10.9,14.5c-2.2-3.1-3.3-6.9-3.3-10.7L94.6,90.8z"/>
		<path class="st0" d="M94.6,22.7c0-3.8,1.1-7.6,3.3-10.7C91.4,13.9,87,19.8,87,26.5v16.5l7.6,0.4L94.6,22.7z"/>
		<path class="st0" d="M9.3,17.9C3.5,21.2,0,27.4,0,34v71.9c0,6.7,3.5,12.8,9.3,16.2c-1.1-2.7-1.7-5.7-1.7-8.6v-87
			C7.6,23.5,8.1,20.6,9.3,17.9z"/>
		<path class="st0" d="M18.9,18.9c0-3,0.6-5.9,1.7-8.6c-5.7,3.4-9.3,9.5-9.3,16.2v87c0,7.9,4.9,15,12.4,17.7
			c-3.1-4-4.8-8.9-4.8-13.9V18.9z"/>
		<path class="st0" d="M113.5,7.6c-8.4,0-15.1,6.8-15.1,15.1c0,0,0,0,0,0v24.6l-37.8-1.9V18.9C60.3,8.5,51.6,0.2,41.2,0.4
			C31.1,0.7,22.9,8.8,22.7,18.9v98.4c0.2,10.4,8.9,18.7,19.3,18.5c10.1-0.2,18.2-8.4,18.5-18.5V87h37.8v30.3
			c0.2,8.4,7.2,15,15.5,14.7c8.1-0.2,14.5-6.7,14.7-14.7V22.7C128.6,14.3,121.8,7.6,113.5,7.6C113.5,7.6,113.5,7.6,113.5,7.6z"/>
		<path class="st0" d="M244.1,99.7v-28h-40.9v28c0,3-2.4,5.5-5.4,5.5c-3.1,0-5.6-2.5-5.6-5.5V35.8c0-3,2.5-5.5,5.5-5.5
			c3.1,0,5.5,2.5,5.5,5.5v26h40.9v-26c-0.1-3.1,2.2-5.6,5.3-5.8c3.1-0.1,5.6,2.2,5.8,5.3c0,0.2,0,0.3,0,0.5v63.9
			c0.1,3.1-2.2,5.6-5.3,5.8s-5.6-2.2-5.8-5.3C244.1,100,244.1,99.8,244.1,99.7z"/>
		<path class="st0" d="M263,77.9c0-15.4,10.4-28,27-28s27,12.6,27,28S306.7,106,290,106S263,93.4,263,77.9z M306.6,77.9
			c0-10.1-5.9-19.2-16.6-19.2s-16.6,9.1-16.6,19.2s6,19.3,16.6,19.3S306.6,88.1,306.6,77.9z"/>
		<path class="st0" d="M375,49.9c16.1,0,26,12.5,26,26.6c0,3-2.1,4.8-5.9,4.8h-36.5c0.8,9.1,7.4,16.6,18.2,16.6
			c4.8,0,9.4-1.5,13.3-4.3c0.7-0.4,1.4-0.6,2.2-0.6c2.2,0,4,1.8,4,4c0,1.3-0.6,2.6-1.8,3.3c-5.5,3.9-12,5.9-18.7,5.7
			c-16,0-27.7-11.3-27.7-28.1C348.2,62.4,359.4,49.9,375,49.9z M358.6,74h32.7c-0.2-7.1-5-15.9-16.3-15.9
			C364.2,58.1,359.1,66.7,358.6,74z"/>
		<path class="st0" d="M407.3,100.2v-65c0-2.8,2.2-5,5-5s5,2.2,5,5v65c0,2.8-2.2,5-5,5S407.3,103,407.3,100.2z"/>
		<path class="st0" d="M423.7,96.5c0-2.3,1.8-4.3,4.2-4.3c0,0,0.1,0,0.1,0c0.9,0,1.7,0.3,2.4,0.8c4.4,3.2,9.6,5,15.1,5.1
			c7.5,0,11.5-3.1,11.5-7.6c0-5.3-6.1-7.1-13-8.6c-9.1-2.1-19.7-4.5-19.7-16c0-8.5,7.3-15.8,20.4-15.8c6.4-0.1,12.6,1.8,17.8,5.5
			c1.9,1.3,2.3,3.8,1.1,5.6c-0.8,1.1-2,1.8-3.4,1.8c-0.8,0-1.6-0.3-2.2-0.8c-3.8-2.7-8.5-4.2-13.2-4.1c-6.8,0-11,2.7-11,7
			c0,4.7,5.8,6.2,12.4,7.8c9.3,2.1,20.4,4.7,20.4,16.9c0,9.2-7.5,16.4-21.6,16.4c-7.4,0-14.1-1.9-19.5-6
			C424.4,99.2,423.7,97.9,423.7,96.5z"/>
		<path class="st0" d="M479.7,92.1c3.8,0,6.9,3.1,7,6.9c-0.1,3.8-3.2,6.9-7,7c-3.8-0.1-6.9-3.2-6.9-7
			C472.9,95.1,476,92.1,479.7,92.1z"/>
		<path class="st0" d="M538.5,77.9c0-15.4,10.4-28,27-28s27,12.6,27,28s-10.3,28.1-27,28.1S538.5,93.4,538.5,77.9z M582.1,77.9
			c0-10.1-5.9-19.2-16.6-19.2s-16.6,9.1-16.6,19.2s6,19.3,16.6,19.3S582.1,88.1,582.1,77.9z"/>
		<path class="st0" d="M674.9,66v34.2c0,2.8-2.3,5-5.1,5c-2.7,0-4.9-2.3-4.9-5V69c0-6.2-2.8-9.2-9.3-9.2c-5.4,0-10.8,6.1-13.3,10
			v30.4c0,2.8-2.2,5-5,5s-5-2.2-5-5V69c0-6.2-2.7-9.2-9.4-9.2c-5.2,0-10.4,6.5-13.1,10.3v30.1c0,2.8-2.2,5-5,5s-5-2.2-5-5V55.6
			c0-2.7,2.1-5,4.9-5c0,0,0,0,0,0c2.8,0,5,2.1,5.1,4.9c0,0,0,0.1,0,0.1v3.1c2.2-3.3,9.3-8.9,17.3-8.9s12.8,4.2,14.5,10
			c4.1-6.1,10.9-9.8,18.2-10C669.8,49.9,674.9,55.3,674.9,66z"/>
		<path class="st0" d="M516.6,49.9c7.6,0,13,2.4,17.1,6.2c0.9,0.9,1.5,2.1,1.5,3.3c0,2.5-1.9,4.5-4.4,4.5c-1.1,0-2.2-0.4-3-1.1
			c-2.9-2.8-6.8-4.2-10.8-4.1c-10.5,0-17.3,8.1-17.3,19.2s6.8,18.9,17.3,19.3c7.1,0.2,14.2-4.9,20-14c0.7-1.1,1.8-3.2,2.6-4.3
			c1.6-2,2.8-1.1,3.7-0.1c1.8,1.8,1.8,6.2,0.6,8.3c-2.3,4.4-5.3,8.5-9,11.8c-5,4.6-11.6,7.1-18.4,7c-16.2,0-27.2-12.1-27.2-28.1
			S500.4,49.9,516.6,49.9z"/>
		<path class="st0" d="M355.3,96.5c0,1.9-5.4,6.1-9.3,8c-2.4,1.1-5,1.7-7.6,1.6c-8.4,0-12.7-4.8-12.7-13.2V59.9h-5.1
			c-2.4,0.1-4.5-1.7-4.6-4.2c-0.1-2.4,1.7-4.5,4.2-4.6c0.1,0,0.3,0,0.4,0h5.1V41c0-2.8,2.2-5,5-5s5,2.2,5,5v10.2h7
			c2.4-0.1,4.5,1.7,4.6,4.2c0.1,2.4-1.7,4.5-4.2,4.6c-0.1,0-0.3,0-0.4,0h-7v30.7c0,3.8,1.8,6.5,5.2,6.5c6.1,0,10.9-9.5,13.6-9.5
			S355.3,94,355.3,96.5z"/>
	</g>
</g>
</svg>
