<svg xmlns="http://www.w3.org/2000/svg" viewBox="0 0 1397.07 393"><defs><style>.cls-1{fill:#de3933;}</style></defs><title>logo airpaz</title><g id="Layer_2" data-name="Layer 2"><g id="Layer_1-2" data-name="Layer 1"><path class="cls-1" d="M240.12,167.32c-42.23,0-84.4-.23-126.59-1.94-.18-2.93,1.82-3.63,3.11-4.66a87.59,87.59,0,0,1,30.32-16c43.91-12.71,88.72-21.52,133.45-30.64,9.8-2,19.58-4.06,29.41-5.88a22.77,22.77,0,0,0,10.65-5C349.94,79,379.39,54.7,409.07,30.72A172.52,172.52,0,0,1,448.64,6.53C458,2.44,467.74-.3,478.16,0c16.17.51,31.95,14.77,34.1,30.83.44,3.27-1.55,4.9-3.56,6.64-17.54,15.13-35,30.35-52.66,45.33C388.55,140.06,320.58,196.72,251,251.36c-13.11,10.29-26.06,20.87-39.88,30.13-35.63,23.85-74.87,33.18-117.49,26.66-10-1.53-19-5.87-27.14-12.07-22.38-17.14-43.33-36-64.32-54.74-3.3-3-2.57-4.67.7-6.75,6.36-4,13-7.56,20.28-9.52,9.66-2.59,18.48-1.53,27.1,4.27,38.63,26,80.92,24.76,118.16-3.2,23.59-17.71,46.39-36.43,69.29-55C238.66,170.33,240,169.72,240.12,167.32Z"/><path class="cls-1" d="M1308.94,130.2c16.5,0,33,0,49.49,0,8.07,0,15.9,1.22,23.31,4.75,17.27,8.23,19.79,31.49,8.36,43.5-25.73,27-50.36,55.1-75.4,82.77-1,1.15-3.21,2.2-2.22,4,.86,1.56,3,.87,4.65.87,22.33,0,44.66,0,67,0,6.69,0,7.28.54,8.41,7.11a82.84,82.84,0,0,1-.44,30.31c-.68,3.47-2.22,5.28-6,5.24-35-.36-70,.88-105-.73a58.39,58.39,0,0,1-24.05-6.14c-18.07-9.21-22-28.07-8.43-43.21,23.44-26.21,47.22-52.1,70.78-78.2,1.91-2.12,6-4.16,4.69-6.93s-5.48-1.2-8.37-1.22c-20-.1-40,0-60-.07-6.75,0-7.25-.37-8.33-7.15a92.45,92.45,0,0,1,.23-28.86c.68-4.43,2.68-6.22,7.26-6.17C1272.95,130.31,1290.95,130.21,1308.94,130.2Z"/><path class="cls-1" d="M727.07,159a158,158,0,0,1,12.16-13.5c15-14.41,32.39-20.5,53.07-16.18,15.81,3.31,23,12.88,21.7,29-.63,8.05-2.06,15.87-5.84,23.09-5.31,10.14-12.28,13-23.19,9.68-11.62-3.58-23.4-5.29-35.49-3-15.55,2.94-23.55,12.37-23.66,28.09-.12,16.66-.08,33.32,0,50a54.67,54.67,0,0,0,1,9.42c1,5.28,3.74,9.34,9.09,10.91,3.81,1.11,3.65,3.09,2.05,5.93-2.57,4.57-5.73,8.71-10.08,11.6-15,10-31,10.7-47,3.17-9.74-4.57-13.27-13.56-13.29-24q-.14-53-.24-106a100.37,100.37,0,0,0-.6-10.46c-.69-6.42-3.36-11.51-10-13.52-3.32-1-2.94-3-1.68-5.41a34.57,34.57,0,0,1,18.6-16.61,49.47,49.47,0,0,1,33.82-.74c10.74,3.47,16.54,11.28,18.05,22.37.22,1.64.42,3.29.65,4.93C726.17,157.94,726.34,158.06,727.07,159Z"/><path class="cls-1" d="M512.72,169q0,48,0,96a61.6,61.6,0,0,0,1,11.94c1,5,3.37,9.11,8.55,10.76,3.24,1,3.25,2.54,1.53,5.11-12.2,18.15-43.39,25.12-62,13.61-9.17-5.67-13.1-14.32-13.11-24.89q0-32,0-64c0-22-.12-44,.05-66,.07-9.7-2.12-17.4-12.83-20.34-4.3-1.18-.6-3,.46-4,8-7,16.21-13.86,24.33-20.77q23.4-19.94,46.8-39.87c1.19-1,2.33-3,4.16-2.11s1.1,3,1.1,4.54Q512.75,119,512.72,169Z"/><path class="cls-1" d="M622.49,213.17c0,18.65-.11,37.29,0,55.94.07,8.09,2,15.31,11.2,17.88,3.09.86,1.89,3,1,4.79A34.77,34.77,0,0,1,614,309.44a49.87,49.87,0,0,1-31.44.13c-10.31-3.28-16.45-10.4-18.09-21.14a73.75,73.75,0,0,1-.75-10.94q-.08-51.2,0-102.4a47.48,47.48,0,0,0-.8-10.43c-1.2-5.4-3.8-9.65-9.4-11.24-3.48-1-3.54-2.81-2-5.56a33.65,33.65,0,0,1,12.4-13.42c13.9-8.13,28.58-8.7,43.2-2.62,11.17,4.64,15.16,14.4,15.23,25.9.11,18.48,0,37,0,55.44Z"/><path class="cls-1" d="M392.61,172.94c18-.1,32.53,14.46,32.71,32.84.18,18.56-14.26,33.73-32.27,33.91s-32.6-14.76-32.59-33.46S374.58,173,392.61,172.94Z"/><path class="cls-1" d="M566.18,72.18C566.49,58,577.46,47.08,591,47.4a24.81,24.81,0,0,1,24,25.63c-.27,14-11.32,25-24.83,24.75S565.87,86.09,566.18,72.18Z"/><path class="cls-1" d="M1004.69,155.28c-11.94-16.84-28.29-25.87-48.9-27.15-19.91-1.23-36.41,6.32-50.66,19.66-4.88,4.57-4.89,4.57-7.07-1.49s-5.94-11.08-11.76-13.69c-15.6-7-31.09-6.62-45.84,2.51a32.7,32.7,0,0,0-11,12.07c-1.66,2.95-2.09,5.11,2,6.34,5.35,1.59,7.93,5.74,9,11a60.45,60.45,0,0,1,1,12.43q0,51.24,0,102.47,0,43,0,86c0,7.5,0,15-.14,22.49-.07,4,1.79,5.56,5.53,5s7.19-1.34,10.78-2c25-4.88,43.47-23.41,42.23-51.24a299.31,299.31,0,0,1,.48-40.95c.33-3.58,1.32-4.13,4.1-1.83,12.8,10.62,27.89,14.5,44.15,14.72,21.5.28,39.86-6.76,54-23.5,13.61-16.16,19.92-35.17,21.58-55.95C1026.42,204.28,1021.06,178.36,1004.69,155.28Zm-40,89c-4.43,12.46-12.81,20.67-26.26,22.23s-23.91-4.16-31.12-15.63c-4.82-7.68-6.6-16.27-7.2-25.17-.72-10.74.1-21.3,4.18-31.38,5.44-13.41,16.77-20.77,31.2-20.5,13.67.25,24.19,8.13,29.15,21.79,2.83,7.78,3.41,15.9,3.67,24.07C968.11,228,967.51,236.35,964.69,244.28Z"/><path class="cls-1" d="M1218.47,286.43c-5.18-1.45-7.79-5.38-9-10.42a42.22,42.22,0,0,1-1-9.92c0-13.33,0-26.66,0-42.47-.34-11.33.49-25.16-.69-39-2.45-28.78-15.82-45.27-43.76-52.44-23.85-6.12-47.88-5.68-71.75.14a74,74,0,0,0-29.43,14.34c-2.64,2.14-3.82,4.47-2.45,7.81,3.95,9.6,10.06,17.2,19.71,21.59,5.07,2.3,9.74,3,14-1.94,2.28-2.62,5.54-4.25,8.74-5.71,23.35-10.68,52.65-.4,50.65,30.64-.36,5.63-.73,6.08-6.29,4.17-10.29-3.53-20.73-6.2-31.71-6.38-21.57-.34-40.88,5.22-56.2,21.28-19.9,20.87-20.58,54.67-1.09,74.32,13.93,14,31.42,19.52,51,19a73.23,73.23,0,0,0,38.95-12.64c3.28-2.17,5.15-1.91,7.19,1.43a18.61,18.61,0,0,0,8.67,7.34c16,6.83,31.47,6.19,46.23-3.35,4.55-2.95,7.77-7.23,10.43-11.94C1222.29,289.37,1222.24,287.49,1218.47,286.43ZM1148.2,262.8c-6.8,5.47-13.77,10.57-22.44,12.63-17.79,4.22-32.38-10.9-27.66-28.62,2.66-10,15.23-17.25,27.17-15.44,9.43,1.42,17.63,5.86,25.57,10.85,3.61,2.27,2.25,5.9,2.59,9C1154.44,256.36,1152,259.75,1148.2,262.8Z"/></g></g></svg>