<?xml version="1.0" encoding="utf-8"?>
<!-- Generator: Adobe Illustrator 22.1.0, SVG Export Plug-In . SVG Version: 6.00 Build 0)  -->
<svg version="1.1" id="Lager_1" xmlns="http://www.w3.org/2000/svg" xmlns:xlink="http://www.w3.org/1999/xlink" x="0px" y="0px"
	 viewBox="0 0 123 50" style="enable-background:new 0 0 123 50;" xml:space="preserve">
<style type="text/css">
	.st0{fill:#005DA8;}
	.st1{fill:#FF9D00;}
	.st2{fill:#FFD110;}
	.st3{fill:#459E3C;}
	.st4{fill:#E60000;}
	.st5{fill:#A95F36;}
</style>
<title>mytrip-logo-big</title>
<g>
	<path class="st0" d="M85.8,42.2l-0.1-0.7v-0.1l-0.2-1.7l-0.7,0.3c-0.3,0.1-0.6,0.1-0.8,0.2h-0.6c-0.1,0-0.1-0.1-0.2-0.1
		c-0.1-0.1-0.2-0.2-0.3-0.4c-0.1-0.7-0.1-1.4-0.1-2.1v-6.4h2.7v-3.7h-2.7v-3.1c0-0.9-0.7-1.6-1.6-1.6h-3.1v4.6h-1.9v3.7h1.9v6.9
		c0,1,0,1.9,0.1,2.9c0.1,1.2,0.9,2.3,2,2.7c0.6,0.3,1.3,0.4,2,0.4h0.1c0.3,0,0.6,0,0.9-0.1h0.3c0.2,0,0.5-0.1,0.7-0.1h0.3
		c0.2-0.1,0.5-0.2,0.7-0.2l0.5-0.2C85.9,43.5,85.8,42.2,85.8,42.2z"/>
	<path class="st1" d="M56.2,27.9c-0.9-0.5-2-0.8-3.1-0.7c-0.9,0-1.9,0.2-2.7,0.7c-0.8,0.4-1.5,1-2.1,1.7c-0.4-0.7-1-1.3-1.8-1.7
		c-0.8-0.5-1.8-0.7-2.8-0.7c-1.8,0-3.5,0.8-4.6,2.1v-0.2c0-0.9-0.7-1.6-1.6-1.6h-2.8v14.7c0,0.9,0.7,1.6,1.6,1.6h3.1v-7.9
		c0-1.1,0.1-2.1,0.3-3.2c0.1-0.6,0.5-1.1,1-1.4c0.5-0.3,1-0.5,1.6-0.5c0.4,0,0.8,0.1,1.1,0.3c0.3,0.2,0.5,0.6,0.7,0.9
		c0.2,0.9,0.2,1.9,0.2,2.8v7.4c0,0.9,0.7,1.6,1.6,1.6h3.1v-7.8c-0.1-1.1,0.1-2.2,0.4-3.3c0.2-0.6,0.5-1.1,1-1.5
		c0.5-0.3,1-0.5,1.6-0.5c0.6-0.1,1.3,0.3,1.6,0.8c0.3,1,0.5,2,0.4,3v7.7c0,0.9,0.7,1.6,1.6,1.6h3.1V33.5c0-1.1-0.1-2.3-0.5-3.3
		C57.7,29.2,57.1,28.3,56.2,27.9z"/>
	<path class="st0" d="M95.6,27.1c-0.7,0-1.4,0.2-2,0.6c-0.6,0.4-1.1,1-1.5,1.6v-0.2c0-0.9-0.7-1.6-1.6-1.6h-2.7v14.7
		c0,0.9,0.7,1.6,1.6,1.6h3.1v-5.4c-0.1-1.7,0.1-3.3,0.4-4.9c0.1-0.6,0.4-1.2,0.9-1.7c0.8-0.6,2-0.6,2.8,0l0.7,0.4l1.4-4.1l-0.5-0.3
		C97.4,27.3,96.5,27.1,95.6,27.1z"/>
	<path class="st0" d="M102.7,27.5h-3.1v14.7c0,0.9,0.7,1.6,1.6,1.6h3.1V29.1C104.3,28.2,103.6,27.5,102.7,27.5z"/>
	<path class="st1" d="M102.7,21.5h-3.1v2.8c0,0.9,0.7,1.6,1.6,1.6h3.1V23C104.3,22.2,103.6,21.5,102.7,21.5z"/>
	<path class="st0" d="M116.1,27c-1,0-2.1,0.2-3,0.7c-0.7,0.4-1.3,0.9-1.8,1.5V29c0-0.9-0.7-1.6-1.6-1.6H107v20.7
		c0,0.9,0.7,1.6,1.6,1.6h3.1V42c0.6,0.6,1.2,1.1,2,1.5c0.8,0.4,1.6,0.6,2.5,0.6c1.9,0,3.6-0.8,4.8-2.2c1.4-1.8,2.1-4,2-6.3
		c0-2.6-0.7-4.7-2-6.1C119.8,27.9,118,27.1,116.1,27z M112.6,32c0.6-0.7,1.5-1.1,2.4-1.1c0.9,0,1.8,0.4,2.3,1.1c0.7,1,1,2.3,0.9,3.5
		c0.1,1.3-0.2,2.6-0.9,3.7c-0.5,0.7-1.4,1.1-2.2,1.1c-1,0-1.9-0.4-2.4-1.2c-0.8-1.1-1.1-2.5-1-3.8C111.5,34.1,111.9,32.9,112.6,32z"
		/>
	<path class="st1" d="M74.7,28.2c-0.3-0.5-0.8-0.8-1.4-0.7h-2.4l-3.6,11.1l-3.4-9.9c-0.2-0.7-0.9-1.1-1.6-1.1h-3.6l6.2,16.4
		c-0.2,0.7-0.5,1.3-0.9,1.9c-0.5,0.5-1.2,0.8-2,0.7l0,0c-0.5,0-0.9,0.2-1.2,0.6c-0.3,0.2-0.4,0.6-0.4,0.9l0.2,2l0.5,0.1
		c0.2,0.1,0.5,0.1,0.7,0.1h2.5c0.3,0,0.6-0.1,0.9-0.2c0.6-0.1,1.1-0.4,1.6-0.7c0.5-0.3,0.9-0.7,1.2-1.2c0.4-0.7,0.8-1.4,1-2.1
		l5.9-16.1l0.1-0.4l0,0C75,28.9,74.9,28.5,74.7,28.2z"/>
	<path class="st0" d="M12.1,0.7C10.3,1.3,8.7,2,7.1,2.9c0,0-2.4,2.3-3.6,7.4c-1.2,5.5,1.6,10.8,1.6,10.8c3.1,5.8,7.7,10.6,13.3,14.1
		c0.8,0.1,1.6,0,2.3-0.4c-2.5-3.2-4.6-6.7-6.2-10.5c-2-4.3-3.2-9-3.4-13.8C10.8,6.9,11.5,1.8,12.1,0.7z"/>
	<path class="st2" d="M16.1,0c2.6-0.1,5.3,0.2,7.8,1c1.2,0.9,2.3,2,3.2,3.3c1.1,1.6,1.9,3.4,2.4,5.3c0.3,1.3,0.6,2.6,0.7,3.9
		c0.1,1,0.2,1.9,0.1,2.9c0,1.3-0.2,2.6-0.4,3.9c-0.2,1.2-0.4,1.9-0.6,2.9c-0.3,1-0.8,3-1.2,4c0,0-0.7,1.4-1.2,2.5
		c-0.3,0.7-0.7,1.3-1.1,1.9c-0.5,0.7-1.1,1.3-1.9,1.8c0,0,0.3-2.5,0.4-3.9s0.2-2.5,0.3-4.5c0.1-1.6,0.1-3.3,0-4.9
		c0-1.6-0.2-3.2-0.4-4.7c-0.2-1.4-0.5-2.8-0.9-4.1c-0.4-1.3-0.9-2.5-1.6-3.6c-0.6-1.2-1.3-2.3-2-3.3c-0.8-1.1-1.2-1.6-1.9-2.3
		C17.4,1.2,16.8,0.6,16.1,0z"/>
	<path class="st1" d="M11.9,0.8c1.4-0.5,2.9-0.8,4.4-0.8c1.9,1.8,3.6,3.9,4.9,6.2c1.9,3.1,3.1,6.6,3.3,10.3c0.3,3,0.4,5.9,0.2,8.9
		c-0.1,3.4-0.7,8-0.7,8c-1.1,0.7-2.2,1.2-3.4,1.6c-1.7-2-3.2-4.3-4.5-6.7c-1.7-3.3-3.1-6.8-4.1-10.4c-0.8-3.5-1.3-7.1-1.2-10.6
		C10.8,5,11.2,2.9,11.9,0.8z"/>
	<path class="st3" d="M7.2,2.8C4.8,4.2,2.8,6.3,1.5,8.7c-1.3,2.6-1.8,5.6-1.3,8.5c0.3,2.1,2,4.9,3.2,6.4c1.2,1.4,2.5,2.8,3.9,4
		c1.8,1.5,3.6,2.9,5.6,4.2c1.9,1.2,5,3.1,5.7,3.4c-1.7-1.1-3.3-2.3-4.8-3.5c-2-1.8-3.8-3.8-5.5-5.9C6.8,24,5.6,22.1,4.7,20
		c-0.8-1.9-1.2-4-1.4-6c-0.1-1.9,0.2-3.7,0.8-5.5C4.8,6.4,5.8,4.5,7.2,2.8z"/>
	<path class="st4" d="M23.9,1.1c1,0.4,1.9,0.9,2.8,1.4c1.2,0.8,2.2,1.7,3.2,2.8c0.7,0.8,1.2,1.6,1.6,2.5c0.3,0.7,0.6,1.5,0.8,2.2
		c0.2,0.7,0.3,1.4,0.4,2c0,0.7,0,1.5,0,2.2c-0.1,0.8-0.2,1.7-0.4,2.5c-0.2,0.9-0.4,1.7-0.7,2.5c-0.3,0.7-0.6,1.6-0.8,2.2
		s-0.7,1.6-0.9,2.1s-0.5,1.1-0.8,1.8S28,27.3,28,27.3s0.9-2.8,1.3-4.2c0.4-1.2,0.6-2.5,0.7-3.8c0.2-1.4,0.2-2.7,0.3-3.8
		c0-1,0-1.9-0.2-2.9c-0.1-1.1-0.4-2.1-0.7-3.2c-0.3-0.9-0.6-1.9-1-2.8c-0.4-0.9-0.9-1.8-1.6-2.6C26,2.9,25.1,1.9,23.9,1.1z"/>
	<path class="st5" d="M26.4,33.7c-1.7,1.2-3.6,2-5.6,2.6c-1.2,0.3-2.4,0.4-3.6,0.2c0,0,4,3.7,4.6,6.9l0.1,0.4c0,0.2,0.2,0.3,0.3,0.2
		c0,0,0,0,0.1,0c1.2-0.3,2.3-0.8,3.2-1.6c0.1-0.1,0.1-0.1,0.1-0.2C25.7,42.2,26.1,38.5,26.4,33.7z"/>
</g>
</svg>
