<svg id="Layer_1" data-name="Layer 1" xmlns="http://www.w3.org/2000/svg" viewBox="0 0 354.33 70.54"><defs><style>.cls-1{fill:#e39d25;}.cls-2{fill:#13283b;}</style></defs><title>website-logos02</title><path id="path137722" class="cls-1" d="M154.17,25.67c0,.39,1.67.36,3.33.36a80.09,80.09,0,0,0,18.44-2c7.88-1.86,10-4.64,14.42-7.13,9-5.07,20.37-4.19,20.37-5,0-.23-.16-.29-3.34-1.11-.29-1.21-1.87-2-3.43-2-3.69,0-9.75,4.28-15.17,4.28a10.36,10.36,0,0,1-1.73-.16c-2.19-4.09-7.19-7.72-13.37-8.5-3.57-.46-6.12-.88-8.14-1.24-7.16-1.31-9-3.17-9.84-3.17-.16,0-.23.16-.23.29,0,1.37,2.45,5.23,6.34,9.58,2.55,2.84,6.77,7,6.77,8.93,0,1.08-2.39,2.39-6.93,4.32-5.3,2.26-7.49,2.22-7.49,2.55"/><path class="cls-2" d="M12.77,40,0,70H6.68l2.72-6.68H22L24.73,70h6.85L18.81,40Zm-1,17.54,4-9.66,4,9.66Z"/><path class="cls-2" d="M49.71,64.5c-5.11,0-8.64-4.26-8.64-9.36v-.08c0-5.11,3.62-9.28,8.64-9.28,3,0,5.32,1.28,7.62,3.36l4.17-4.81c-2.77-2.72-6.13-4.6-11.75-4.6A15.14,15.14,0,0,0,34.21,55.14v.08A15,15,0,0,0,49.49,70.54a15.23,15.23,0,0,0,12.22-5.32L57.54,61C55.2,63.14,53.11,64.5,49.71,64.5Z"/><path class="cls-2" d="M81.54,64.5c-5.11,0-8.64-4.26-8.64-9.36v-.08c0-5.11,3.62-9.28,8.64-9.28,3,0,5.32,1.28,7.62,3.36l4.17-4.81c-2.77-2.72-6.13-4.6-11.75-4.6A15.14,15.14,0,0,0,66,55.14v.08A15,15,0,0,0,81.33,70.54a15.23,15.23,0,0,0,12.22-5.32L89.37,61C87,63.14,84.95,64.5,81.54,64.5Z"/><path class="cls-2" d="M113.76,39.73c-9.19,0-15.88,6.94-15.88,15.41v.08c0,8.47,6.6,15.32,15.79,15.32s15.88-6.94,15.88-15.41v-.08C129.55,46.58,123,39.73,113.76,39.73Zm8.94,15.49h0c0,5.11-3.66,9.28-8.94,9.28a9.05,9.05,0,0,1-9-9.36v-.08c0-5.11,3.66-9.28,8.94-9.28a9.05,9.05,0,0,1,9,9.36Z"/><path class="cls-2" d="M161.52,50.15v-.08c0-6.13-4.21-9.83-11.24-9.83H136.66V70h6.55V60.5h5.15L154.75,70h7.66l-7.28-10.64A9.25,9.25,0,0,0,161.52,50.15Zm-6.64.34h0c0,2.51-1.83,4.21-5,4.21h-6.64V46.15h6.51c3.19,0,5.15,1.45,5.15,4.26Z"/><polygon class="cls-2" points="196.77 52.03 181.86 52.03 181.86 40.24 175.31 40.24 175.31 70.03 181.86 70.03 181.86 58.07 196.77 58.07 196.77 70.03 203.33 70.03 203.33 40.24 196.77 40.24 196.77 52.03"/><polygon class="cls-2" points="245.8 46.28 254.87 46.28 254.87 70.03 261.43 70.03 261.43 46.28 270.49 46.28 270.49 40.24 245.8 40.24 245.8 46.28"/><polygon class="cls-2" points="283.3 57.95 297.35 57.95 297.35 52.11 283.3 52.11 283.3 46.07 299.26 46.07 299.26 40.24 276.79 40.24 276.79 70.03 299.47 70.03 299.47 64.2 283.3 64.2 283.3 57.95"/><polygon class="cls-2" points="313.14 40.24 306.58 40.24 306.58 70.03 326.58 70.03 326.58 64.07 313.14 64.07 313.14 40.24"/><path class="cls-2" d="M344.88,52.2c-5.15-1.32-6.43-2-6.43-3.92V48.2c0-1.45,1.32-2.6,3.83-2.6s5.11,1.11,7.74,2.94l3.41-4.94a17.25,17.25,0,0,0-11.07-3.79c-6.08,0-10.43,3.58-10.43,9v.08c0,5.92,3.87,7.58,9.88,9.11,5,1.28,6,2.13,6,3.79v.08c0,1.75-1.62,2.81-4.3,2.81-3.4,0-6.21-1.4-8.9-3.62l-3.87,4.64a19,19,0,0,0,12.64,4.77c6.43,0,10.94-3.32,10.94-9.24h0v-.08C354.33,55.94,350.93,53.77,344.88,52.2Z"/><path class="cls-2" d="M226.31,39.73c-9.19,0-15.88,6.94-15.88,15.41v.08c0,8.47,6.6,15.32,15.79,15.32s15.88-6.94,15.88-15.41v-.08C242.1,46.58,235.5,39.73,226.31,39.73Zm8.94,15.49h0c0,5.11-3.66,9.28-8.94,9.28a9.05,9.05,0,0,1-9-9.36v-.08c0-5.11,3.66-9.28,8.94-9.28a9.05,9.05,0,0,1,9,9.36Z"/></svg>