<svg xmlns="http://www.w3.org/2000/svg" viewBox="0 0 1631.18 354.91"><defs><style>.cls-1{fill:#fddc00;}.cls-2{fill:#0164d1;}</style></defs><title>logo tiket.com</title><g id="Layer_2" data-name="Layer 2"><g id="Layer_1-2" data-name="Layer 1"><path class="cls-1" d="M830,354.91c-4.49-2.44-9.57-1.87-14.36-2.7-72-12.49-127.79-65.39-143.78-136.65C652,127,703.45,36.73,789.76,8.77c99.09-32.09,204,26.84,228,128.05,23.13,97.7-40.7,196-139.41,214.81-6.42,1.22-13.07,1.07-19.32,3.28Z"/><path class="cls-2" d="M0,107.91c1-.28.88-1.21,1.13-2,3.07-9.62,9.57-14.4,19.63-14.47s10.08-.07,10.08-10.22c0-5.5-.06-11,0-16.49C31,52.6,40.23,43.62,52.59,43.47S74.58,52,75,64.07c.3,7.82.23,15.66,0,23.48-.07,3.08.91,4.11,4,4,4.49-.21,9-.14,13.49,0,10.65.24,18.63,8.42,18.85,19.22A18.66,18.66,0,0,1,93.88,130.1c-5,.36-10,.3-15,.21-2.67,0-3.82.62-3.8,3.61.11,24.49-.06,49,.12,73.46.08,11.13,6.37,16.93,17.66,17.09,15.22.23,23.76,10.46,20.34,24.26a16.06,16.06,0,0,1-11.53,12c-16,4.89-32.27,5.3-47.89-1.19-15.36-6.39-22.32-19.37-22.66-35.26-.62-29.31-.37-58.63-.19-87.95,0-4.68-.89-6.64-5.92-6.06-13.32,1.53-21.23-5-25-17.38Z"/><path class="cls-2" d="M1526.61,119.23a73.79,73.79,0,0,1,24-21.19c14-7.65,28.75-10.91,44.73-8.2,19.3,3.28,31.84,15.95,34.7,35.36a99.31,99.31,0,0,1,1.11,14.42q0,53.73,0,107.46c0,11.77-9.52,19.09-20.32,15.93-6.52-1.91-10.8-7.76-10.8-15q0-48,0-96a63.49,63.49,0,0,0-1.21-13.4c-3.53-16.51-16.16-24.5-34.26-21.45-14.56,2.45-25.51,10.77-34.53,22-1.56,1.95-1.16,4.08-1.16,6.19q0,50.73,0,101.46c0,11.74-9.53,19.35-20.21,16.16-6.09-1.82-9.85-6-10.84-12.35a39.14,39.14,0,0,1-.3-6q0-47,0-94a63.33,63.33,0,0,0-.76-10.94c-3.11-17.49-16.61-26.21-35.22-22.51-14.07,2.8-24.58,11.27-33.43,22.14-1.57,1.93-1.16,4.09-1.16,6.2,0,33.65,0,67.31,0,101,0,12.09-9.58,19.67-20.45,16.43-6.77-2-10.86-7.72-10.89-15.49-.06-14.33,0-28.66,0-43,0-32,.27-64-.14-96-.15-11.58,8.1-17.69,16.1-17.64,9,.06,15.39,7.45,15.43,17.84,0,1.83,0,3.66,0,6.47,4.92-4.91,9.28-9.29,14.42-12.78,14.5-9.86,30.19-15.27,48-13.2C1507.67,91.4,1520.15,101.09,1526.61,119.23Z"/><path class="cls-2" d="M251.44,166c12.79-15.08,24.62-29,36.43-43,7.53-8.89,15-17.82,22.59-26.69s20-9.94,28.89-2.31,10.25,20.4,2.49,29.4Q324.08,144,306,164.33c-2.36,2.64-2.44,4.25-.32,7.06,13.67,18,27.15,36.23,40.67,54.39,6.88,9.24,6.8,19-.18,28-6.21,8.05-16.42,10.43-26.54,6.21a20.17,20.17,0,0,1-9-7.59c-12.11-17.73-24.4-35.32-36.34-53.16-2.46-3.67-3.62-3.44-6.24-.35-4.4,5.21-9.13,10.15-14,15A8.88,8.88,0,0,0,251.4,221c.14,6,.11,12,0,18-.18,13.79-9.43,23-22.85,22.93-12.46-.1-21.58-9.84-21.58-23.12q0-95.23,0-190.46c0-13.76,9.09-23.13,22.56-23.27,12.63-.13,21.84,9.61,21.86,23.33q.07,55.49,0,111C251.44,161.13,251.44,162.88,251.44,166Z"/><path class="cls-2" d="M401.54,189.91c2.47,20.21,18.15,35.41,38.28,38.07,14.9,2,28.75-1.11,42.05-7.54,8.1-3.91,15.58-2.87,22.27,2.88,8.74,7.52,7.8,20.31-2.08,26.17-22.7,13.46-47.47,16.78-73.19,13.35-24-3.2-43.95-14.05-58.2-34-31.19-43.57-18.78-123,50.26-139.23,47.31-11.14,91.86,13.6,103.08,66.76a59.85,59.85,0,0,1,1.44,12.36c0,12.38-8.5,21.09-21,21.11q-48.73.1-97.46,0Zm40.52-30.16c12.15,0,24.31-.2,36.46.1,4.48.11,4.86-1.37,4-5.2C477.9,134.09,463,122.59,441,122.76c-20.08.16-35.77,13.08-39.79,32.56-.75,3.64.34,4.56,3.93,4.5C417.42,159.63,429.74,159.75,442.06,159.75Z"/><path class="cls-2" d="M1208.9,175.93c.68-29.88,11.12-56.16,38-73.79,41-26.9,114.68-16.18,129.69,53.87,6.63,30.91.83,59.7-20.72,83.9-14.15,15.88-32.49,23.93-53.57,25.56-28.35,2.2-53.08-5.76-72.25-27.47C1214.79,220.7,1209.16,199.81,1208.9,175.93Zm137.26,6.56c0-17.4-2.32-27.66-7.14-37.2-18.15-35.94-65-38.83-87.4-5.4-14.32,21.38-13.68,55.72,1.44,76.93,18,25.18,52.92,28.78,75.08,7.43A59.78,59.78,0,0,0,1346.16,182.49Z"/><path class="cls-2" d="M552.84,179.28c0-14.82-.1-29.65.07-44.47,0-3.44-.85-4.86-4.42-4.51a41.72,41.72,0,0,1-7.48-.12c-11.34-1-18.38-9.21-18-21,.31-9.89,8.5-17.46,19.16-17.73s10.66-.27,10.68-11.13c0-5.5-.14-11,.16-16.48.68-12.47,10.46-20.8,23.65-20.39,11.45.35,20.37,9.66,20.5,21.5.08,7.16.21,14.33-.07,21.48-.15,3.78.74,5.47,4.87,5.1a116.48,116.48,0,0,1,12-.07c11.29.15,19.32,8,19.5,19,.18,11.21-7.27,19.24-18.62,19.81-4.82.24-9.66.12-14.49,0-2.3,0-3.21.72-3.21,3.16.08,24.48-.22,49,.17,73.45.19,12.11,6.18,17.28,18.29,17.53,15.06.31,23.59,11.41,19.49,25.27A15.88,15.88,0,0,1,623.8,260.8c-16.23,4.83-32.62,5.3-48.37-1.46-15.55-6.67-21.67-20.12-22.3-36.09-.58-14.63-.12-29.31-.12-44Z"/><path class="cls-2" d="M1142.35,88.89c19.76.07,37.87,4.76,52.75,18.65,6.88,6.42,8.12,13.9,3.15,19.67-6,6.92-14.25,7.55-21.63,1.35-16.06-13.49-34.16-15.13-52.94-7.94-20.09,7.68-30.21,24-33.25,44.51-2.76,18.62-.38,36.56,11.34,52.25a51.72,51.72,0,0,0,74,9.22c6.6-5.35,14.61-5.72,20.6-1,6.75,5.37,7.06,13.88.83,19.89-17.6,17-39.14,21.79-62.64,20-49.07-3.82-76.78-43.1-77.38-86.07-.32-23.1,5.73-44.1,20.75-62C1093.51,98.78,1116,88.92,1142.35,88.89Z"/><path class="cls-2" d="M177.16,175.64c0,21.65.09,43.3,0,65a21.76,21.76,0,0,1-18.82,21.22c-11.56,1.35-21.63-5.06-24.7-15.66a24.52,24.52,0,0,1-.76-6.92q0-63.71,0-127.41c0-13.55,9-22.38,22.65-22.34,12.87,0,21.62,9,21.65,22.21C177.2,133,177.16,154.32,177.16,175.64Z"/></g></g></svg>