<svg xmlns="http://www.w3.org/2000/svg" viewBox="0 0 294.1 171.09"><defs><style>.cls-1{fill:#de0000;}.cls-2{fill:#fff;}</style></defs><title>NEGO</title><g id="Layer_2" data-name="Layer 2"><g id="Layer_1-2" data-name="Layer 1"><rect class="cls-1" width="294.1" height="141.48" rx="34.43" ry="34.43"/><polygon class="cls-1" points="75.41 141.47 86.89 171.09 113.11 141.47 75.41 141.47"/><path class="cls-2" d="M66.26,76.3V42.12H80.64v58.2H67L42.83,67v33.33H28.45V42.12H42.83Z"/><path class="cls-2" d="M132.75,42.12V55.66H100.94v8.63h27.58V77.83H100.94v9h31.81v13.54H86.56V42.12Z"/><path class="cls-2" d="M170.82,87.55V78.42H158.21V66.74h27v30c-4.57,2.54-9.73,4.57-18.36,4.57-19,0-32.82-12.35-32.82-30s13.87-30,32-30c8.63,0,14.64,2,19.2,4.57V60.57a31.35,31.35,0,0,0-18.44-5.75c-10.41,0-17.51,6.34-17.51,16.5s7,16.5,17.43,16.5A33.06,33.06,0,0,0,170.82,87.55Z"/><path class="cls-2" d="M217.43,101.17c-17.34,0-30.12-12.35-30.12-29.86,0-17.68,12.77-30,30.12-30s30,12.35,30,30C247.46,88.82,234.69,101.17,217.43,101.17Zm0-14.38c8.46,0,14.8-5.92,14.8-15.48s-6.34-15.65-14.8-15.65-14.89,6-14.89,15.65S209,86.79,217.43,86.79Z"/><path class="cls-2" d="M267.76,42.12c0,17.77-2.54,27.49-2.54,38.41H252.53c0-10.91-2.54-20.64-2.54-38.41ZM250.5,93.22a8.42,8.42,0,1,1,8.38,8.38A8.41,8.41,0,0,1,250.5,93.22Z"/></g></g></svg>