<svg xmlns="http://www.w3.org/2000/svg" viewBox="0 0 512.02 512.04"><defs><style>.cls-1{fill:#fff;}</style></defs><title>Asset 1</title><g id="Layer_2" data-name="Layer 2"><g id="Capa_1" data-name="Capa 1"><circle class="cls-1" cx="208.01" cy="176.04" r="16"/><path class="cls-1" d="M304,320a16,16,0,1,0,16,16A16,16,0,0,0,304,320Z"/><path class="cls-1" d="M488.49,256,511,197.44a16,16,0,0,0-4.86-18.18l-48.7-39.49-9.86-62a16,16,0,0,0-13.31-13.28l-62-9.86L332.78,5.92a16,16,0,0,0-18.14-4.86L256,23.56,197.42,1.09A16,16,0,0,0,179.28,6L139.79,54.69l-62,9.86A16,16,0,0,0,64.52,77.83l-9.86,62L5.93,179.3a16,16,0,0,0-4.86,18.14L23.53,256,1.07,314.63a16,16,0,0,0,4.86,18.14l48.74,39.46,9.86,62A16,16,0,0,0,77.8,447.52l62,9.86,39.49,48.7a15.92,15.92,0,0,0,18.18,4.86L256,488.52,314.6,511a16,16,0,0,0,18.18-4.9l39.46-48.7,62-9.86a16,16,0,0,0,13.31-13.31l9.86-62,48.7-39.46A16,16,0,0,0,511,314.63ZM208,128a48,48,0,1,1-48,48A48.06,48.06,0,0,1,208,128Zm96,256a48,48,0,1,1,48-48A48.06,48.06,0,0,1,304,384Zm45.06-230.72-160,224A16.07,16.07,0,0,1,176,384a16,16,0,0,1-13-25.31l160-224a16,16,0,0,1,26,18.59Z"/></g></g></svg>