<svg xmlns="http://www.w3.org/2000/svg" viewBox="0 0 694.04 161.75"><defs><style>.cls-1{fill:#fff;}.cls-2{fill:#ec1c24;}.cls-3{fill:#2e3191;}.cls-4{fill:#ffdd15;}</style></defs><title>Asset 4</title><g id="Layer_2" data-name="Layer 2"><g id="Layer_1-2" data-name="Layer 1"><path class="cls-1" d="M0,17.74v-8A8.63,8.63,0,0,1,1.94,4,6.11,6.11,0,0,1,6.81,1.7h91A6.11,6.11,0,0,1,102.7,4a8.63,8.63,0,0,1,1.94,5.77v8a8.46,8.46,0,0,1-1.94,5.73,6.16,6.16,0,0,1-4.88,2.25h-32v89.87a8.13,8.13,0,0,1-2,5.56,6.12,6.12,0,0,1-4.77,2.25H45.54a6.12,6.12,0,0,1-4.77-2.25,8.12,8.12,0,0,1-2-5.56V25.71h-32a6.16,6.16,0,0,1-4.88-2.25A8.46,8.46,0,0,1,0,17.74Z"/><path class="cls-1" d="M114.9,12.64V9.76a10.8,10.8,0,0,1,2.19-7.13A7.45,7.45,0,0,1,123.14,0H132a7.53,7.53,0,0,1,6,2.59,10.66,10.66,0,0,1,2.22,7.17v2.88a10.8,10.8,0,0,1-2.19,7.13A7.45,7.45,0,0,1,132,22.4h-8.89a7.47,7.47,0,0,1-6-2.63A10.68,10.68,0,0,1,114.9,12.64Zm.29,105.57V37.68a5.49,5.49,0,0,1,1.26-3.73,4,4,0,0,1,3.12-1.44h16.06A3.9,3.9,0,0,1,138.78,34,5.63,5.63,0,0,1,140,37.68v80.54a5.49,5.49,0,0,1-1.25,3.73,4,4,0,0,1-3.12,1.44H119.56a3.94,3.94,0,0,1-3.16-1.44A5.58,5.58,0,0,1,115.18,118.21Z"/><path class="cls-1" d="M237.18,119.66q0,3.74-3.73,3.73H219.89q-6.88,0-11-8l-9.11-17.57q-5.88-11.29-17.07-11.29v31.65a5.49,5.49,0,0,1-1.25,3.73,4,4,0,0,1-3.12,1.44H162.3a3.94,3.94,0,0,1-3.16-1.44,5.58,5.58,0,0,1-1.22-3.73V7a5.65,5.65,0,0,1,1.26-3.78A3.92,3.92,0,0,1,162.3,1.7h16.06a3.9,3.9,0,0,1,3.16,1.49A5.76,5.76,0,0,1,182.74,7V67.21q12.48,0,17.07-11.46l6.89-17.31a13.62,13.62,0,0,1,4.23-5.86,9.54,9.54,0,0,1,6-2.21h13.55q3.58,0,3.59,3.31a13.54,13.54,0,0,1-1.15,4.75L223.7,61.53a30.47,30.47,0,0,1-6.45,9.93,18.82,18.82,0,0,1-8.82,5.35q8.82,3.14,15.28,15.28l12.19,23.34A10.92,10.92,0,0,1,237.18,119.66Z"/><path class="cls-1" d="M252.67,112.7q-11-12.39-11-35.69T252.74,41.2q11.12-12.52,30.84-12.52t30.77,12.18q11,12.18,11,34.92v4.84a5.65,5.65,0,0,1-1.26,3.78,4,4,0,0,1-3.19,1.49h-54q.72,10.44,5.06,15.19t13.88,4.75q9.54,0,13.05-5.09t8.68-5.18H318.3A4,4,0,0,1,321.49,97a5.65,5.65,0,0,1,1.26,3.78q0,24.36-39.23,24.27Q263.72,125.09,252.67,112.7ZM266.8,68h33.35q-.72-20-16.6-20T266.8,68Z"/><path class="cls-1" d="M376,105l9.83-1h2.65a4,4,0,0,1,3.19,1.44,5.49,5.49,0,0,1,1.26,3.73v9.08a5.06,5.06,0,0,1-1.26,3.35,5.23,5.23,0,0,1-3.19,1.82,87.2,87.2,0,0,1-19.08,1.7q-30.84,0-30.84-38.19V7a5.64,5.64,0,0,1,1.26-3.78A3.92,3.92,0,0,1,343,1.7H359a3.93,3.93,0,0,1,3.12,1.49A5.65,5.65,0,0,1,363.41,7V35.3h20a4,4,0,0,1,3.12,1.44,5.49,5.49,0,0,1,1.25,3.73v10.1a5.49,5.49,0,0,1-1.25,3.73,4,4,0,0,1-3.12,1.44h-20V86.9q0,8.66,3.44,13.37A10.82,10.82,0,0,0,376,105Z"/><path class="cls-1" d="M406.15,153.77V9.76a8.51,8.51,0,0,1,2-5.69,6.23,6.23,0,0,1,4.95-2.38h13.34a6,6,0,0,1,4.77,2.38,8.61,8.61,0,0,1,2,5.69V67.95h49.34V9.76a8.52,8.52,0,0,1,2-5.69,6.1,6.1,0,0,1,4.8-2.38h13.34a6.14,6.14,0,0,1,4.91,2.38,8.61,8.61,0,0,1,2,5.69V115.41a8.27,8.27,0,0,1-2,5.64,6.24,6.24,0,0,1-4.84,2.33H489.35a6.23,6.23,0,0,1-4.8-2.25,8,8,0,0,1-2-5.56V92H433.19v62a8.12,8.12,0,0,1-2,5.56,6.12,6.12,0,0,1-4.77,2.25H413.11a6.35,6.35,0,0,1-4.88-2.33A8.18,8.18,0,0,1,406.15,153.77Z"/><path class="cls-1" d="M533.78,117.28q-9.5-7.81-9.5-22.06t9.5-21.89q9.5-7.64,24.49-7.64H582q0-9.93-3.51-13.83t-12.3-3.9q-8.79,0-12.34,5.13t-8.71,5.13H534.46a4,4,0,0,1-3.19-1.49A5.52,5.52,0,0,1,530,53q0-24.36,39.09-24.36,17.07,0,27.4,9t10.33,28v52.53a5.59,5.59,0,0,1-1.22,3.73,3.94,3.94,0,0,1-3.16,1.44H588.61a3.89,3.89,0,0,1-3.16-1.49,5.62,5.62,0,0,1-1.22-3.69v-2.63a39.09,39.09,0,0,1-26.14,9.55Q543.28,125.09,533.78,117.28Zm18.29-29.45a11,11,0,0,0,.11,15q3,3,8.53,3,11,0,21.3-7.64V84.95H560A10.75,10.75,0,0,0,552.07,87.83Z"/><path class="cls-1" d="M668.65,12.64V9.76a10.81,10.81,0,0,1,2.19-7.13A7.45,7.45,0,0,1,676.9,0h8.89a7.53,7.53,0,0,1,6,2.59A10.66,10.66,0,0,1,694,9.76v2.88a10.81,10.81,0,0,1-2.19,7.13,7.45,7.45,0,0,1-6.06,2.63H676.9a7.47,7.47,0,0,1-6-2.63A10.68,10.68,0,0,1,668.65,12.64Zm.29,105.57V37.68a5.49,5.49,0,0,1,1.25-3.73,4,4,0,0,1,3.12-1.44h16.06A3.9,3.9,0,0,1,692.53,34a5.63,5.63,0,0,1,1.22,3.69v80.54a5.49,5.49,0,0,1-1.26,3.73,4,4,0,0,1-3.12,1.44H673.31a3.94,3.94,0,0,1-3.16-1.44A5.58,5.58,0,0,1,668.94,118.21Z"/><path class="cls-1" d="M500.31,134.25q9.3,0,9.3,11.09v5.14q0,5.14-2.38,8.07a8.39,8.39,0,0,1-6.93,2.93h-8.47a8.39,8.39,0,0,1-6.93-2.93q-2.38-2.93-2.38-8.07v-5.14q0-5.38,2.41-8.24a8.52,8.52,0,0,1,6.89-2.85Z"/><path class="cls-2" d="M556.1,161.47q-5.68,0-8.84-3.45t-3.16-10.14q0-6.69,3.14-10.15t8.73-3.46q5.6,0,8.6,2.11a7.12,7.12,0,0,1,3,6.23,1.55,1.55,0,0,1-.35,1.05,1.14,1.14,0,0,1-.9.41h-3a2.74,2.74,0,0,1-2.33-1.75,4.36,4.36,0,0,0-4.22-2.25q-3,0-4.23,1.83t-1.2,6q0,4.14,1.24,6t4.33,1.84a4.42,4.42,0,0,0,4.28-2.25q1-1.77,2.33-1.77h3a1.13,1.13,0,0,1,.9.42,1.56,1.56,0,0,1,.35,1,7.11,7.11,0,0,1-3,6.23Q561.78,161.47,556.1,161.47Z"/><path class="cls-3" d="M606.75,158q-3.16-3.45-3.16-10.17t3.16-10.15q3.16-3.44,9.08-3.44t9.08,3.44q3.16,3.44,3.16,10.15T624.9,158q-3.16,3.45-9.08,3.45T606.75,158Zm5.12-16.38q-1.26,1.94-1.25,6.2t1.25,6.23a5,5,0,0,0,7.92,0q1.26-2,1.26-6.23t-1.26-6.2a5,5,0,0,0-7.92,0Z"/><path class="cls-4" d="M657.36,159.53v-23.3a1.6,1.6,0,0,1,.35-1.07,1.11,1.11,0,0,1,.88-.42h4.53a1.1,1.1,0,0,1,.89.42,1.63,1.63,0,0,1,.34,1.07v1.51a13.6,13.6,0,0,1,2.86-2.58,6.17,6.17,0,0,1,3.39-.9q4.72,0,7.14,4.6,3.76-4.62,7.72-4.61a7.68,7.68,0,0,1,6.25,2.83q2.3,2.81,2.3,8.71v13.75a1.58,1.58,0,0,1-.34,1.05,1.11,1.11,0,0,1-.89.41h-4.51a1.13,1.13,0,0,1-.9-.42,1.56,1.56,0,0,1-.35-1V145.78q0-5.75-3.52-5.72-2.15,0-4.43,3.66a17.57,17.57,0,0,1,.12,2.06v13.75a1.55,1.55,0,0,1-.35,1.05,1.12,1.12,0,0,1-.88.41h-4.51a1.13,1.13,0,0,1-.9-.42,1.56,1.56,0,0,1-.35-1V145.78q0-5.75-3.52-5.72-2.25,0-4.31,3.42v16a1.55,1.55,0,0,1-.35,1.05,1.12,1.12,0,0,1-.88.41H658.6a1.11,1.11,0,0,1-.89-.41A1.57,1.57,0,0,1,657.36,159.53Z"/><path class="cls-1" d="M646.24,32.92H630.51a4.4,4.4,0,0,0-3.35,1.46,5.6,5.6,0,0,0-1.25,3.78v77.09a45.29,45.29,0,0,1-1.13,11,1.72,1.72,0,0,0,.77,1.9A16.06,16.06,0,0,1,629,131q5.23,5.69,5.23,16.81,0,1.45-.1,2.81a1.76,1.76,0,0,0,2.64,1.65q14-8.35,14-37.05V38.16a5.75,5.75,0,0,0-1.21-3.73A4.19,4.19,0,0,0,646.24,32.92Z"/><path class="cls-1" d="M648.86,2.62a7.49,7.49,0,0,0-6-2.62h-9a7.44,7.44,0,0,0-6,2.66,10.92,10.92,0,0,0-2.22,7.22v2.92A10.91,10.91,0,0,0,627.84,20a7.43,7.43,0,0,0,6,2.66h9a7.44,7.44,0,0,0,6-2.66,10.92,10.92,0,0,0,2.22-7.22V9.88A10.89,10.89,0,0,0,648.86,2.62Z"/></g></g></svg>